G04 #@! TF.GenerationSoftware,KiCad,Pcbnew,(6.0.7)*
G04 #@! TF.CreationDate,2022-09-16T15:01:37+02:00*
G04 #@! TF.ProjectId,Goobyl_da - Kretskort,476f6f62-796c-4e56-9461-202d204b7265,rev?*
G04 #@! TF.SameCoordinates,Original*
G04 #@! TF.FileFunction,Soldermask,Top*
G04 #@! TF.FilePolarity,Negative*
%FSLAX46Y46*%
G04 Gerber Fmt 4.6, Leading zero omitted, Abs format (unit mm)*
G04 Created by KiCad (PCBNEW (6.0.7)) date 2022-09-16 15:01:37*
%MOMM*%
%LPD*%
G01*
G04 APERTURE LIST*
G04 Aperture macros list*
%AMRoundRect*
0 Rectangle with rounded corners*
0 $1 Rounding radius*
0 $2 $3 $4 $5 $6 $7 $8 $9 X,Y pos of 4 corners*
0 Add a 4 corners polygon primitive as box body*
4,1,4,$2,$3,$4,$5,$6,$7,$8,$9,$2,$3,0*
0 Add four circle primitives for the rounded corners*
1,1,$1+$1,$2,$3*
1,1,$1+$1,$4,$5*
1,1,$1+$1,$6,$7*
1,1,$1+$1,$8,$9*
0 Add four rect primitives between the rounded corners*
20,1,$1+$1,$2,$3,$4,$5,0*
20,1,$1+$1,$4,$5,$6,$7,0*
20,1,$1+$1,$6,$7,$8,$9,0*
20,1,$1+$1,$8,$9,$2,$3,0*%
%AMFreePoly0*
4,1,9,3.862500,-0.866500,0.737500,-0.866500,0.737500,-0.450000,-0.737500,-0.450000,-0.737500,0.450000,0.737500,0.450000,0.737500,0.866500,3.862500,0.866500,3.862500,-0.866500,3.862500,-0.866500,$1*%
G04 Aperture macros list end*
%ADD10RoundRect,0.250000X0.312500X0.625000X-0.312500X0.625000X-0.312500X-0.625000X0.312500X-0.625000X0*%
%ADD11RoundRect,0.250000X0.625000X-0.312500X0.625000X0.312500X-0.625000X0.312500X-0.625000X-0.312500X0*%
%ADD12FreePoly0,90.000000*%
%ADD13R,0.900000X1.300000*%
%ADD14RoundRect,0.200000X-0.200000X-0.275000X0.200000X-0.275000X0.200000X0.275000X-0.200000X0.275000X0*%
%ADD15RoundRect,0.200000X0.275000X-0.200000X0.275000X0.200000X-0.275000X0.200000X-0.275000X-0.200000X0*%
%ADD16RoundRect,0.250000X1.425000X-0.362500X1.425000X0.362500X-1.425000X0.362500X-1.425000X-0.362500X0*%
%ADD17RoundRect,0.200000X0.200000X0.275000X-0.200000X0.275000X-0.200000X-0.275000X0.200000X-0.275000X0*%
%ADD18R,0.800000X0.900000*%
%ADD19R,2.300000X2.500000*%
%ADD20R,1.800000X2.500000*%
%ADD21R,2.500000X2.300000*%
%ADD22RoundRect,0.250000X-1.050000X-0.550000X1.050000X-0.550000X1.050000X0.550000X-1.050000X0.550000X0*%
%ADD23RoundRect,0.250000X-0.550000X1.050000X-0.550000X-1.050000X0.550000X-1.050000X0.550000X1.050000X0*%
%ADD24RoundRect,0.250000X0.550000X-1.050000X0.550000X1.050000X-0.550000X1.050000X-0.550000X-1.050000X0*%
%ADD25O,1.905000X2.000000*%
%ADD26R,1.905000X2.000000*%
%ADD27R,1.700000X1.700000*%
%ADD28O,1.700000X1.700000*%
%ADD29O,1.600000X1.600000*%
%ADD30R,1.600000X1.600000*%
G04 APERTURE END LIST*
D10*
X178787500Y-45000000D03*
X181712500Y-45000000D03*
D11*
X184000000Y-47287500D03*
X184000000Y-50212500D03*
D10*
X178037500Y-59000000D03*
X180962500Y-59000000D03*
D11*
X183280000Y-60627500D03*
X183280000Y-63552500D03*
D10*
X177787500Y-73000000D03*
X180712500Y-73000000D03*
D11*
X183310000Y-74787500D03*
X183310000Y-77712500D03*
D10*
X177787500Y-87000000D03*
X180712500Y-87000000D03*
D11*
X183310000Y-88787500D03*
X183310000Y-91712500D03*
D12*
X110750000Y-100812500D03*
D13*
X112250000Y-100900000D03*
X109250000Y-100900000D03*
D14*
X163835000Y-93010000D03*
X162185000Y-93010000D03*
X163835000Y-84010000D03*
X162185000Y-84010000D03*
X163835000Y-75010000D03*
X162185000Y-75010000D03*
X163835000Y-66010000D03*
X162185000Y-66010000D03*
X163835000Y-57010000D03*
X162185000Y-57010000D03*
X163835000Y-48010000D03*
X162185000Y-48010000D03*
X163835000Y-95810000D03*
X162185000Y-95810000D03*
X163835000Y-86810000D03*
X162185000Y-86810000D03*
X163835000Y-77810000D03*
X162185000Y-77810000D03*
X163835000Y-68810000D03*
X162185000Y-68810000D03*
X163835000Y-59810000D03*
X162185000Y-59810000D03*
X163835000Y-50810000D03*
X162185000Y-50810000D03*
X174575000Y-113500000D03*
X172925000Y-113500000D03*
X154650000Y-113500000D03*
X153000000Y-113500000D03*
D15*
X136010000Y-111185000D03*
X136010000Y-112835000D03*
D16*
X184260000Y-115547500D03*
X184260000Y-121472500D03*
X164260000Y-115547500D03*
X164260000Y-121472500D03*
X147260000Y-115547500D03*
X147260000Y-121472500D03*
D17*
X183175000Y-108000000D03*
X184825000Y-108000000D03*
X163425000Y-108000000D03*
X165075000Y-108000000D03*
X146425000Y-108000000D03*
X148075000Y-108000000D03*
D15*
X103010000Y-119935000D03*
X103010000Y-121585000D03*
X116010000Y-119935000D03*
X116010000Y-121585000D03*
X129010000Y-119935000D03*
X129010000Y-121585000D03*
D14*
X100075000Y-123500000D03*
X98425000Y-123500000D03*
X113075000Y-123500000D03*
X111425000Y-123500000D03*
X126075000Y-123500000D03*
X124425000Y-123500000D03*
D15*
X100010000Y-119935000D03*
X100010000Y-121585000D03*
X113010000Y-119935000D03*
X113010000Y-121585000D03*
X126010000Y-119935000D03*
X126010000Y-121585000D03*
X99000000Y-112175000D03*
X99000000Y-113825000D03*
X112000000Y-112175000D03*
X112000000Y-113825000D03*
X125000000Y-112175000D03*
X125000000Y-113825000D03*
D18*
X184250000Y-112750000D03*
X183300000Y-110750000D03*
X185200000Y-110750000D03*
X164250000Y-112750000D03*
X163300000Y-110750000D03*
X165200000Y-110750000D03*
X147250000Y-112750000D03*
X146300000Y-110750000D03*
X148200000Y-110750000D03*
X100000000Y-117750000D03*
X99050000Y-115750000D03*
X100950000Y-115750000D03*
X113000000Y-117750000D03*
X112050000Y-115750000D03*
X113950000Y-115750000D03*
X126000000Y-117750000D03*
X125050000Y-115750000D03*
X126950000Y-115750000D03*
X163100000Y-89000000D03*
X164050000Y-91000000D03*
X162150000Y-91000000D03*
X163100000Y-80000000D03*
X164050000Y-82000000D03*
X162150000Y-82000000D03*
X163200000Y-71010000D03*
X164150000Y-73010000D03*
X162250000Y-73010000D03*
X163100000Y-62000000D03*
X164050000Y-64000000D03*
X162150000Y-64000000D03*
X163100000Y-53010000D03*
X164050000Y-55010000D03*
X162150000Y-55010000D03*
X163100000Y-44000000D03*
X164050000Y-46000000D03*
X162150000Y-46000000D03*
X185000000Y-43000000D03*
X185950000Y-45000000D03*
X184050000Y-45000000D03*
X184250000Y-57000000D03*
X185200000Y-59000000D03*
X183300000Y-59000000D03*
X184250000Y-71000000D03*
X185200000Y-73000000D03*
X183300000Y-73000000D03*
X184250000Y-85000000D03*
X185200000Y-87000000D03*
X183300000Y-87000000D03*
D19*
X177000000Y-49150000D03*
X177000000Y-53450000D03*
X177000000Y-62650000D03*
X177000000Y-66950000D03*
X177000000Y-76650000D03*
X177000000Y-80950000D03*
X177000000Y-90650000D03*
X177000000Y-94950000D03*
X173010000Y-116610000D03*
X173010000Y-120910000D03*
X153010000Y-116610000D03*
X153010000Y-120910000D03*
X136010000Y-116610000D03*
X136010000Y-120910000D03*
D20*
X97500000Y-103750000D03*
X97500000Y-99750000D03*
D21*
X103100000Y-137250000D03*
X107400000Y-137250000D03*
X125100000Y-137250000D03*
X129400000Y-137250000D03*
X148100000Y-137250000D03*
X152400000Y-137250000D03*
D22*
X122800000Y-101000000D03*
X119200000Y-101000000D03*
D23*
X103000000Y-101550000D03*
X103000000Y-97950000D03*
D24*
X185000000Y-100450000D03*
X185000000Y-104050000D03*
D22*
X175050000Y-109000000D03*
X171450000Y-109000000D03*
X155050000Y-109000000D03*
X151450000Y-109000000D03*
D25*
X140920000Y-128000000D03*
X143460000Y-128000000D03*
D26*
X146000000Y-128000000D03*
D27*
X169000000Y-137250000D03*
X173000000Y-137250000D03*
X165000000Y-137250000D03*
D25*
X178020000Y-128000000D03*
X180560000Y-128000000D03*
D26*
X183100000Y-128000000D03*
D25*
X157920000Y-128000000D03*
X160460000Y-128000000D03*
D26*
X163000000Y-128000000D03*
D25*
X97920000Y-128000000D03*
X100460000Y-128000000D03*
D26*
X103000000Y-128000000D03*
D25*
X110920000Y-128000000D03*
X113460000Y-128000000D03*
D26*
X116000000Y-128000000D03*
D25*
X123920000Y-128000000D03*
X126460000Y-128000000D03*
D26*
X129000000Y-128000000D03*
D28*
X139630000Y-100010000D03*
X137090000Y-100010000D03*
X134550000Y-100010000D03*
D27*
X132010000Y-100010000D03*
D29*
X152030000Y-93270000D03*
X154570000Y-93270000D03*
X114950000Y-93270000D03*
X154570000Y-45010000D03*
X117490000Y-93270000D03*
X152030000Y-45010000D03*
X120030000Y-93270000D03*
X149490000Y-45010000D03*
X122570000Y-93270000D03*
X146950000Y-45010000D03*
X125110000Y-93270000D03*
X144410000Y-45010000D03*
X127650000Y-93270000D03*
X141870000Y-45010000D03*
X130190000Y-93270000D03*
X136790000Y-45010000D03*
X132730000Y-93270000D03*
X134250000Y-45010000D03*
X136790000Y-93270000D03*
X131710000Y-45010000D03*
X139330000Y-93270000D03*
X129170000Y-45010000D03*
X141870000Y-93270000D03*
X126630000Y-45010000D03*
X144410000Y-93270000D03*
X124090000Y-45010000D03*
X146950000Y-93270000D03*
X121550000Y-45010000D03*
X149490000Y-93270000D03*
D30*
X119010000Y-45010000D03*
D29*
X112410000Y-93270000D03*
X109870000Y-93270000D03*
D27*
X157000000Y-137250000D03*
X134000000Y-137250000D03*
X112000000Y-137250000D03*
X93000000Y-106600000D03*
D28*
X93000000Y-104060000D03*
D27*
X183250000Y-95000000D03*
X183250000Y-81000000D03*
X183250000Y-67000000D03*
X184000000Y-53500000D03*
X170000000Y-50750000D03*
X170000000Y-59750000D03*
X170000000Y-68750000D03*
X170000000Y-77750000D03*
X170000000Y-86750000D03*
X170000000Y-95750000D03*
M02*
