M48
; DRILL file {KiCad (6.0.7)} date Fri Sep 16 15:01:59 2022
; FORMAT={-:-/ absolute / metric / decimal}
; #@! TF.CreationDate,2022-09-16T15:01:59+02:00
; #@! TF.GenerationSoftware,Kicad,Pcbnew,(6.0.7)
; #@! TF.FileFunction,Plated,1,2,PTH
FMAT,2
METRIC
; #@! TA.AperFunction,Plated,PTH,ViaDrill
T1C0.400
; #@! TA.AperFunction,Plated,PTH,ComponentDrill
T2C1.000
; #@! TA.AperFunction,Plated,PTH,ComponentDrill
T3C1.100
%
G90
G05
T1
X90.0Y-42.5
X90.0Y-45.0
X90.0Y-47.5
X90.0Y-50.0
X90.0Y-52.5
X90.0Y-55.0
X90.0Y-57.5
X90.0Y-60.0
X90.0Y-62.5
X90.0Y-65.0
X90.0Y-67.5
X90.0Y-70.0
X90.0Y-72.5
X90.0Y-75.0
X90.0Y-77.5
X90.0Y-80.0
X90.0Y-82.5
X90.0Y-85.0
X90.0Y-87.5
X90.0Y-90.0
X90.0Y-92.5
X90.0Y-95.0
X90.0Y-97.5
X90.0Y-100.0
X90.0Y-102.5
X90.0Y-105.0
X90.0Y-107.5
X90.0Y-110.0
X90.0Y-112.5
X90.0Y-115.0
X90.0Y-117.5
X90.0Y-120.0
X90.0Y-122.5
X90.0Y-125.0
X90.0Y-127.5
X90.0Y-130.0
X90.0Y-132.5
X90.0Y-135.0
X90.0Y-137.5
X90.0Y-140.0
X92.5Y-42.5
X92.5Y-45.0
X92.5Y-47.5
X92.5Y-50.0
X92.5Y-52.5
X92.5Y-55.0
X92.5Y-57.5
X92.5Y-60.0
X92.5Y-62.5
X92.5Y-65.0
X92.5Y-67.5
X92.5Y-70.0
X92.5Y-72.5
X92.5Y-75.0
X92.5Y-77.5
X92.5Y-80.0
X92.5Y-82.5
X92.5Y-85.0
X92.5Y-87.5
X92.5Y-90.0
X92.5Y-92.5
X92.5Y-95.0
X92.5Y-97.5
X92.5Y-100.0
X92.5Y-102.5
X92.5Y-127.5
X92.5Y-130.0
X92.5Y-132.5
X92.5Y-135.0
X92.5Y-137.5
X92.5Y-140.0
X95.0Y-42.5
X95.0Y-45.0
X95.0Y-47.5
X95.0Y-50.0
X95.0Y-52.5
X95.0Y-55.0
X95.0Y-57.5
X95.0Y-60.0
X95.0Y-62.5
X95.0Y-65.0
X95.0Y-67.5
X95.0Y-70.0
X95.0Y-72.5
X95.0Y-75.0
X95.0Y-77.5
X95.0Y-80.0
X95.0Y-82.5
X95.0Y-85.0
X95.0Y-87.5
X95.0Y-90.0
X95.0Y-92.5
X95.0Y-95.0
X95.0Y-97.5
X95.0Y-100.0
X95.0Y-102.5
X95.0Y-110.0
X95.0Y-112.5
X95.0Y-115.0
X95.0Y-117.5
X95.0Y-120.0
X95.0Y-122.5
X95.0Y-130.0
X95.0Y-132.5
X95.0Y-135.0
X95.0Y-137.5
X95.0Y-140.0
X97.5Y-42.5
X97.5Y-45.0
X97.5Y-47.5
X97.5Y-50.0
X97.5Y-52.5
X97.5Y-55.0
X97.5Y-57.5
X97.5Y-60.0
X97.5Y-62.5
X97.5Y-65.0
X97.5Y-67.5
X97.5Y-70.0
X97.5Y-72.5
X97.5Y-75.0
X97.5Y-77.5
X97.5Y-80.0
X97.5Y-82.5
X97.5Y-85.0
X97.5Y-87.5
X97.5Y-90.0
X97.5Y-92.5
X97.5Y-95.0
X97.5Y-97.5
X97.5Y-110.0
X97.5Y-115.0
X97.5Y-117.5
X97.5Y-120.0
X97.5Y-130.0
X97.5Y-132.5
X97.5Y-135.0
X97.5Y-137.5
X97.5Y-140.0
X99.0Y-110.25
X100.0Y-42.5
X100.0Y-45.0
X100.0Y-47.5
X100.0Y-50.0
X100.0Y-52.5
X100.0Y-55.0
X100.0Y-57.5
X100.0Y-60.0
X100.0Y-62.5
X100.0Y-65.0
X100.0Y-67.5
X100.0Y-70.0
X100.0Y-72.5
X100.0Y-75.0
X100.0Y-77.5
X100.0Y-80.0
X100.0Y-82.5
X100.0Y-85.0
X100.0Y-87.5
X100.0Y-90.0
X100.0Y-92.5
X100.0Y-95.0
X100.0Y-97.5
X100.0Y-102.5
X100.0Y-107.5
X100.0Y-110.0
X100.0Y-130.0
X100.0Y-132.5
X100.0Y-135.0
X100.0Y-137.5
X100.0Y-140.0
X102.5Y-42.5
X102.5Y-45.0
X102.5Y-47.5
X102.5Y-50.0
X102.5Y-52.5
X102.5Y-55.0
X102.5Y-57.5
X102.5Y-60.0
X102.5Y-62.5
X102.5Y-65.0
X102.5Y-67.5
X102.5Y-70.0
X102.5Y-72.5
X102.5Y-75.0
X102.5Y-77.5
X102.5Y-80.0
X102.5Y-82.5
X102.5Y-85.0
X102.5Y-87.5
X102.5Y-90.0
X102.5Y-92.5
X102.5Y-95.0
X102.5Y-107.5
X102.5Y-110.0
X102.5Y-112.5
X102.5Y-115.0
X102.5Y-117.5
X102.5Y-140.0
X105.0Y-42.5
X105.0Y-45.0
X105.0Y-47.5
X105.0Y-50.0
X105.0Y-110.0
X105.0Y-112.5
X105.0Y-115.0
X105.0Y-117.5
X105.0Y-120.0
X105.0Y-122.5
X105.0Y-125.0
X105.0Y-127.5
X105.0Y-130.0
X105.0Y-132.5
X105.0Y-135.0
X105.0Y-140.0
X105.5Y-52.75
X107.5Y-42.5
X107.5Y-45.0
X107.5Y-47.5
X107.5Y-50.0
X107.5Y-55.0
X107.5Y-57.5
X107.5Y-60.0
X107.5Y-62.5
X107.5Y-65.0
X107.5Y-67.5
X107.5Y-70.0
X107.5Y-72.5
X107.5Y-75.0
X107.5Y-77.5
X107.5Y-80.0
X107.5Y-82.5
X107.5Y-85.0
X107.5Y-87.5
X107.5Y-90.0
X107.5Y-92.5
X107.5Y-95.0
X107.5Y-97.5
X107.5Y-102.5
X107.5Y-127.5
X107.5Y-130.0
X107.5Y-132.5
X107.5Y-135.0
X107.5Y-140.0
X110.0Y-42.5
X110.0Y-45.0
X110.0Y-47.5
X110.0Y-50.0
X110.0Y-55.0
X110.0Y-57.5
X110.0Y-60.0
X110.0Y-62.5
X110.0Y-65.0
X110.0Y-67.5
X110.0Y-70.0
X110.0Y-72.5
X110.0Y-75.0
X110.0Y-77.5
X110.0Y-80.0
X110.0Y-82.5
X110.0Y-85.0
X110.0Y-87.5
X110.0Y-90.0
X110.0Y-102.5
X110.0Y-107.5
X110.0Y-110.0
X110.0Y-112.5
X110.0Y-115.0
X110.0Y-117.5
X110.0Y-120.0
X110.0Y-122.5
X110.0Y-130.0
X110.0Y-132.5
X110.0Y-135.0
X110.0Y-140.0
X112.0Y-110.25
X112.5Y-42.5
X112.5Y-45.0
X112.5Y-47.5
X112.5Y-50.0
X112.5Y-55.0
X112.5Y-57.5
X112.5Y-60.0
X112.5Y-62.5
X112.5Y-65.0
X112.5Y-67.5
X112.5Y-70.0
X112.5Y-72.5
X112.5Y-75.0
X112.5Y-77.5
X112.5Y-80.0
X112.5Y-82.5
X112.5Y-85.0
X112.5Y-87.5
X112.5Y-90.0
X112.5Y-95.0
X112.5Y-102.5
X112.5Y-130.0
X112.5Y-132.5
X112.5Y-135.0
X112.5Y-140.0
X114.25Y-98.0
X115.0Y-42.5
X115.0Y-45.0
X115.0Y-47.5
X115.0Y-50.0
X115.0Y-55.0
X115.0Y-57.5
X115.0Y-60.0
X115.0Y-62.5
X115.0Y-65.0
X115.0Y-67.5
X115.0Y-70.0
X115.0Y-72.5
X115.0Y-75.0
X115.0Y-77.5
X115.0Y-80.0
X115.0Y-82.5
X115.0Y-85.0
X115.0Y-87.5
X115.0Y-90.0
X115.0Y-102.5
X115.0Y-107.5
X115.0Y-110.0
X115.0Y-112.5
X115.0Y-117.5
X115.0Y-137.5
X115.0Y-140.0
X115.85Y-98.9
X117.5Y-42.5
X117.5Y-47.5
X117.5Y-50.0
X117.5Y-55.0
X117.5Y-57.5
X117.5Y-60.0
X117.5Y-62.5
X117.5Y-65.0
X117.5Y-67.5
X117.5Y-70.0
X117.5Y-72.5
X117.5Y-75.0
X117.5Y-77.5
X117.5Y-80.0
X117.5Y-82.5
X117.5Y-85.0
X117.5Y-87.5
X117.5Y-90.0
X117.5Y-95.0
X117.5Y-102.5
X117.5Y-110.0
X117.5Y-112.5
X117.5Y-115.0
X117.5Y-117.5
X117.5Y-120.0
X117.5Y-122.5
X117.5Y-125.0
X117.5Y-140.0
X120.0Y-42.5
X120.0Y-47.5
X120.0Y-50.0
X120.0Y-55.0
X120.0Y-57.5
X120.0Y-60.0
X120.0Y-62.5
X120.0Y-65.0
X120.0Y-67.5
X120.0Y-70.0
X120.0Y-72.5
X120.0Y-75.0
X120.0Y-77.5
X120.0Y-80.0
X120.0Y-82.5
X120.0Y-85.0
X120.0Y-87.5
X120.0Y-90.0
X120.0Y-127.5
X120.0Y-130.0
X120.0Y-132.5
X120.0Y-140.0
X122.5Y-42.5
X122.5Y-47.5
X122.5Y-50.0
X122.5Y-55.0
X122.5Y-57.5
X122.5Y-60.0
X122.5Y-62.5
X122.5Y-65.0
X122.5Y-67.5
X122.5Y-70.0
X122.5Y-72.5
X122.5Y-75.0
X122.5Y-77.5
X122.5Y-80.0
X122.5Y-82.5
X122.5Y-85.0
X122.5Y-87.5
X122.5Y-90.0
X122.5Y-107.5
X122.5Y-110.0
X122.5Y-112.5
X122.5Y-115.0
X122.5Y-117.5
X122.5Y-120.0
X122.5Y-122.5
X122.5Y-130.0
X122.5Y-132.5
X122.5Y-135.0
X122.5Y-140.0
X125.0Y-42.5
X125.0Y-47.5
X125.0Y-50.0
X125.0Y-55.0
X125.0Y-57.5
X125.0Y-60.0
X125.0Y-62.5
X125.0Y-65.0
X125.0Y-67.5
X125.0Y-70.0
X125.0Y-72.5
X125.0Y-75.0
X125.0Y-77.5
X125.0Y-80.0
X125.0Y-82.5
X125.0Y-85.0
X125.0Y-87.5
X125.0Y-90.0
X125.0Y-97.0
X125.0Y-110.25
X125.0Y-130.0
X125.0Y-132.5
X125.0Y-135.0
X125.0Y-140.0
X126.0Y-102.0
X127.5Y-42.5
X127.5Y-47.5
X127.5Y-50.0
X127.5Y-55.0
X127.5Y-57.5
X127.5Y-60.0
X127.5Y-62.5
X127.5Y-65.0
X127.5Y-67.5
X127.5Y-70.0
X127.5Y-72.5
X127.5Y-75.0
X127.5Y-77.5
X127.5Y-80.0
X127.5Y-82.5
X127.5Y-85.0
X127.5Y-87.5
X127.5Y-90.0
X127.5Y-107.5
X127.5Y-110.0
X127.5Y-112.5
X127.5Y-117.5
X127.5Y-122.5
X127.5Y-125.0
X127.5Y-132.5
X127.5Y-135.0
X127.5Y-140.0
X127.75Y-103.0
X129.25Y-49.25
X130.0Y-42.5
X130.0Y-47.5
X130.0Y-55.0
X130.0Y-57.5
X130.0Y-60.0
X130.0Y-62.5
X130.0Y-65.0
X130.0Y-67.5
X130.0Y-70.0
X130.0Y-72.5
X130.0Y-75.0
X130.0Y-77.5
X130.0Y-80.0
X130.0Y-82.5
X130.0Y-85.0
X130.0Y-87.5
X130.0Y-90.0
X130.0Y-107.5
X130.0Y-110.0
X130.0Y-112.5
X130.0Y-115.0
X130.0Y-117.5
X130.0Y-135.0
X130.0Y-140.0
X130.25Y-96.0
X132.5Y-42.5
X132.5Y-47.5
X132.5Y-50.0
X132.5Y-55.0
X132.5Y-57.5
X132.5Y-60.0
X132.5Y-62.5
X132.5Y-65.0
X132.5Y-67.5
X132.5Y-70.0
X132.5Y-72.5
X132.5Y-75.0
X132.5Y-77.5
X132.5Y-80.0
X132.5Y-82.5
X132.5Y-85.0
X132.5Y-87.5
X132.5Y-90.0
X132.5Y-107.5
X132.5Y-110.0
X132.5Y-112.5
X132.5Y-115.0
X132.5Y-117.5
X132.5Y-120.0
X132.5Y-122.5
X132.5Y-125.0
X132.5Y-127.5
X132.5Y-130.0
X132.5Y-140.0
X132.75Y-97.0
X134.0Y-46.75
X134.75Y-48.0
X135.0Y-42.5
X135.0Y-107.5
X135.0Y-110.0
X135.0Y-140.0
X135.5Y-49.25
X136.75Y-52.75
X137.5Y-42.5
X137.5Y-55.0
X137.5Y-57.5
X137.5Y-60.0
X137.5Y-62.5
X137.5Y-65.0
X137.5Y-67.5
X137.5Y-70.0
X137.5Y-72.5
X137.5Y-75.0
X137.5Y-77.5
X137.5Y-80.0
X137.5Y-82.5
X137.5Y-85.0
X137.5Y-87.5
X137.5Y-90.0
X137.5Y-97.5
X137.5Y-107.5
X137.5Y-110.0
X137.5Y-112.5
X137.5Y-140.0
X139.31Y-86.81
X140.0Y-42.5
X140.0Y-45.0
X140.0Y-97.5
X140.0Y-107.5
X140.0Y-110.0
X140.0Y-112.5
X140.0Y-130.0
X140.0Y-135.0
X140.0Y-140.0
X140.537Y-84.287
X141.87Y-78.12
X142.5Y-42.5
X142.5Y-52.5
X142.5Y-55.0
X142.5Y-57.5
X142.5Y-62.5
X142.5Y-65.0
X142.5Y-67.5
X142.5Y-72.5
X142.5Y-75.0
X142.5Y-97.5
X142.5Y-100.0
X142.5Y-130.0
X142.5Y-135.0
X142.5Y-140.0
X143.287Y-70.787
X144.41Y-68.84
X145.0Y-42.5
X145.0Y-50.0
X145.0Y-52.5
X145.0Y-55.0
X145.0Y-57.5
X145.0Y-60.0
X145.0Y-62.5
X145.0Y-65.0
X145.0Y-67.5
X145.0Y-97.5
X145.0Y-100.0
X145.0Y-130.0
X145.0Y-135.0
X145.0Y-140.0
X145.75Y-96.0
X145.75Y-109.5
X146.95Y-59.8
X147.037Y-56.537
X147.5Y-42.5
X147.5Y-57.5
X147.5Y-97.5
X147.5Y-100.0
X147.5Y-117.5
X147.5Y-130.0
X147.5Y-135.0
X147.5Y-140.0
X149.49Y-50.76
X149.537Y-42.538
X150.0Y-97.5
X150.0Y-100.0
X150.0Y-112.5
X150.0Y-115.0
X150.0Y-117.5
X150.0Y-120.0
X150.0Y-122.5
X150.0Y-125.0
X150.0Y-127.5
X150.0Y-130.0
X150.0Y-135.0
X150.0Y-140.0
X151.287Y-56.537
X151.287Y-70.787
X152.0Y-48.0
X152.037Y-84.287
X152.5Y-50.0
X152.5Y-52.5
X152.5Y-55.0
X152.5Y-57.5
X152.5Y-62.5
X152.5Y-65.0
X152.5Y-67.5
X152.5Y-70.0
X152.5Y-72.5
X152.5Y-75.0
X152.5Y-80.0
X152.5Y-82.5
X152.5Y-90.0
X152.5Y-97.5
X152.5Y-100.0
X152.5Y-107.5
X152.5Y-140.0
X154.5Y-46.75
X155.0Y-50.0
X155.0Y-52.5
X155.0Y-55.0
X155.0Y-57.5
X155.0Y-62.5
X155.0Y-65.0
X155.0Y-67.5
X155.0Y-70.0
X155.0Y-72.5
X155.0Y-75.0
X155.0Y-80.0
X155.0Y-82.5
X155.0Y-90.0
X155.0Y-97.5
X155.0Y-100.0
X155.0Y-107.5
X155.0Y-120.0
X155.0Y-122.5
X155.0Y-125.0
X155.0Y-127.5
X155.0Y-140.0
X157.5Y-45.0
X157.5Y-47.5
X157.5Y-50.0
X157.5Y-52.5
X157.5Y-55.0
X157.5Y-57.5
X157.5Y-62.5
X157.5Y-65.0
X157.5Y-67.5
X157.5Y-70.0
X157.5Y-72.5
X157.5Y-75.0
X157.5Y-80.0
X157.5Y-82.5
X157.5Y-90.0
X157.5Y-92.5
X157.5Y-97.5
X157.5Y-100.0
X157.5Y-107.5
X157.5Y-110.0
X157.5Y-112.5
X157.5Y-140.0
X160.0Y-45.0
X160.0Y-47.5
X160.0Y-50.0
X160.0Y-52.5
X160.0Y-55.0
X160.0Y-57.5
X160.0Y-62.5
X160.0Y-65.0
X160.0Y-67.5
X160.0Y-70.0
X160.0Y-72.5
X160.0Y-75.0
X160.0Y-80.0
X160.0Y-82.5
X160.0Y-90.0
X160.0Y-92.5
X160.0Y-97.5
X160.0Y-100.0
X160.0Y-137.5
X160.0Y-140.0
X162.5Y-70.0
X162.5Y-97.5
X162.5Y-100.0
X162.5Y-112.5
X162.5Y-117.5
X162.5Y-125.0
X162.5Y-137.5
X162.5Y-140.0
X162.75Y-103.0
X162.75Y-109.5
X165.0Y-52.5
X165.0Y-57.5
X165.0Y-62.5
X165.0Y-65.0
X165.0Y-67.5
X165.0Y-70.0
X165.0Y-75.0
X165.0Y-80.0
X165.0Y-90.0
X165.0Y-92.5
X165.0Y-97.5
X165.0Y-100.0
X165.0Y-117.5
X165.0Y-140.0
X167.5Y-45.0
X167.5Y-47.5
X167.5Y-52.5
X167.5Y-55.0
X167.5Y-57.5
X167.5Y-62.5
X167.5Y-65.0
X167.5Y-67.5
X167.5Y-70.0
X167.5Y-72.5
X167.5Y-75.0
X167.5Y-80.0
X167.5Y-82.5
X167.5Y-90.0
X167.5Y-92.5
X167.5Y-97.5
X167.5Y-100.0
X167.5Y-107.5
X167.5Y-112.5
X167.5Y-115.0
X167.5Y-117.5
X167.5Y-120.0
X167.5Y-122.5
X167.5Y-125.0
X167.5Y-127.5
X167.5Y-140.0
X170.0Y-45.0
X170.0Y-47.5
X170.0Y-55.0
X170.0Y-57.5
X170.0Y-62.5
X170.0Y-65.0
X170.0Y-72.5
X170.0Y-75.0
X170.0Y-80.0
X170.0Y-82.5
X170.0Y-90.0
X170.0Y-92.5
X170.0Y-100.0
X170.0Y-107.5
X170.0Y-112.5
X170.0Y-115.0
X170.0Y-117.5
X170.0Y-120.0
X170.0Y-122.5
X170.0Y-125.0
X170.0Y-127.5
X170.0Y-130.0
X170.0Y-140.0
X172.5Y-45.0
X172.5Y-47.5
X172.5Y-50.0
X172.5Y-52.5
X172.5Y-55.0
X172.5Y-57.5
X172.5Y-60.0
X172.5Y-62.5
X172.5Y-65.0
X172.5Y-67.5
X172.5Y-70.0
X172.5Y-72.5
X172.5Y-75.0
X172.5Y-77.5
X172.5Y-80.0
X172.5Y-82.5
X172.5Y-87.5
X172.5Y-90.0
X172.5Y-92.5
X172.5Y-95.0
X172.5Y-97.5
X172.5Y-100.0
X172.5Y-107.5
X172.5Y-140.0
X175.0Y-45.0
X175.0Y-57.5
X175.0Y-60.0
X175.0Y-62.5
X175.0Y-65.0
X175.0Y-67.5
X175.0Y-70.0
X175.0Y-72.5
X175.0Y-75.0
X175.0Y-77.5
X175.0Y-80.0
X175.0Y-82.5
X175.0Y-87.5
X175.0Y-90.0
X175.0Y-92.5
X175.0Y-95.0
X175.0Y-97.5
X175.0Y-100.0
X175.0Y-107.5
X175.0Y-120.0
X175.0Y-122.5
X175.0Y-125.0
X175.0Y-127.5
X175.0Y-130.0
X175.0Y-132.5
X175.0Y-135.0
X175.0Y-137.5
X175.0Y-140.0
X177.5Y-57.5
X177.5Y-65.0
X177.5Y-70.0
X177.5Y-97.5
X177.5Y-100.0
X177.5Y-107.5
X177.5Y-110.0
X177.5Y-112.5
X177.5Y-130.0
X177.5Y-132.5
X177.5Y-135.0
X177.5Y-137.5
X177.5Y-140.0
X180.0Y-47.5
X180.0Y-50.0
X180.0Y-57.5
X180.0Y-62.5
X180.0Y-65.0
X180.0Y-70.0
X180.0Y-75.0
X180.0Y-77.5
X180.0Y-90.0
X180.0Y-92.5
X180.0Y-97.5
X180.0Y-100.0
X180.0Y-130.0
X180.0Y-132.5
X180.0Y-135.0
X180.0Y-137.5
X180.0Y-140.0
X180.713Y-70.787
X180.713Y-84.287
X180.963Y-56.537
X181.713Y-42.538
X182.5Y-57.5
X182.5Y-70.0
X182.5Y-85.0
X182.5Y-97.5
X182.5Y-100.0
X182.5Y-102.5
X182.5Y-117.5
X182.5Y-120.0
X182.5Y-125.0
X182.5Y-130.0
X182.5Y-132.5
X182.5Y-135.0
X182.5Y-137.5
X182.5Y-140.0
X185.0Y-62.5
X185.0Y-65.0
X185.0Y-67.5
X185.0Y-70.0
X185.0Y-75.0
X185.0Y-77.5
X185.0Y-80.0
X185.0Y-82.5
X185.0Y-90.0
X185.0Y-92.5
X185.0Y-95.0
X185.0Y-97.5
X185.0Y-117.5
X185.0Y-120.0
X185.0Y-130.0
X185.0Y-132.5
X185.0Y-135.0
X185.0Y-137.5
X185.0Y-140.0
X187.5Y-42.5
X187.5Y-45.0
X187.5Y-47.5
X187.5Y-50.0
X187.5Y-52.5
X187.5Y-55.0
X187.5Y-57.5
X187.5Y-60.0
X187.5Y-62.5
X187.5Y-65.0
X187.5Y-67.5
X187.5Y-70.0
X187.5Y-72.5
X187.5Y-75.0
X187.5Y-77.5
X187.5Y-80.0
X187.5Y-82.5
X187.5Y-85.0
X187.5Y-87.5
X187.5Y-90.0
X187.5Y-92.5
X187.5Y-95.0
X187.5Y-97.5
X187.5Y-100.0
X187.5Y-102.5
X187.5Y-105.0
X187.5Y-107.5
X187.5Y-110.0
X187.5Y-112.5
X187.5Y-115.0
X187.5Y-117.5
X187.5Y-120.0
X187.5Y-122.5
X187.5Y-125.0
X187.5Y-127.5
X187.5Y-130.0
X187.5Y-132.5
X187.5Y-135.0
X187.5Y-137.5
X187.5Y-140.0
T2
X93.0Y-104.06
X93.0Y-106.6
X109.87Y-93.27
X112.0Y-137.25
X112.41Y-93.27
X114.95Y-93.27
X117.49Y-93.27
X119.01Y-45.01
X120.03Y-93.27
X121.55Y-45.01
X122.57Y-93.27
X124.09Y-45.01
X125.11Y-93.27
X126.63Y-45.01
X127.65Y-93.27
X129.17Y-45.01
X130.19Y-93.27
X131.71Y-45.01
X132.01Y-100.01
X132.73Y-93.27
X134.0Y-137.25
X134.25Y-45.01
X134.55Y-100.01
X136.79Y-45.01
X136.79Y-93.27
X137.09Y-100.01
X139.33Y-93.27
X139.63Y-100.01
X141.87Y-45.01
X141.87Y-93.27
X144.41Y-45.01
X144.41Y-93.27
X146.95Y-45.01
X146.95Y-93.27
X149.49Y-45.01
X149.49Y-93.27
X152.03Y-45.01
X152.03Y-93.27
X154.57Y-45.01
X154.57Y-93.27
X157.0Y-137.25
X165.0Y-137.25
X169.0Y-137.25
X170.0Y-50.75
X170.0Y-59.75
X170.0Y-68.75
X170.0Y-77.75
X170.0Y-86.75
X170.0Y-95.75
X173.0Y-137.25
X183.25Y-67.0
X183.25Y-81.0
X183.25Y-95.0
X184.0Y-53.5
T3
X97.92Y-128.0
X100.46Y-128.0
X103.0Y-128.0
X110.92Y-128.0
X113.46Y-128.0
X116.0Y-128.0
X123.92Y-128.0
X126.46Y-128.0
X129.0Y-128.0
X140.92Y-128.0
X143.46Y-128.0
X146.0Y-128.0
X157.92Y-128.0
X160.46Y-128.0
X163.0Y-128.0
X178.02Y-128.0
X180.56Y-128.0
X183.1Y-128.0
T0
M30
