M48
; DRILL file {KiCad (6.0.7)} date Wed Nov 23 14:53:14 2022
; FORMAT={-:-/ absolute / metric / decimal}
; #@! TF.CreationDate,2022-11-23T14:53:14+01:00
; #@! TF.GenerationSoftware,Kicad,Pcbnew,(6.0.7)
; #@! TF.FileFunction,Plated,1,2,PTH
FMAT,2
METRIC
; #@! TA.AperFunction,Plated,PTH,ViaDrill
T1C0.400
; #@! TA.AperFunction,Plated,PTH,ViaDrill
T2C0.500
; #@! TA.AperFunction,Plated,PTH,ComponentDrill
T3C0.700
; #@! TA.AperFunction,Plated,PTH,ComponentDrill
T4C0.750
; #@! TA.AperFunction,Plated,PTH,ComponentDrill
T5C0.800
; #@! TA.AperFunction,Plated,PTH,ComponentDrill
T6C1.000
; #@! TA.AperFunction,Plated,PTH,ComponentDrill
T7C1.100
; #@! TA.AperFunction,Plated,PTH,ComponentDrill
T8C1.200
%
G90
G05
T1
X90.0Y-42.5
X90.0Y-45.0
X90.0Y-47.5
X90.0Y-50.0
X90.0Y-52.5
X90.0Y-55.0
X90.0Y-57.5
X90.0Y-60.0
X90.0Y-62.5
X90.0Y-65.0
X90.0Y-67.5
X90.0Y-70.0
X90.0Y-72.5
X90.0Y-75.0
X90.0Y-77.5
X90.0Y-80.0
X90.0Y-82.5
X90.0Y-85.0
X90.0Y-87.5
X90.0Y-90.0
X90.0Y-92.5
X90.0Y-95.0
X90.0Y-97.5
X90.0Y-100.0
X90.0Y-102.5
X90.0Y-105.0
X90.0Y-107.5
X90.0Y-110.0
X90.0Y-112.5
X90.0Y-115.0
X90.0Y-117.5
X90.0Y-120.0
X90.0Y-122.5
X90.0Y-125.0
X90.0Y-127.5
X90.0Y-130.0
X90.0Y-132.5
X90.0Y-135.0
X90.0Y-137.5
X90.0Y-140.0
X92.5Y-42.5
X92.5Y-45.0
X92.5Y-47.5
X92.5Y-50.0
X92.5Y-52.5
X92.5Y-55.0
X92.5Y-57.5
X92.5Y-60.0
X92.5Y-62.5
X92.5Y-65.0
X92.5Y-67.5
X92.5Y-70.0
X92.5Y-72.5
X92.5Y-75.0
X92.5Y-77.5
X92.5Y-80.0
X92.5Y-82.5
X92.5Y-85.0
X92.5Y-87.5
X92.5Y-90.0
X92.5Y-92.5
X92.5Y-95.0
X92.5Y-97.5
X92.5Y-100.0
X92.5Y-127.5
X92.5Y-130.0
X92.5Y-132.5
X92.5Y-135.0
X92.5Y-137.5
X92.5Y-140.0
X95.0Y-42.5
X95.0Y-45.0
X95.0Y-47.5
X95.0Y-50.0
X95.0Y-52.5
X95.0Y-55.0
X95.0Y-57.5
X95.0Y-60.0
X95.0Y-62.5
X95.0Y-65.0
X95.0Y-67.5
X95.0Y-70.0
X95.0Y-72.5
X95.0Y-75.0
X95.0Y-77.5
X95.0Y-80.0
X95.0Y-82.5
X95.0Y-85.0
X95.0Y-87.5
X95.0Y-90.0
X95.0Y-92.5
X95.0Y-95.0
X95.0Y-97.5
X95.0Y-100.0
X95.0Y-102.5
X95.0Y-130.0
X95.0Y-132.5
X95.0Y-140.0
X97.5Y-42.5
X97.5Y-45.0
X97.5Y-47.5
X97.5Y-50.0
X97.5Y-52.5
X97.5Y-55.0
X97.5Y-57.5
X97.5Y-60.0
X97.5Y-62.5
X97.5Y-65.0
X97.5Y-67.5
X97.5Y-70.0
X97.5Y-72.5
X97.5Y-75.0
X97.5Y-77.5
X97.5Y-80.0
X97.5Y-82.5
X97.5Y-85.0
X97.5Y-87.5
X97.5Y-90.0
X97.5Y-92.5
X97.5Y-95.0
X97.5Y-102.5
X97.5Y-130.0
X97.5Y-132.5
X97.5Y-140.0
X100.0Y-42.5
X100.0Y-45.0
X100.0Y-47.5
X100.0Y-50.0
X100.0Y-52.5
X100.0Y-55.0
X100.0Y-57.5
X100.0Y-60.0
X100.0Y-62.5
X100.0Y-65.0
X100.0Y-67.5
X100.0Y-70.0
X100.0Y-72.5
X100.0Y-75.0
X100.0Y-77.5
X100.0Y-80.0
X100.0Y-82.5
X100.0Y-85.0
X100.0Y-87.5
X100.0Y-90.0
X100.0Y-92.5
X100.0Y-95.0
X100.0Y-97.5
X100.0Y-102.5
X100.0Y-107.5
X100.0Y-130.0
X100.0Y-140.0
X102.5Y-42.5
X102.5Y-45.0
X102.5Y-47.5
X102.5Y-50.0
X102.5Y-52.5
X102.5Y-55.0
X102.5Y-57.5
X102.5Y-60.0
X102.5Y-62.5
X102.5Y-65.0
X102.5Y-67.5
X102.5Y-70.0
X102.5Y-72.5
X102.5Y-75.0
X102.5Y-77.5
X102.5Y-80.0
X102.5Y-82.5
X102.5Y-85.0
X102.5Y-87.5
X102.5Y-90.0
X102.5Y-92.5
X102.5Y-95.0
X102.5Y-97.5
X102.5Y-107.5
X102.5Y-140.0
X105.0Y-42.5
X105.0Y-45.0
X105.0Y-47.5
X105.0Y-50.0
X105.0Y-52.5
X105.0Y-55.0
X105.0Y-57.5
X105.0Y-60.0
X105.0Y-62.5
X105.0Y-65.0
X105.0Y-67.5
X105.0Y-70.0
X105.0Y-72.5
X105.0Y-75.0
X105.0Y-77.5
X105.0Y-80.0
X105.0Y-82.5
X105.0Y-85.0
X105.0Y-87.5
X105.0Y-90.0
X105.0Y-92.5
X105.0Y-95.0
X105.0Y-97.5
X105.0Y-102.5
X105.0Y-112.5
X105.0Y-115.0
X105.0Y-117.5
X105.0Y-120.0
X105.0Y-122.5
X105.0Y-125.0
X105.0Y-127.5
X105.0Y-132.5
X105.0Y-135.0
X105.0Y-140.0
X107.5Y-42.5
X107.5Y-45.0
X107.5Y-47.5
X107.5Y-50.0
X107.5Y-52.5
X107.5Y-55.0
X107.5Y-57.5
X107.5Y-60.0
X107.5Y-62.5
X107.5Y-65.0
X107.5Y-67.5
X107.5Y-70.0
X107.5Y-72.5
X107.5Y-75.0
X107.5Y-77.5
X107.5Y-80.0
X107.5Y-82.5
X107.5Y-85.0
X107.5Y-87.5
X107.5Y-90.0
X107.5Y-92.5
X107.5Y-95.0
X107.5Y-127.5
X107.5Y-130.0
X107.5Y-132.5
X107.5Y-140.0
X110.0Y-42.5
X110.0Y-45.0
X110.0Y-47.5
X110.0Y-50.0
X110.0Y-52.5
X110.0Y-55.0
X110.0Y-57.5
X110.0Y-60.0
X110.0Y-62.5
X110.0Y-65.0
X110.0Y-67.5
X110.0Y-70.0
X110.0Y-72.5
X110.0Y-75.0
X110.0Y-77.5
X110.0Y-80.0
X110.0Y-82.5
X110.0Y-85.0
X110.0Y-87.5
X110.0Y-90.0
X110.0Y-107.5
X110.0Y-130.0
X110.0Y-132.5
X110.0Y-140.0
X112.5Y-42.5
X112.5Y-45.0
X112.5Y-47.5
X112.5Y-50.0
X112.5Y-52.5
X112.5Y-55.0
X112.5Y-57.5
X112.5Y-60.0
X112.5Y-62.5
X112.5Y-65.0
X112.5Y-67.5
X112.5Y-70.0
X112.5Y-72.5
X112.5Y-75.0
X112.5Y-77.5
X112.5Y-80.0
X112.5Y-82.5
X112.5Y-85.0
X112.5Y-87.5
X112.5Y-90.0
X112.5Y-107.5
X112.5Y-130.0
X112.5Y-132.5
X112.5Y-140.0
X115.0Y-42.5
X115.0Y-45.0
X115.0Y-47.5
X115.0Y-50.0
X115.0Y-52.5
X115.0Y-55.0
X115.0Y-57.5
X115.0Y-60.0
X115.0Y-62.5
X115.0Y-65.0
X115.0Y-67.5
X115.0Y-70.0
X115.0Y-72.5
X115.0Y-75.0
X115.0Y-77.5
X115.0Y-80.0
X115.0Y-82.5
X115.0Y-85.0
X115.0Y-87.5
X115.0Y-90.0
X115.0Y-107.5
X115.0Y-137.75
X115.0Y-140.0
X117.5Y-42.5
X117.5Y-47.5
X117.5Y-50.0
X117.5Y-52.5
X117.5Y-55.0
X117.5Y-57.5
X117.5Y-60.0
X117.5Y-62.5
X117.5Y-65.0
X117.5Y-67.5
X117.5Y-70.0
X117.5Y-72.5
X117.5Y-75.0
X117.5Y-77.5
X117.5Y-80.0
X117.5Y-82.5
X117.5Y-85.0
X117.5Y-87.5
X117.5Y-90.0
X117.5Y-102.5
X117.5Y-110.0
X117.5Y-112.5
X117.5Y-115.0
X117.5Y-117.5
X117.5Y-120.0
X117.5Y-137.75
X117.5Y-140.0
X120.0Y-42.5
X120.0Y-47.5
X120.0Y-50.0
X120.0Y-52.5
X120.0Y-55.0
X120.0Y-57.5
X120.0Y-60.0
X120.0Y-62.5
X120.0Y-65.0
X120.0Y-67.5
X120.0Y-70.0
X120.0Y-72.5
X120.0Y-75.0
X120.0Y-77.5
X120.0Y-80.0
X120.0Y-82.5
X120.0Y-85.0
X120.0Y-87.5
X120.0Y-90.0
X120.0Y-127.5
X120.0Y-130.0
X120.0Y-132.5
X120.0Y-140.0
X122.5Y-42.5
X122.5Y-47.5
X122.5Y-50.0
X122.5Y-52.5
X122.5Y-55.0
X122.5Y-57.5
X122.5Y-60.0
X122.5Y-62.5
X122.5Y-65.0
X122.5Y-67.5
X122.5Y-70.0
X122.5Y-72.5
X122.5Y-75.0
X122.5Y-77.5
X122.5Y-80.0
X122.5Y-82.5
X122.5Y-85.0
X122.5Y-87.5
X122.5Y-90.0
X122.5Y-107.5
X122.5Y-130.0
X122.5Y-132.5
X122.5Y-135.0
X122.5Y-137.75
X122.5Y-140.0
X125.0Y-42.5
X125.0Y-47.5
X125.0Y-50.0
X125.0Y-52.5
X125.0Y-55.0
X125.0Y-60.0
X125.0Y-62.5
X125.0Y-65.0
X125.0Y-67.5
X125.0Y-70.0
X125.0Y-72.5
X125.0Y-75.0
X125.0Y-77.5
X125.0Y-80.0
X125.0Y-82.5
X125.0Y-85.0
X125.0Y-87.5
X125.0Y-90.0
X125.0Y-100.0
X125.0Y-102.5
X125.0Y-110.0
X125.0Y-130.0
X125.0Y-132.5
X125.0Y-135.0
X125.0Y-137.75
X125.0Y-140.0
X126.38Y-96.37
X127.5Y-42.5
X127.5Y-47.5
X127.5Y-50.0
X127.5Y-52.5
X127.5Y-57.5
X127.5Y-60.0
X127.5Y-62.5
X127.5Y-65.0
X127.5Y-67.5
X127.5Y-70.0
X127.5Y-72.5
X127.5Y-75.0
X127.5Y-77.5
X127.5Y-80.0
X127.5Y-82.5
X127.5Y-85.0
X127.5Y-87.5
X127.5Y-90.0
X127.5Y-107.5
X127.5Y-110.0
X127.5Y-132.5
X127.5Y-135.0
X127.5Y-137.75
X127.5Y-140.0
X130.0Y-42.5
X130.0Y-50.0
X130.0Y-55.0
X130.0Y-57.5
X130.0Y-60.0
X130.0Y-62.5
X130.0Y-65.0
X130.0Y-67.5
X130.0Y-70.0
X130.0Y-72.5
X130.0Y-75.0
X130.0Y-77.5
X130.0Y-80.0
X130.0Y-82.5
X130.0Y-85.0
X130.0Y-87.5
X130.0Y-90.0
X130.0Y-110.0
X130.0Y-112.5
X130.0Y-115.0
X130.0Y-140.0
X132.5Y-42.5
X132.5Y-47.5
X132.5Y-52.5
X132.5Y-55.0
X132.5Y-57.5
X132.5Y-60.0
X132.5Y-62.5
X132.5Y-65.0
X132.5Y-67.5
X132.5Y-70.0
X132.5Y-72.5
X132.5Y-75.0
X132.5Y-77.5
X132.5Y-80.0
X132.5Y-82.5
X132.5Y-85.0
X132.5Y-102.5
X132.5Y-110.0
X132.5Y-112.5
X132.5Y-115.0
X132.5Y-117.5
X132.5Y-120.0
X132.5Y-122.5
X132.5Y-125.0
X132.5Y-127.5
X132.5Y-130.0
X132.5Y-140.0
X132.8Y-87.6
X135.0Y-42.5
X135.0Y-50.0
X135.0Y-52.5
X135.0Y-55.0
X135.0Y-57.5
X135.0Y-60.0
X135.0Y-102.5
X135.0Y-140.0
X135.75Y-97.0
X136.6Y-87.6
X137.5Y-42.5
X137.5Y-47.5
X137.5Y-50.0
X137.5Y-52.5
X137.5Y-55.0
X137.5Y-57.5
X137.5Y-90.0
X137.5Y-102.5
X137.5Y-107.5
X137.5Y-140.0
X140.0Y-42.5
X140.0Y-45.0
X140.0Y-47.5
X140.0Y-50.0
X140.0Y-52.5
X140.0Y-55.0
X140.0Y-62.5
X140.0Y-65.0
X140.0Y-67.5
X140.0Y-70.0
X140.0Y-72.5
X140.0Y-75.0
X140.0Y-77.5
X140.0Y-80.0
X140.0Y-82.5
X140.0Y-85.0
X140.0Y-87.5
X140.0Y-90.0
X140.0Y-102.5
X140.0Y-107.5
X140.0Y-140.0
X142.5Y-42.5
X142.5Y-60.0
X142.5Y-62.5
X142.5Y-65.0
X142.5Y-67.5
X142.5Y-70.0
X142.5Y-72.5
X142.5Y-75.0
X142.5Y-77.5
X142.5Y-80.0
X142.5Y-82.5
X142.5Y-85.0
X142.5Y-87.5
X142.5Y-90.0
X142.5Y-100.0
X142.5Y-102.5
X142.5Y-130.0
X142.5Y-140.0
X144.625Y-85.625
X145.0Y-42.5
X145.0Y-47.5
X145.0Y-50.0
X145.0Y-57.5
X145.0Y-60.0
X145.0Y-62.5
X145.0Y-65.0
X145.0Y-67.5
X145.0Y-70.0
X145.0Y-72.5
X145.0Y-75.0
X145.0Y-77.5
X145.0Y-80.0
X145.0Y-82.5
X145.0Y-100.0
X145.0Y-102.5
X145.0Y-130.0
X145.0Y-137.75
X145.0Y-140.0
X147.5Y-42.5
X147.5Y-55.0
X147.5Y-60.0
X147.5Y-62.5
X147.5Y-65.0
X147.5Y-67.5
X147.5Y-70.0
X147.5Y-72.5
X147.5Y-95.0
X147.5Y-117.5
X147.5Y-120.0
X147.5Y-130.0
X147.5Y-137.75
X147.5Y-140.0
X148.131Y-85.619
X150.0Y-55.0
X150.0Y-57.5
X150.0Y-62.5
X150.0Y-65.0
X150.0Y-67.5
X150.0Y-70.0
X150.0Y-75.0
X150.0Y-77.5
X150.0Y-80.0
X150.0Y-95.0
X150.0Y-112.5
X150.0Y-115.0
X150.0Y-117.5
X150.0Y-120.0
X150.0Y-122.5
X150.0Y-125.0
X150.0Y-127.5
X150.0Y-130.0
X150.0Y-140.0
X152.5Y-55.0
X152.5Y-57.5
X152.5Y-60.0
X152.5Y-65.0
X152.5Y-67.5
X152.5Y-72.5
X152.5Y-75.0
X152.5Y-77.5
X152.5Y-87.5
X152.5Y-90.0
X152.5Y-95.0
X152.5Y-100.0
X152.5Y-102.5
X152.5Y-107.5
X152.5Y-110.0
X152.5Y-112.5
X152.5Y-140.0
X155.0Y-47.5
X155.0Y-50.0
X155.0Y-57.5
X155.0Y-60.0
X155.0Y-62.5
X155.0Y-70.0
X155.0Y-72.5
X155.0Y-75.0
X155.0Y-85.0
X155.0Y-87.5
X155.0Y-90.0
X155.0Y-95.0
X155.0Y-100.0
X155.0Y-102.5
X155.0Y-107.5
X155.0Y-110.0
X155.0Y-117.5
X155.0Y-140.0
X156.0Y-64.4
X157.5Y-45.0
X157.5Y-47.5
X157.5Y-50.0
X157.5Y-55.0
X157.5Y-60.0
X157.5Y-62.5
X157.5Y-70.0
X157.5Y-72.5
X157.5Y-82.5
X157.5Y-85.0
X157.5Y-87.5
X157.5Y-90.0
X157.5Y-92.5
X157.5Y-95.0
X157.5Y-100.0
X157.5Y-102.5
X157.5Y-107.5
X157.5Y-140.0
X158.2Y-66.4
X160.0Y-45.0
X160.0Y-47.5
X160.0Y-50.0
X160.0Y-55.0
X160.0Y-57.5
X160.0Y-80.0
X160.0Y-82.5
X160.0Y-85.0
X160.0Y-87.5
X160.0Y-90.0
X160.0Y-92.5
X160.0Y-95.0
X160.0Y-100.0
X160.0Y-102.5
X160.0Y-137.75
X160.0Y-140.0
X160.8Y-64.0
X160.8Y-68.2
X162.5Y-100.0
X162.5Y-102.5
X162.5Y-117.5
X162.5Y-120.0
X162.5Y-137.75
X162.5Y-140.0
X165.0Y-117.5
X165.0Y-120.0
X165.0Y-140.0
X167.5Y-112.5
X167.5Y-115.0
X167.5Y-117.5
X167.5Y-120.0
X167.5Y-122.5
X167.5Y-125.0
X167.5Y-127.5
X167.5Y-140.0
X170.0Y-100.0
X170.0Y-102.5
X170.0Y-107.5
X170.0Y-110.0
X170.0Y-112.5
X170.0Y-115.0
X170.0Y-117.5
X170.0Y-120.0
X170.0Y-122.5
X170.0Y-125.0
X170.0Y-127.5
X170.0Y-130.0
X170.0Y-140.0
X172.5Y-45.0
X172.5Y-52.5
X172.5Y-55.0
X172.5Y-97.5
X172.5Y-100.0
X172.5Y-102.5
X172.5Y-107.5
X172.5Y-140.0
X175.0Y-45.0
X175.0Y-47.5
X175.0Y-50.0
X175.0Y-52.5
X175.0Y-55.0
X175.0Y-57.5
X175.0Y-60.0
X175.0Y-62.5
X175.0Y-65.0
X175.0Y-67.5
X175.0Y-72.5
X175.0Y-75.0
X175.0Y-77.5
X175.0Y-80.0
X175.0Y-85.0
X175.0Y-87.5
X175.0Y-90.0
X175.0Y-92.5
X175.0Y-95.0
X175.0Y-100.0
X175.0Y-102.5
X175.0Y-107.5
X175.0Y-110.0
X175.0Y-117.5
X175.0Y-130.0
X175.0Y-135.0
X175.0Y-137.75
X175.0Y-140.0
X177.5Y-100.0
X177.5Y-102.5
X177.5Y-107.5
X177.5Y-130.0
X177.5Y-132.5
X177.5Y-135.0
X177.5Y-137.5
X177.5Y-140.0
X180.0Y-47.5
X180.0Y-60.0
X180.0Y-75.0
X180.0Y-80.0
X180.0Y-87.5
X180.0Y-100.0
X180.0Y-102.5
X180.0Y-130.0
X180.0Y-132.5
X180.0Y-135.0
X180.0Y-137.5
X180.0Y-140.0
X182.5Y-42.5
X182.5Y-60.0
X182.5Y-75.0
X182.5Y-87.5
X182.5Y-102.5
X182.5Y-105.0
X182.5Y-117.5
X182.5Y-120.0
X182.5Y-130.0
X182.5Y-132.5
X182.5Y-135.0
X182.5Y-137.5
X182.5Y-140.0
X185.0Y-42.5
X185.0Y-47.5
X185.0Y-55.0
X185.0Y-60.0
X185.0Y-67.5
X185.0Y-70.0
X185.0Y-75.0
X185.0Y-82.5
X185.0Y-90.0
X185.0Y-97.5
X185.0Y-105.0
X185.0Y-117.5
X185.0Y-130.0
X185.0Y-132.5
X185.0Y-135.0
X185.0Y-137.5
X185.0Y-140.0
X187.5Y-42.5
X187.5Y-45.0
X187.5Y-47.5
X187.5Y-50.0
X187.5Y-52.5
X187.5Y-55.0
X187.5Y-60.0
X187.5Y-62.5
X187.5Y-65.0
X187.5Y-67.5
X187.5Y-70.0
X187.5Y-75.0
X187.5Y-77.5
X187.5Y-82.5
X187.5Y-85.0
X187.5Y-87.5
X187.5Y-90.0
X187.5Y-92.5
X187.5Y-95.0
X187.5Y-97.5
X187.5Y-100.0
X187.5Y-102.5
X187.5Y-105.0
X187.5Y-107.5
X187.5Y-112.5
X187.5Y-115.0
X187.5Y-117.5
X187.5Y-120.0
X187.5Y-122.5
X187.5Y-125.0
X187.5Y-127.5
X187.5Y-130.0
X187.5Y-132.5
X187.5Y-135.0
X187.5Y-137.5
X187.5Y-140.0
T2
X177.0Y-46.0
X177.0Y-47.5
X177.0Y-49.0
X177.0Y-50.5
X177.0Y-60.0
X177.0Y-61.5
X177.0Y-63.0
X177.0Y-64.5
X177.0Y-74.0
X177.0Y-75.5
X177.0Y-77.0
X177.0Y-78.5
X177.0Y-88.5
X177.0Y-90.0
X177.0Y-91.5
X177.0Y-93.0
T3
X97.01Y-109.93
X97.01Y-115.01
X97.01Y-118.93
X97.01Y-124.01
X100.01Y-118.93
X100.01Y-124.01
X103.01Y-118.93
X103.01Y-124.01
X110.01Y-109.93
X110.01Y-115.01
X110.01Y-118.93
X110.01Y-124.01
X113.01Y-118.93
X113.01Y-124.01
X116.01Y-118.93
X116.01Y-124.01
X123.01Y-110.01
X123.01Y-115.09
X123.01Y-118.93
X123.01Y-124.01
X126.01Y-118.93
X126.01Y-124.01
X129.01Y-118.93
X129.01Y-124.01
X140.51Y-109.93
X140.51Y-115.01
X140.51Y-118.93
X140.51Y-124.01
X157.5Y-110.01
X157.5Y-115.09
X157.5Y-118.92
X157.5Y-124.0
X163.01Y-48.01
X163.01Y-50.81
X163.01Y-57.01
X163.01Y-59.81
X163.01Y-66.01
X163.01Y-68.81
X163.01Y-75.01
X163.01Y-77.81
X163.01Y-84.01
X163.01Y-86.81
X163.01Y-93.01
X163.01Y-95.81
X168.09Y-48.01
X168.09Y-50.81
X168.09Y-57.01
X168.09Y-59.81
X168.09Y-66.01
X168.09Y-68.81
X168.09Y-75.01
X168.09Y-77.81
X168.09Y-84.01
X168.09Y-86.81
X168.09Y-93.01
X168.09Y-95.81
X177.51Y-110.01
X177.51Y-115.09
X177.51Y-118.93
X177.51Y-124.01
X180.51Y-44.0
X180.51Y-49.08
X180.67Y-58.0
X180.67Y-63.08
X180.71Y-72.01
X180.71Y-77.09
X180.71Y-86.01
X180.71Y-91.09
X183.11Y-44.01
X183.11Y-49.09
X183.28Y-58.01
X183.28Y-63.09
X183.31Y-72.01
X183.31Y-77.09
X183.31Y-86.01
X183.31Y-91.09
T4
X100.0Y-114.0
X101.27Y-112.73
X102.54Y-114.0
X113.0Y-114.0
X114.27Y-112.73
X115.54Y-114.0
X126.0Y-114.0
X127.27Y-112.73
X128.54Y-114.0
X147.75Y-108.0
X147.75Y-110.54
X149.02Y-109.27
X164.75Y-108.0
X164.75Y-110.54
X166.02Y-109.27
X184.75Y-108.0
X184.75Y-110.54
X186.02Y-109.27
T5
X103.0Y-100.0
X103.0Y-102.0
X121.0Y-101.0
X123.0Y-101.0
X147.26Y-113.85
X147.26Y-124.01
X148.26Y-100.01
X148.26Y-102.01
X163.01Y-45.01
X163.01Y-54.01
X163.01Y-63.01
X163.01Y-72.01
X163.01Y-81.01
X163.01Y-90.01
X164.26Y-113.85
X164.26Y-124.01
X165.26Y-100.01
X165.26Y-102.01
X170.63Y-45.01
X170.63Y-54.01
X170.63Y-63.01
X170.63Y-72.01
X170.63Y-81.01
X170.63Y-90.01
X184.26Y-113.85
X184.26Y-124.01
X185.26Y-100.01
X185.26Y-102.01
X186.01Y-44.01
X186.01Y-51.63
X186.01Y-58.01
X186.01Y-65.63
X186.01Y-72.01
X186.01Y-79.63
X186.01Y-86.01
X186.01Y-93.63
T6
X93.0Y-104.06
X93.0Y-106.6
X109.87Y-93.27
X112.0Y-137.25
X112.41Y-93.27
X114.95Y-93.27
X117.49Y-93.27
X119.01Y-45.01
X120.03Y-93.27
X121.55Y-45.01
X122.57Y-93.27
X124.09Y-45.01
X125.11Y-93.27
X126.63Y-45.01
X127.65Y-93.27
X129.17Y-45.01
X130.19Y-93.27
X131.71Y-45.01
X132.01Y-100.01
X132.73Y-93.27
X134.0Y-137.25
X134.25Y-45.01
X134.55Y-100.01
X136.79Y-45.01
X136.79Y-93.27
X137.09Y-100.01
X139.33Y-93.27
X139.63Y-100.01
X141.87Y-45.01
X141.87Y-93.27
X144.41Y-45.01
X144.41Y-93.27
X146.95Y-45.01
X146.95Y-93.27
X149.49Y-45.01
X149.49Y-93.27
X152.03Y-45.01
X152.03Y-93.27
X154.57Y-45.01
X154.57Y-93.27
X157.0Y-137.25
X165.0Y-137.25
X169.0Y-137.25
X172.0Y-49.0
X172.0Y-58.0
X172.0Y-67.0
X172.0Y-76.0
X172.0Y-85.0
X172.0Y-94.0
X173.0Y-137.25
X182.0Y-54.0
X182.0Y-68.0
X182.0Y-82.0
X182.0Y-96.0
T7
X97.01Y-99.01
X97.01Y-106.63
X97.92Y-128.0
X100.46Y-128.0
X103.0Y-128.0
X110.0Y-101.0
X110.92Y-128.0
X112.54Y-101.0
X113.46Y-128.0
X115.08Y-101.0
X116.0Y-128.0
X123.92Y-128.0
X126.46Y-128.0
X129.0Y-128.0
X140.92Y-128.0
X143.46Y-128.0
X146.0Y-128.0
X157.92Y-128.0
X160.46Y-128.0
X163.0Y-128.0
X178.02Y-128.0
X180.56Y-128.0
X183.1Y-128.0
T8
X96.85Y-137.26
X107.01Y-137.26
X119.85Y-137.26
X130.01Y-137.26
X136.01Y-114.85
X136.01Y-125.01
X141.84Y-137.25
X152.0Y-137.25
X153.01Y-114.85
X153.01Y-125.01
X173.01Y-114.85
X173.01Y-125.01
X177.0Y-57.84
X177.0Y-68.0
X177.0Y-71.84
X177.0Y-82.0
X177.0Y-85.84
X177.0Y-96.0
X177.01Y-43.85
X177.01Y-54.01
T0
M30
