%TF.GenerationSoftware,KiCad,Pcbnew,(6.0.7)*%
%TF.CreationDate,2022-11-23T14:53:15+01:00*%
%TF.ProjectId,Goobyl_da - Kretskort,476f6f62-796c-4e56-9461-202d204b7265,rev?*%
%TF.SameCoordinates,Original*%
%TF.FileFunction,Drillmap*%
%TF.FilePolarity,Positive*%
%FSLAX45Y45*%
G04 Gerber Fmt 4.5, Leading zero omitted, Abs format (unit mm)*
G04 Created by KiCad (PCBNEW (6.0.7)) date 2022-11-23 14:53:15*
%MOMM*%
%LPD*%
G01*
G04 APERTURE LIST*
%ADD10C,0.050000*%
%ADD11C,0.200000*%
%ADD12C,0.040000*%
%ADD13C,0.070000*%
%ADD14C,0.075000*%
%ADD15C,0.080000*%
%ADD16C,0.100000*%
%ADD17C,0.110000*%
%ADD18C,0.120000*%
G04 APERTURE END LIST*
D10*
X18901000Y-14101000D02*
X8901000Y-14101000D01*
X18901000Y-4101000D02*
X18901000Y-14101000D01*
X8901000Y-4101000D02*
X18901000Y-4101000D01*
X8901000Y-14101000D02*
X8901000Y-4101000D01*
D11*
D12*
X8980000Y-4230000D02*
X9020000Y-4270000D01*
X9020000Y-4230000D02*
X8980000Y-4270000D01*
X8980000Y-4480000D02*
X9020000Y-4520000D01*
X9020000Y-4480000D02*
X8980000Y-4520000D01*
X8980000Y-4730000D02*
X9020000Y-4770000D01*
X9020000Y-4730000D02*
X8980000Y-4770000D01*
X8980000Y-4980000D02*
X9020000Y-5020000D01*
X9020000Y-4980000D02*
X8980000Y-5020000D01*
X8980000Y-5230000D02*
X9020000Y-5270000D01*
X9020000Y-5230000D02*
X8980000Y-5270000D01*
X8980000Y-5480000D02*
X9020000Y-5520000D01*
X9020000Y-5480000D02*
X8980000Y-5520000D01*
X8980000Y-5730000D02*
X9020000Y-5770000D01*
X9020000Y-5730000D02*
X8980000Y-5770000D01*
X8980000Y-5980000D02*
X9020000Y-6020000D01*
X9020000Y-5980000D02*
X8980000Y-6020000D01*
X8980000Y-6230000D02*
X9020000Y-6270000D01*
X9020000Y-6230000D02*
X8980000Y-6270000D01*
X8980000Y-6480000D02*
X9020000Y-6520000D01*
X9020000Y-6480000D02*
X8980000Y-6520000D01*
X8980000Y-6730000D02*
X9020000Y-6770000D01*
X9020000Y-6730000D02*
X8980000Y-6770000D01*
X8980000Y-6980000D02*
X9020000Y-7020000D01*
X9020000Y-6980000D02*
X8980000Y-7020000D01*
X8980000Y-7230000D02*
X9020000Y-7270000D01*
X9020000Y-7230000D02*
X8980000Y-7270000D01*
X8980000Y-7480000D02*
X9020000Y-7520000D01*
X9020000Y-7480000D02*
X8980000Y-7520000D01*
X8980000Y-7730000D02*
X9020000Y-7770000D01*
X9020000Y-7730000D02*
X8980000Y-7770000D01*
X8980000Y-7980000D02*
X9020000Y-8020000D01*
X9020000Y-7980000D02*
X8980000Y-8020000D01*
X8980000Y-8230000D02*
X9020000Y-8270000D01*
X9020000Y-8230000D02*
X8980000Y-8270000D01*
X8980000Y-8480000D02*
X9020000Y-8520000D01*
X9020000Y-8480000D02*
X8980000Y-8520000D01*
X8980000Y-8730000D02*
X9020000Y-8770000D01*
X9020000Y-8730000D02*
X8980000Y-8770000D01*
X8980000Y-8980000D02*
X9020000Y-9020000D01*
X9020000Y-8980000D02*
X8980000Y-9020000D01*
X8980000Y-9230000D02*
X9020000Y-9270000D01*
X9020000Y-9230000D02*
X8980000Y-9270000D01*
X8980000Y-9480000D02*
X9020000Y-9520000D01*
X9020000Y-9480000D02*
X8980000Y-9520000D01*
X8980000Y-9730000D02*
X9020000Y-9770000D01*
X9020000Y-9730000D02*
X8980000Y-9770000D01*
X8980000Y-9980000D02*
X9020000Y-10020000D01*
X9020000Y-9980000D02*
X8980000Y-10020000D01*
X8980000Y-10230000D02*
X9020000Y-10270000D01*
X9020000Y-10230000D02*
X8980000Y-10270000D01*
X8980000Y-10480000D02*
X9020000Y-10520000D01*
X9020000Y-10480000D02*
X8980000Y-10520000D01*
X8980000Y-10730000D02*
X9020000Y-10770000D01*
X9020000Y-10730000D02*
X8980000Y-10770000D01*
X8980000Y-10980000D02*
X9020000Y-11020000D01*
X9020000Y-10980000D02*
X8980000Y-11020000D01*
X8980000Y-11230000D02*
X9020000Y-11270000D01*
X9020000Y-11230000D02*
X8980000Y-11270000D01*
X8980000Y-11480000D02*
X9020000Y-11520000D01*
X9020000Y-11480000D02*
X8980000Y-11520000D01*
X8980000Y-11730000D02*
X9020000Y-11770000D01*
X9020000Y-11730000D02*
X8980000Y-11770000D01*
X8980000Y-11980000D02*
X9020000Y-12020000D01*
X9020000Y-11980000D02*
X8980000Y-12020000D01*
X8980000Y-12230000D02*
X9020000Y-12270000D01*
X9020000Y-12230000D02*
X8980000Y-12270000D01*
X8980000Y-12480000D02*
X9020000Y-12520000D01*
X9020000Y-12480000D02*
X8980000Y-12520000D01*
X8980000Y-12730000D02*
X9020000Y-12770000D01*
X9020000Y-12730000D02*
X8980000Y-12770000D01*
X8980000Y-12980000D02*
X9020000Y-13020000D01*
X9020000Y-12980000D02*
X8980000Y-13020000D01*
X8980000Y-13230000D02*
X9020000Y-13270000D01*
X9020000Y-13230000D02*
X8980000Y-13270000D01*
X8980000Y-13480000D02*
X9020000Y-13520000D01*
X9020000Y-13480000D02*
X8980000Y-13520000D01*
X8980000Y-13730000D02*
X9020000Y-13770000D01*
X9020000Y-13730000D02*
X8980000Y-13770000D01*
X8980000Y-13980000D02*
X9020000Y-14020000D01*
X9020000Y-13980000D02*
X8980000Y-14020000D01*
X9230000Y-4230000D02*
X9270000Y-4270000D01*
X9270000Y-4230000D02*
X9230000Y-4270000D01*
X9230000Y-4480000D02*
X9270000Y-4520000D01*
X9270000Y-4480000D02*
X9230000Y-4520000D01*
X9230000Y-4730000D02*
X9270000Y-4770000D01*
X9270000Y-4730000D02*
X9230000Y-4770000D01*
X9230000Y-4980000D02*
X9270000Y-5020000D01*
X9270000Y-4980000D02*
X9230000Y-5020000D01*
X9230000Y-5230000D02*
X9270000Y-5270000D01*
X9270000Y-5230000D02*
X9230000Y-5270000D01*
X9230000Y-5480000D02*
X9270000Y-5520000D01*
X9270000Y-5480000D02*
X9230000Y-5520000D01*
X9230000Y-5730000D02*
X9270000Y-5770000D01*
X9270000Y-5730000D02*
X9230000Y-5770000D01*
X9230000Y-5980000D02*
X9270000Y-6020000D01*
X9270000Y-5980000D02*
X9230000Y-6020000D01*
X9230000Y-6230000D02*
X9270000Y-6270000D01*
X9270000Y-6230000D02*
X9230000Y-6270000D01*
X9230000Y-6480000D02*
X9270000Y-6520000D01*
X9270000Y-6480000D02*
X9230000Y-6520000D01*
X9230000Y-6730000D02*
X9270000Y-6770000D01*
X9270000Y-6730000D02*
X9230000Y-6770000D01*
X9230000Y-6980000D02*
X9270000Y-7020000D01*
X9270000Y-6980000D02*
X9230000Y-7020000D01*
X9230000Y-7230000D02*
X9270000Y-7270000D01*
X9270000Y-7230000D02*
X9230000Y-7270000D01*
X9230000Y-7480000D02*
X9270000Y-7520000D01*
X9270000Y-7480000D02*
X9230000Y-7520000D01*
X9230000Y-7730000D02*
X9270000Y-7770000D01*
X9270000Y-7730000D02*
X9230000Y-7770000D01*
X9230000Y-7980000D02*
X9270000Y-8020000D01*
X9270000Y-7980000D02*
X9230000Y-8020000D01*
X9230000Y-8230000D02*
X9270000Y-8270000D01*
X9270000Y-8230000D02*
X9230000Y-8270000D01*
X9230000Y-8480000D02*
X9270000Y-8520000D01*
X9270000Y-8480000D02*
X9230000Y-8520000D01*
X9230000Y-8730000D02*
X9270000Y-8770000D01*
X9270000Y-8730000D02*
X9230000Y-8770000D01*
X9230000Y-8980000D02*
X9270000Y-9020000D01*
X9270000Y-8980000D02*
X9230000Y-9020000D01*
X9230000Y-9230000D02*
X9270000Y-9270000D01*
X9270000Y-9230000D02*
X9230000Y-9270000D01*
X9230000Y-9480000D02*
X9270000Y-9520000D01*
X9270000Y-9480000D02*
X9230000Y-9520000D01*
X9230000Y-9730000D02*
X9270000Y-9770000D01*
X9270000Y-9730000D02*
X9230000Y-9770000D01*
X9230000Y-9980000D02*
X9270000Y-10020000D01*
X9270000Y-9980000D02*
X9230000Y-10020000D01*
X9230000Y-12730000D02*
X9270000Y-12770000D01*
X9270000Y-12730000D02*
X9230000Y-12770000D01*
X9230000Y-12980000D02*
X9270000Y-13020000D01*
X9270000Y-12980000D02*
X9230000Y-13020000D01*
X9230000Y-13230000D02*
X9270000Y-13270000D01*
X9270000Y-13230000D02*
X9230000Y-13270000D01*
X9230000Y-13480000D02*
X9270000Y-13520000D01*
X9270000Y-13480000D02*
X9230000Y-13520000D01*
X9230000Y-13730000D02*
X9270000Y-13770000D01*
X9270000Y-13730000D02*
X9230000Y-13770000D01*
X9230000Y-13980000D02*
X9270000Y-14020000D01*
X9270000Y-13980000D02*
X9230000Y-14020000D01*
X9480000Y-4230000D02*
X9520000Y-4270000D01*
X9520000Y-4230000D02*
X9480000Y-4270000D01*
X9480000Y-4480000D02*
X9520000Y-4520000D01*
X9520000Y-4480000D02*
X9480000Y-4520000D01*
X9480000Y-4730000D02*
X9520000Y-4770000D01*
X9520000Y-4730000D02*
X9480000Y-4770000D01*
X9480000Y-4980000D02*
X9520000Y-5020000D01*
X9520000Y-4980000D02*
X9480000Y-5020000D01*
X9480000Y-5230000D02*
X9520000Y-5270000D01*
X9520000Y-5230000D02*
X9480000Y-5270000D01*
X9480000Y-5480000D02*
X9520000Y-5520000D01*
X9520000Y-5480000D02*
X9480000Y-5520000D01*
X9480000Y-5730000D02*
X9520000Y-5770000D01*
X9520000Y-5730000D02*
X9480000Y-5770000D01*
X9480000Y-5980000D02*
X9520000Y-6020000D01*
X9520000Y-5980000D02*
X9480000Y-6020000D01*
X9480000Y-6230000D02*
X9520000Y-6270000D01*
X9520000Y-6230000D02*
X9480000Y-6270000D01*
X9480000Y-6480000D02*
X9520000Y-6520000D01*
X9520000Y-6480000D02*
X9480000Y-6520000D01*
X9480000Y-6730000D02*
X9520000Y-6770000D01*
X9520000Y-6730000D02*
X9480000Y-6770000D01*
X9480000Y-6980000D02*
X9520000Y-7020000D01*
X9520000Y-6980000D02*
X9480000Y-7020000D01*
X9480000Y-7230000D02*
X9520000Y-7270000D01*
X9520000Y-7230000D02*
X9480000Y-7270000D01*
X9480000Y-7480000D02*
X9520000Y-7520000D01*
X9520000Y-7480000D02*
X9480000Y-7520000D01*
X9480000Y-7730000D02*
X9520000Y-7770000D01*
X9520000Y-7730000D02*
X9480000Y-7770000D01*
X9480000Y-7980000D02*
X9520000Y-8020000D01*
X9520000Y-7980000D02*
X9480000Y-8020000D01*
X9480000Y-8230000D02*
X9520000Y-8270000D01*
X9520000Y-8230000D02*
X9480000Y-8270000D01*
X9480000Y-8480000D02*
X9520000Y-8520000D01*
X9520000Y-8480000D02*
X9480000Y-8520000D01*
X9480000Y-8730000D02*
X9520000Y-8770000D01*
X9520000Y-8730000D02*
X9480000Y-8770000D01*
X9480000Y-8980000D02*
X9520000Y-9020000D01*
X9520000Y-8980000D02*
X9480000Y-9020000D01*
X9480000Y-9230000D02*
X9520000Y-9270000D01*
X9520000Y-9230000D02*
X9480000Y-9270000D01*
X9480000Y-9480000D02*
X9520000Y-9520000D01*
X9520000Y-9480000D02*
X9480000Y-9520000D01*
X9480000Y-9730000D02*
X9520000Y-9770000D01*
X9520000Y-9730000D02*
X9480000Y-9770000D01*
X9480000Y-9980000D02*
X9520000Y-10020000D01*
X9520000Y-9980000D02*
X9480000Y-10020000D01*
X9480000Y-10230000D02*
X9520000Y-10270000D01*
X9520000Y-10230000D02*
X9480000Y-10270000D01*
X9480000Y-12980000D02*
X9520000Y-13020000D01*
X9520000Y-12980000D02*
X9480000Y-13020000D01*
X9480000Y-13230000D02*
X9520000Y-13270000D01*
X9520000Y-13230000D02*
X9480000Y-13270000D01*
X9480000Y-13980000D02*
X9520000Y-14020000D01*
X9520000Y-13980000D02*
X9480000Y-14020000D01*
X9730000Y-4230000D02*
X9770000Y-4270000D01*
X9770000Y-4230000D02*
X9730000Y-4270000D01*
X9730000Y-4480000D02*
X9770000Y-4520000D01*
X9770000Y-4480000D02*
X9730000Y-4520000D01*
X9730000Y-4730000D02*
X9770000Y-4770000D01*
X9770000Y-4730000D02*
X9730000Y-4770000D01*
X9730000Y-4980000D02*
X9770000Y-5020000D01*
X9770000Y-4980000D02*
X9730000Y-5020000D01*
X9730000Y-5230000D02*
X9770000Y-5270000D01*
X9770000Y-5230000D02*
X9730000Y-5270000D01*
X9730000Y-5480000D02*
X9770000Y-5520000D01*
X9770000Y-5480000D02*
X9730000Y-5520000D01*
X9730000Y-5730000D02*
X9770000Y-5770000D01*
X9770000Y-5730000D02*
X9730000Y-5770000D01*
X9730000Y-5980000D02*
X9770000Y-6020000D01*
X9770000Y-5980000D02*
X9730000Y-6020000D01*
X9730000Y-6230000D02*
X9770000Y-6270000D01*
X9770000Y-6230000D02*
X9730000Y-6270000D01*
X9730000Y-6480000D02*
X9770000Y-6520000D01*
X9770000Y-6480000D02*
X9730000Y-6520000D01*
X9730000Y-6730000D02*
X9770000Y-6770000D01*
X9770000Y-6730000D02*
X9730000Y-6770000D01*
X9730000Y-6980000D02*
X9770000Y-7020000D01*
X9770000Y-6980000D02*
X9730000Y-7020000D01*
X9730000Y-7230000D02*
X9770000Y-7270000D01*
X9770000Y-7230000D02*
X9730000Y-7270000D01*
X9730000Y-7480000D02*
X9770000Y-7520000D01*
X9770000Y-7480000D02*
X9730000Y-7520000D01*
X9730000Y-7730000D02*
X9770000Y-7770000D01*
X9770000Y-7730000D02*
X9730000Y-7770000D01*
X9730000Y-7980000D02*
X9770000Y-8020000D01*
X9770000Y-7980000D02*
X9730000Y-8020000D01*
X9730000Y-8230000D02*
X9770000Y-8270000D01*
X9770000Y-8230000D02*
X9730000Y-8270000D01*
X9730000Y-8480000D02*
X9770000Y-8520000D01*
X9770000Y-8480000D02*
X9730000Y-8520000D01*
X9730000Y-8730000D02*
X9770000Y-8770000D01*
X9770000Y-8730000D02*
X9730000Y-8770000D01*
X9730000Y-8980000D02*
X9770000Y-9020000D01*
X9770000Y-8980000D02*
X9730000Y-9020000D01*
X9730000Y-9230000D02*
X9770000Y-9270000D01*
X9770000Y-9230000D02*
X9730000Y-9270000D01*
X9730000Y-9480000D02*
X9770000Y-9520000D01*
X9770000Y-9480000D02*
X9730000Y-9520000D01*
X9730000Y-10230000D02*
X9770000Y-10270000D01*
X9770000Y-10230000D02*
X9730000Y-10270000D01*
X9730000Y-12980000D02*
X9770000Y-13020000D01*
X9770000Y-12980000D02*
X9730000Y-13020000D01*
X9730000Y-13230000D02*
X9770000Y-13270000D01*
X9770000Y-13230000D02*
X9730000Y-13270000D01*
X9730000Y-13980000D02*
X9770000Y-14020000D01*
X9770000Y-13980000D02*
X9730000Y-14020000D01*
X9980000Y-4230000D02*
X10020000Y-4270000D01*
X10020000Y-4230000D02*
X9980000Y-4270000D01*
X9980000Y-4480000D02*
X10020000Y-4520000D01*
X10020000Y-4480000D02*
X9980000Y-4520000D01*
X9980000Y-4730000D02*
X10020000Y-4770000D01*
X10020000Y-4730000D02*
X9980000Y-4770000D01*
X9980000Y-4980000D02*
X10020000Y-5020000D01*
X10020000Y-4980000D02*
X9980000Y-5020000D01*
X9980000Y-5230000D02*
X10020000Y-5270000D01*
X10020000Y-5230000D02*
X9980000Y-5270000D01*
X9980000Y-5480000D02*
X10020000Y-5520000D01*
X10020000Y-5480000D02*
X9980000Y-5520000D01*
X9980000Y-5730000D02*
X10020000Y-5770000D01*
X10020000Y-5730000D02*
X9980000Y-5770000D01*
X9980000Y-5980000D02*
X10020000Y-6020000D01*
X10020000Y-5980000D02*
X9980000Y-6020000D01*
X9980000Y-6230000D02*
X10020000Y-6270000D01*
X10020000Y-6230000D02*
X9980000Y-6270000D01*
X9980000Y-6480000D02*
X10020000Y-6520000D01*
X10020000Y-6480000D02*
X9980000Y-6520000D01*
X9980000Y-6730000D02*
X10020000Y-6770000D01*
X10020000Y-6730000D02*
X9980000Y-6770000D01*
X9980000Y-6980000D02*
X10020000Y-7020000D01*
X10020000Y-6980000D02*
X9980000Y-7020000D01*
X9980000Y-7230000D02*
X10020000Y-7270000D01*
X10020000Y-7230000D02*
X9980000Y-7270000D01*
X9980000Y-7480000D02*
X10020000Y-7520000D01*
X10020000Y-7480000D02*
X9980000Y-7520000D01*
X9980000Y-7730000D02*
X10020000Y-7770000D01*
X10020000Y-7730000D02*
X9980000Y-7770000D01*
X9980000Y-7980000D02*
X10020000Y-8020000D01*
X10020000Y-7980000D02*
X9980000Y-8020000D01*
X9980000Y-8230000D02*
X10020000Y-8270000D01*
X10020000Y-8230000D02*
X9980000Y-8270000D01*
X9980000Y-8480000D02*
X10020000Y-8520000D01*
X10020000Y-8480000D02*
X9980000Y-8520000D01*
X9980000Y-8730000D02*
X10020000Y-8770000D01*
X10020000Y-8730000D02*
X9980000Y-8770000D01*
X9980000Y-8980000D02*
X10020000Y-9020000D01*
X10020000Y-8980000D02*
X9980000Y-9020000D01*
X9980000Y-9230000D02*
X10020000Y-9270000D01*
X10020000Y-9230000D02*
X9980000Y-9270000D01*
X9980000Y-9480000D02*
X10020000Y-9520000D01*
X10020000Y-9480000D02*
X9980000Y-9520000D01*
X9980000Y-9730000D02*
X10020000Y-9770000D01*
X10020000Y-9730000D02*
X9980000Y-9770000D01*
X9980000Y-10230000D02*
X10020000Y-10270000D01*
X10020000Y-10230000D02*
X9980000Y-10270000D01*
X9980000Y-10730000D02*
X10020000Y-10770000D01*
X10020000Y-10730000D02*
X9980000Y-10770000D01*
X9980000Y-12980000D02*
X10020000Y-13020000D01*
X10020000Y-12980000D02*
X9980000Y-13020000D01*
X9980000Y-13980000D02*
X10020000Y-14020000D01*
X10020000Y-13980000D02*
X9980000Y-14020000D01*
X10230000Y-4230000D02*
X10270000Y-4270000D01*
X10270000Y-4230000D02*
X10230000Y-4270000D01*
X10230000Y-4480000D02*
X10270000Y-4520000D01*
X10270000Y-4480000D02*
X10230000Y-4520000D01*
X10230000Y-4730000D02*
X10270000Y-4770000D01*
X10270000Y-4730000D02*
X10230000Y-4770000D01*
X10230000Y-4980000D02*
X10270000Y-5020000D01*
X10270000Y-4980000D02*
X10230000Y-5020000D01*
X10230000Y-5230000D02*
X10270000Y-5270000D01*
X10270000Y-5230000D02*
X10230000Y-5270000D01*
X10230000Y-5480000D02*
X10270000Y-5520000D01*
X10270000Y-5480000D02*
X10230000Y-5520000D01*
X10230000Y-5730000D02*
X10270000Y-5770000D01*
X10270000Y-5730000D02*
X10230000Y-5770000D01*
X10230000Y-5980000D02*
X10270000Y-6020000D01*
X10270000Y-5980000D02*
X10230000Y-6020000D01*
X10230000Y-6230000D02*
X10270000Y-6270000D01*
X10270000Y-6230000D02*
X10230000Y-6270000D01*
X10230000Y-6480000D02*
X10270000Y-6520000D01*
X10270000Y-6480000D02*
X10230000Y-6520000D01*
X10230000Y-6730000D02*
X10270000Y-6770000D01*
X10270000Y-6730000D02*
X10230000Y-6770000D01*
X10230000Y-6980000D02*
X10270000Y-7020000D01*
X10270000Y-6980000D02*
X10230000Y-7020000D01*
X10230000Y-7230000D02*
X10270000Y-7270000D01*
X10270000Y-7230000D02*
X10230000Y-7270000D01*
X10230000Y-7480000D02*
X10270000Y-7520000D01*
X10270000Y-7480000D02*
X10230000Y-7520000D01*
X10230000Y-7730000D02*
X10270000Y-7770000D01*
X10270000Y-7730000D02*
X10230000Y-7770000D01*
X10230000Y-7980000D02*
X10270000Y-8020000D01*
X10270000Y-7980000D02*
X10230000Y-8020000D01*
X10230000Y-8230000D02*
X10270000Y-8270000D01*
X10270000Y-8230000D02*
X10230000Y-8270000D01*
X10230000Y-8480000D02*
X10270000Y-8520000D01*
X10270000Y-8480000D02*
X10230000Y-8520000D01*
X10230000Y-8730000D02*
X10270000Y-8770000D01*
X10270000Y-8730000D02*
X10230000Y-8770000D01*
X10230000Y-8980000D02*
X10270000Y-9020000D01*
X10270000Y-8980000D02*
X10230000Y-9020000D01*
X10230000Y-9230000D02*
X10270000Y-9270000D01*
X10270000Y-9230000D02*
X10230000Y-9270000D01*
X10230000Y-9480000D02*
X10270000Y-9520000D01*
X10270000Y-9480000D02*
X10230000Y-9520000D01*
X10230000Y-9730000D02*
X10270000Y-9770000D01*
X10270000Y-9730000D02*
X10230000Y-9770000D01*
X10230000Y-10730000D02*
X10270000Y-10770000D01*
X10270000Y-10730000D02*
X10230000Y-10770000D01*
X10230000Y-13980000D02*
X10270000Y-14020000D01*
X10270000Y-13980000D02*
X10230000Y-14020000D01*
X10480000Y-4230000D02*
X10520000Y-4270000D01*
X10520000Y-4230000D02*
X10480000Y-4270000D01*
X10480000Y-4480000D02*
X10520000Y-4520000D01*
X10520000Y-4480000D02*
X10480000Y-4520000D01*
X10480000Y-4730000D02*
X10520000Y-4770000D01*
X10520000Y-4730000D02*
X10480000Y-4770000D01*
X10480000Y-4980000D02*
X10520000Y-5020000D01*
X10520000Y-4980000D02*
X10480000Y-5020000D01*
X10480000Y-5230000D02*
X10520000Y-5270000D01*
X10520000Y-5230000D02*
X10480000Y-5270000D01*
X10480000Y-5480000D02*
X10520000Y-5520000D01*
X10520000Y-5480000D02*
X10480000Y-5520000D01*
X10480000Y-5730000D02*
X10520000Y-5770000D01*
X10520000Y-5730000D02*
X10480000Y-5770000D01*
X10480000Y-5980000D02*
X10520000Y-6020000D01*
X10520000Y-5980000D02*
X10480000Y-6020000D01*
X10480000Y-6230000D02*
X10520000Y-6270000D01*
X10520000Y-6230000D02*
X10480000Y-6270000D01*
X10480000Y-6480000D02*
X10520000Y-6520000D01*
X10520000Y-6480000D02*
X10480000Y-6520000D01*
X10480000Y-6730000D02*
X10520000Y-6770000D01*
X10520000Y-6730000D02*
X10480000Y-6770000D01*
X10480000Y-6980000D02*
X10520000Y-7020000D01*
X10520000Y-6980000D02*
X10480000Y-7020000D01*
X10480000Y-7230000D02*
X10520000Y-7270000D01*
X10520000Y-7230000D02*
X10480000Y-7270000D01*
X10480000Y-7480000D02*
X10520000Y-7520000D01*
X10520000Y-7480000D02*
X10480000Y-7520000D01*
X10480000Y-7730000D02*
X10520000Y-7770000D01*
X10520000Y-7730000D02*
X10480000Y-7770000D01*
X10480000Y-7980000D02*
X10520000Y-8020000D01*
X10520000Y-7980000D02*
X10480000Y-8020000D01*
X10480000Y-8230000D02*
X10520000Y-8270000D01*
X10520000Y-8230000D02*
X10480000Y-8270000D01*
X10480000Y-8480000D02*
X10520000Y-8520000D01*
X10520000Y-8480000D02*
X10480000Y-8520000D01*
X10480000Y-8730000D02*
X10520000Y-8770000D01*
X10520000Y-8730000D02*
X10480000Y-8770000D01*
X10480000Y-8980000D02*
X10520000Y-9020000D01*
X10520000Y-8980000D02*
X10480000Y-9020000D01*
X10480000Y-9230000D02*
X10520000Y-9270000D01*
X10520000Y-9230000D02*
X10480000Y-9270000D01*
X10480000Y-9480000D02*
X10520000Y-9520000D01*
X10520000Y-9480000D02*
X10480000Y-9520000D01*
X10480000Y-9730000D02*
X10520000Y-9770000D01*
X10520000Y-9730000D02*
X10480000Y-9770000D01*
X10480000Y-10230000D02*
X10520000Y-10270000D01*
X10520000Y-10230000D02*
X10480000Y-10270000D01*
X10480000Y-11230000D02*
X10520000Y-11270000D01*
X10520000Y-11230000D02*
X10480000Y-11270000D01*
X10480000Y-11480000D02*
X10520000Y-11520000D01*
X10520000Y-11480000D02*
X10480000Y-11520000D01*
X10480000Y-11730000D02*
X10520000Y-11770000D01*
X10520000Y-11730000D02*
X10480000Y-11770000D01*
X10480000Y-11980000D02*
X10520000Y-12020000D01*
X10520000Y-11980000D02*
X10480000Y-12020000D01*
X10480000Y-12230000D02*
X10520000Y-12270000D01*
X10520000Y-12230000D02*
X10480000Y-12270000D01*
X10480000Y-12480000D02*
X10520000Y-12520000D01*
X10520000Y-12480000D02*
X10480000Y-12520000D01*
X10480000Y-12730000D02*
X10520000Y-12770000D01*
X10520000Y-12730000D02*
X10480000Y-12770000D01*
X10480000Y-13230000D02*
X10520000Y-13270000D01*
X10520000Y-13230000D02*
X10480000Y-13270000D01*
X10480000Y-13480000D02*
X10520000Y-13520000D01*
X10520000Y-13480000D02*
X10480000Y-13520000D01*
X10480000Y-13980000D02*
X10520000Y-14020000D01*
X10520000Y-13980000D02*
X10480000Y-14020000D01*
X10730000Y-4230000D02*
X10770000Y-4270000D01*
X10770000Y-4230000D02*
X10730000Y-4270000D01*
X10730000Y-4480000D02*
X10770000Y-4520000D01*
X10770000Y-4480000D02*
X10730000Y-4520000D01*
X10730000Y-4730000D02*
X10770000Y-4770000D01*
X10770000Y-4730000D02*
X10730000Y-4770000D01*
X10730000Y-4980000D02*
X10770000Y-5020000D01*
X10770000Y-4980000D02*
X10730000Y-5020000D01*
X10730000Y-5230000D02*
X10770000Y-5270000D01*
X10770000Y-5230000D02*
X10730000Y-5270000D01*
X10730000Y-5480000D02*
X10770000Y-5520000D01*
X10770000Y-5480000D02*
X10730000Y-5520000D01*
X10730000Y-5730000D02*
X10770000Y-5770000D01*
X10770000Y-5730000D02*
X10730000Y-5770000D01*
X10730000Y-5980000D02*
X10770000Y-6020000D01*
X10770000Y-5980000D02*
X10730000Y-6020000D01*
X10730000Y-6230000D02*
X10770000Y-6270000D01*
X10770000Y-6230000D02*
X10730000Y-6270000D01*
X10730000Y-6480000D02*
X10770000Y-6520000D01*
X10770000Y-6480000D02*
X10730000Y-6520000D01*
X10730000Y-6730000D02*
X10770000Y-6770000D01*
X10770000Y-6730000D02*
X10730000Y-6770000D01*
X10730000Y-6980000D02*
X10770000Y-7020000D01*
X10770000Y-6980000D02*
X10730000Y-7020000D01*
X10730000Y-7230000D02*
X10770000Y-7270000D01*
X10770000Y-7230000D02*
X10730000Y-7270000D01*
X10730000Y-7480000D02*
X10770000Y-7520000D01*
X10770000Y-7480000D02*
X10730000Y-7520000D01*
X10730000Y-7730000D02*
X10770000Y-7770000D01*
X10770000Y-7730000D02*
X10730000Y-7770000D01*
X10730000Y-7980000D02*
X10770000Y-8020000D01*
X10770000Y-7980000D02*
X10730000Y-8020000D01*
X10730000Y-8230000D02*
X10770000Y-8270000D01*
X10770000Y-8230000D02*
X10730000Y-8270000D01*
X10730000Y-8480000D02*
X10770000Y-8520000D01*
X10770000Y-8480000D02*
X10730000Y-8520000D01*
X10730000Y-8730000D02*
X10770000Y-8770000D01*
X10770000Y-8730000D02*
X10730000Y-8770000D01*
X10730000Y-8980000D02*
X10770000Y-9020000D01*
X10770000Y-8980000D02*
X10730000Y-9020000D01*
X10730000Y-9230000D02*
X10770000Y-9270000D01*
X10770000Y-9230000D02*
X10730000Y-9270000D01*
X10730000Y-9480000D02*
X10770000Y-9520000D01*
X10770000Y-9480000D02*
X10730000Y-9520000D01*
X10730000Y-12730000D02*
X10770000Y-12770000D01*
X10770000Y-12730000D02*
X10730000Y-12770000D01*
X10730000Y-12980000D02*
X10770000Y-13020000D01*
X10770000Y-12980000D02*
X10730000Y-13020000D01*
X10730000Y-13230000D02*
X10770000Y-13270000D01*
X10770000Y-13230000D02*
X10730000Y-13270000D01*
X10730000Y-13980000D02*
X10770000Y-14020000D01*
X10770000Y-13980000D02*
X10730000Y-14020000D01*
X10980000Y-4230000D02*
X11020000Y-4270000D01*
X11020000Y-4230000D02*
X10980000Y-4270000D01*
X10980000Y-4480000D02*
X11020000Y-4520000D01*
X11020000Y-4480000D02*
X10980000Y-4520000D01*
X10980000Y-4730000D02*
X11020000Y-4770000D01*
X11020000Y-4730000D02*
X10980000Y-4770000D01*
X10980000Y-4980000D02*
X11020000Y-5020000D01*
X11020000Y-4980000D02*
X10980000Y-5020000D01*
X10980000Y-5230000D02*
X11020000Y-5270000D01*
X11020000Y-5230000D02*
X10980000Y-5270000D01*
X10980000Y-5480000D02*
X11020000Y-5520000D01*
X11020000Y-5480000D02*
X10980000Y-5520000D01*
X10980000Y-5730000D02*
X11020000Y-5770000D01*
X11020000Y-5730000D02*
X10980000Y-5770000D01*
X10980000Y-5980000D02*
X11020000Y-6020000D01*
X11020000Y-5980000D02*
X10980000Y-6020000D01*
X10980000Y-6230000D02*
X11020000Y-6270000D01*
X11020000Y-6230000D02*
X10980000Y-6270000D01*
X10980000Y-6480000D02*
X11020000Y-6520000D01*
X11020000Y-6480000D02*
X10980000Y-6520000D01*
X10980000Y-6730000D02*
X11020000Y-6770000D01*
X11020000Y-6730000D02*
X10980000Y-6770000D01*
X10980000Y-6980000D02*
X11020000Y-7020000D01*
X11020000Y-6980000D02*
X10980000Y-7020000D01*
X10980000Y-7230000D02*
X11020000Y-7270000D01*
X11020000Y-7230000D02*
X10980000Y-7270000D01*
X10980000Y-7480000D02*
X11020000Y-7520000D01*
X11020000Y-7480000D02*
X10980000Y-7520000D01*
X10980000Y-7730000D02*
X11020000Y-7770000D01*
X11020000Y-7730000D02*
X10980000Y-7770000D01*
X10980000Y-7980000D02*
X11020000Y-8020000D01*
X11020000Y-7980000D02*
X10980000Y-8020000D01*
X10980000Y-8230000D02*
X11020000Y-8270000D01*
X11020000Y-8230000D02*
X10980000Y-8270000D01*
X10980000Y-8480000D02*
X11020000Y-8520000D01*
X11020000Y-8480000D02*
X10980000Y-8520000D01*
X10980000Y-8730000D02*
X11020000Y-8770000D01*
X11020000Y-8730000D02*
X10980000Y-8770000D01*
X10980000Y-8980000D02*
X11020000Y-9020000D01*
X11020000Y-8980000D02*
X10980000Y-9020000D01*
X10980000Y-10730000D02*
X11020000Y-10770000D01*
X11020000Y-10730000D02*
X10980000Y-10770000D01*
X10980000Y-12980000D02*
X11020000Y-13020000D01*
X11020000Y-12980000D02*
X10980000Y-13020000D01*
X10980000Y-13230000D02*
X11020000Y-13270000D01*
X11020000Y-13230000D02*
X10980000Y-13270000D01*
X10980000Y-13980000D02*
X11020000Y-14020000D01*
X11020000Y-13980000D02*
X10980000Y-14020000D01*
X11230000Y-4230000D02*
X11270000Y-4270000D01*
X11270000Y-4230000D02*
X11230000Y-4270000D01*
X11230000Y-4480000D02*
X11270000Y-4520000D01*
X11270000Y-4480000D02*
X11230000Y-4520000D01*
X11230000Y-4730000D02*
X11270000Y-4770000D01*
X11270000Y-4730000D02*
X11230000Y-4770000D01*
X11230000Y-4980000D02*
X11270000Y-5020000D01*
X11270000Y-4980000D02*
X11230000Y-5020000D01*
X11230000Y-5230000D02*
X11270000Y-5270000D01*
X11270000Y-5230000D02*
X11230000Y-5270000D01*
X11230000Y-5480000D02*
X11270000Y-5520000D01*
X11270000Y-5480000D02*
X11230000Y-5520000D01*
X11230000Y-5730000D02*
X11270000Y-5770000D01*
X11270000Y-5730000D02*
X11230000Y-5770000D01*
X11230000Y-5980000D02*
X11270000Y-6020000D01*
X11270000Y-5980000D02*
X11230000Y-6020000D01*
X11230000Y-6230000D02*
X11270000Y-6270000D01*
X11270000Y-6230000D02*
X11230000Y-6270000D01*
X11230000Y-6480000D02*
X11270000Y-6520000D01*
X11270000Y-6480000D02*
X11230000Y-6520000D01*
X11230000Y-6730000D02*
X11270000Y-6770000D01*
X11270000Y-6730000D02*
X11230000Y-6770000D01*
X11230000Y-6980000D02*
X11270000Y-7020000D01*
X11270000Y-6980000D02*
X11230000Y-7020000D01*
X11230000Y-7230000D02*
X11270000Y-7270000D01*
X11270000Y-7230000D02*
X11230000Y-7270000D01*
X11230000Y-7480000D02*
X11270000Y-7520000D01*
X11270000Y-7480000D02*
X11230000Y-7520000D01*
X11230000Y-7730000D02*
X11270000Y-7770000D01*
X11270000Y-7730000D02*
X11230000Y-7770000D01*
X11230000Y-7980000D02*
X11270000Y-8020000D01*
X11270000Y-7980000D02*
X11230000Y-8020000D01*
X11230000Y-8230000D02*
X11270000Y-8270000D01*
X11270000Y-8230000D02*
X11230000Y-8270000D01*
X11230000Y-8480000D02*
X11270000Y-8520000D01*
X11270000Y-8480000D02*
X11230000Y-8520000D01*
X11230000Y-8730000D02*
X11270000Y-8770000D01*
X11270000Y-8730000D02*
X11230000Y-8770000D01*
X11230000Y-8980000D02*
X11270000Y-9020000D01*
X11270000Y-8980000D02*
X11230000Y-9020000D01*
X11230000Y-10730000D02*
X11270000Y-10770000D01*
X11270000Y-10730000D02*
X11230000Y-10770000D01*
X11230000Y-12980000D02*
X11270000Y-13020000D01*
X11270000Y-12980000D02*
X11230000Y-13020000D01*
X11230000Y-13230000D02*
X11270000Y-13270000D01*
X11270000Y-13230000D02*
X11230000Y-13270000D01*
X11230000Y-13980000D02*
X11270000Y-14020000D01*
X11270000Y-13980000D02*
X11230000Y-14020000D01*
X11480000Y-4230000D02*
X11520000Y-4270000D01*
X11520000Y-4230000D02*
X11480000Y-4270000D01*
X11480000Y-4480000D02*
X11520000Y-4520000D01*
X11520000Y-4480000D02*
X11480000Y-4520000D01*
X11480000Y-4730000D02*
X11520000Y-4770000D01*
X11520000Y-4730000D02*
X11480000Y-4770000D01*
X11480000Y-4980000D02*
X11520000Y-5020000D01*
X11520000Y-4980000D02*
X11480000Y-5020000D01*
X11480000Y-5230000D02*
X11520000Y-5270000D01*
X11520000Y-5230000D02*
X11480000Y-5270000D01*
X11480000Y-5480000D02*
X11520000Y-5520000D01*
X11520000Y-5480000D02*
X11480000Y-5520000D01*
X11480000Y-5730000D02*
X11520000Y-5770000D01*
X11520000Y-5730000D02*
X11480000Y-5770000D01*
X11480000Y-5980000D02*
X11520000Y-6020000D01*
X11520000Y-5980000D02*
X11480000Y-6020000D01*
X11480000Y-6230000D02*
X11520000Y-6270000D01*
X11520000Y-6230000D02*
X11480000Y-6270000D01*
X11480000Y-6480000D02*
X11520000Y-6520000D01*
X11520000Y-6480000D02*
X11480000Y-6520000D01*
X11480000Y-6730000D02*
X11520000Y-6770000D01*
X11520000Y-6730000D02*
X11480000Y-6770000D01*
X11480000Y-6980000D02*
X11520000Y-7020000D01*
X11520000Y-6980000D02*
X11480000Y-7020000D01*
X11480000Y-7230000D02*
X11520000Y-7270000D01*
X11520000Y-7230000D02*
X11480000Y-7270000D01*
X11480000Y-7480000D02*
X11520000Y-7520000D01*
X11520000Y-7480000D02*
X11480000Y-7520000D01*
X11480000Y-7730000D02*
X11520000Y-7770000D01*
X11520000Y-7730000D02*
X11480000Y-7770000D01*
X11480000Y-7980000D02*
X11520000Y-8020000D01*
X11520000Y-7980000D02*
X11480000Y-8020000D01*
X11480000Y-8230000D02*
X11520000Y-8270000D01*
X11520000Y-8230000D02*
X11480000Y-8270000D01*
X11480000Y-8480000D02*
X11520000Y-8520000D01*
X11520000Y-8480000D02*
X11480000Y-8520000D01*
X11480000Y-8730000D02*
X11520000Y-8770000D01*
X11520000Y-8730000D02*
X11480000Y-8770000D01*
X11480000Y-8980000D02*
X11520000Y-9020000D01*
X11520000Y-8980000D02*
X11480000Y-9020000D01*
X11480000Y-10730000D02*
X11520000Y-10770000D01*
X11520000Y-10730000D02*
X11480000Y-10770000D01*
X11480000Y-13755000D02*
X11520000Y-13795000D01*
X11520000Y-13755000D02*
X11480000Y-13795000D01*
X11480000Y-13980000D02*
X11520000Y-14020000D01*
X11520000Y-13980000D02*
X11480000Y-14020000D01*
X11730000Y-4230000D02*
X11770000Y-4270000D01*
X11770000Y-4230000D02*
X11730000Y-4270000D01*
X11730000Y-4730000D02*
X11770000Y-4770000D01*
X11770000Y-4730000D02*
X11730000Y-4770000D01*
X11730000Y-4980000D02*
X11770000Y-5020000D01*
X11770000Y-4980000D02*
X11730000Y-5020000D01*
X11730000Y-5230000D02*
X11770000Y-5270000D01*
X11770000Y-5230000D02*
X11730000Y-5270000D01*
X11730000Y-5480000D02*
X11770000Y-5520000D01*
X11770000Y-5480000D02*
X11730000Y-5520000D01*
X11730000Y-5730000D02*
X11770000Y-5770000D01*
X11770000Y-5730000D02*
X11730000Y-5770000D01*
X11730000Y-5980000D02*
X11770000Y-6020000D01*
X11770000Y-5980000D02*
X11730000Y-6020000D01*
X11730000Y-6230000D02*
X11770000Y-6270000D01*
X11770000Y-6230000D02*
X11730000Y-6270000D01*
X11730000Y-6480000D02*
X11770000Y-6520000D01*
X11770000Y-6480000D02*
X11730000Y-6520000D01*
X11730000Y-6730000D02*
X11770000Y-6770000D01*
X11770000Y-6730000D02*
X11730000Y-6770000D01*
X11730000Y-6980000D02*
X11770000Y-7020000D01*
X11770000Y-6980000D02*
X11730000Y-7020000D01*
X11730000Y-7230000D02*
X11770000Y-7270000D01*
X11770000Y-7230000D02*
X11730000Y-7270000D01*
X11730000Y-7480000D02*
X11770000Y-7520000D01*
X11770000Y-7480000D02*
X11730000Y-7520000D01*
X11730000Y-7730000D02*
X11770000Y-7770000D01*
X11770000Y-7730000D02*
X11730000Y-7770000D01*
X11730000Y-7980000D02*
X11770000Y-8020000D01*
X11770000Y-7980000D02*
X11730000Y-8020000D01*
X11730000Y-8230000D02*
X11770000Y-8270000D01*
X11770000Y-8230000D02*
X11730000Y-8270000D01*
X11730000Y-8480000D02*
X11770000Y-8520000D01*
X11770000Y-8480000D02*
X11730000Y-8520000D01*
X11730000Y-8730000D02*
X11770000Y-8770000D01*
X11770000Y-8730000D02*
X11730000Y-8770000D01*
X11730000Y-8980000D02*
X11770000Y-9020000D01*
X11770000Y-8980000D02*
X11730000Y-9020000D01*
X11730000Y-10230000D02*
X11770000Y-10270000D01*
X11770000Y-10230000D02*
X11730000Y-10270000D01*
X11730000Y-10980000D02*
X11770000Y-11020000D01*
X11770000Y-10980000D02*
X11730000Y-11020000D01*
X11730000Y-11230000D02*
X11770000Y-11270000D01*
X11770000Y-11230000D02*
X11730000Y-11270000D01*
X11730000Y-11480000D02*
X11770000Y-11520000D01*
X11770000Y-11480000D02*
X11730000Y-11520000D01*
X11730000Y-11730000D02*
X11770000Y-11770000D01*
X11770000Y-11730000D02*
X11730000Y-11770000D01*
X11730000Y-11980000D02*
X11770000Y-12020000D01*
X11770000Y-11980000D02*
X11730000Y-12020000D01*
X11730000Y-13755000D02*
X11770000Y-13795000D01*
X11770000Y-13755000D02*
X11730000Y-13795000D01*
X11730000Y-13980000D02*
X11770000Y-14020000D01*
X11770000Y-13980000D02*
X11730000Y-14020000D01*
X11980000Y-4230000D02*
X12020000Y-4270000D01*
X12020000Y-4230000D02*
X11980000Y-4270000D01*
X11980000Y-4730000D02*
X12020000Y-4770000D01*
X12020000Y-4730000D02*
X11980000Y-4770000D01*
X11980000Y-4980000D02*
X12020000Y-5020000D01*
X12020000Y-4980000D02*
X11980000Y-5020000D01*
X11980000Y-5230000D02*
X12020000Y-5270000D01*
X12020000Y-5230000D02*
X11980000Y-5270000D01*
X11980000Y-5480000D02*
X12020000Y-5520000D01*
X12020000Y-5480000D02*
X11980000Y-5520000D01*
X11980000Y-5730000D02*
X12020000Y-5770000D01*
X12020000Y-5730000D02*
X11980000Y-5770000D01*
X11980000Y-5980000D02*
X12020000Y-6020000D01*
X12020000Y-5980000D02*
X11980000Y-6020000D01*
X11980000Y-6230000D02*
X12020000Y-6270000D01*
X12020000Y-6230000D02*
X11980000Y-6270000D01*
X11980000Y-6480000D02*
X12020000Y-6520000D01*
X12020000Y-6480000D02*
X11980000Y-6520000D01*
X11980000Y-6730000D02*
X12020000Y-6770000D01*
X12020000Y-6730000D02*
X11980000Y-6770000D01*
X11980000Y-6980000D02*
X12020000Y-7020000D01*
X12020000Y-6980000D02*
X11980000Y-7020000D01*
X11980000Y-7230000D02*
X12020000Y-7270000D01*
X12020000Y-7230000D02*
X11980000Y-7270000D01*
X11980000Y-7480000D02*
X12020000Y-7520000D01*
X12020000Y-7480000D02*
X11980000Y-7520000D01*
X11980000Y-7730000D02*
X12020000Y-7770000D01*
X12020000Y-7730000D02*
X11980000Y-7770000D01*
X11980000Y-7980000D02*
X12020000Y-8020000D01*
X12020000Y-7980000D02*
X11980000Y-8020000D01*
X11980000Y-8230000D02*
X12020000Y-8270000D01*
X12020000Y-8230000D02*
X11980000Y-8270000D01*
X11980000Y-8480000D02*
X12020000Y-8520000D01*
X12020000Y-8480000D02*
X11980000Y-8520000D01*
X11980000Y-8730000D02*
X12020000Y-8770000D01*
X12020000Y-8730000D02*
X11980000Y-8770000D01*
X11980000Y-8980000D02*
X12020000Y-9020000D01*
X12020000Y-8980000D02*
X11980000Y-9020000D01*
X11980000Y-12730000D02*
X12020000Y-12770000D01*
X12020000Y-12730000D02*
X11980000Y-12770000D01*
X11980000Y-12980000D02*
X12020000Y-13020000D01*
X12020000Y-12980000D02*
X11980000Y-13020000D01*
X11980000Y-13230000D02*
X12020000Y-13270000D01*
X12020000Y-13230000D02*
X11980000Y-13270000D01*
X11980000Y-13980000D02*
X12020000Y-14020000D01*
X12020000Y-13980000D02*
X11980000Y-14020000D01*
X12230000Y-4230000D02*
X12270000Y-4270000D01*
X12270000Y-4230000D02*
X12230000Y-4270000D01*
X12230000Y-4730000D02*
X12270000Y-4770000D01*
X12270000Y-4730000D02*
X12230000Y-4770000D01*
X12230000Y-4980000D02*
X12270000Y-5020000D01*
X12270000Y-4980000D02*
X12230000Y-5020000D01*
X12230000Y-5230000D02*
X12270000Y-5270000D01*
X12270000Y-5230000D02*
X12230000Y-5270000D01*
X12230000Y-5480000D02*
X12270000Y-5520000D01*
X12270000Y-5480000D02*
X12230000Y-5520000D01*
X12230000Y-5730000D02*
X12270000Y-5770000D01*
X12270000Y-5730000D02*
X12230000Y-5770000D01*
X12230000Y-5980000D02*
X12270000Y-6020000D01*
X12270000Y-5980000D02*
X12230000Y-6020000D01*
X12230000Y-6230000D02*
X12270000Y-6270000D01*
X12270000Y-6230000D02*
X12230000Y-6270000D01*
X12230000Y-6480000D02*
X12270000Y-6520000D01*
X12270000Y-6480000D02*
X12230000Y-6520000D01*
X12230000Y-6730000D02*
X12270000Y-6770000D01*
X12270000Y-6730000D02*
X12230000Y-6770000D01*
X12230000Y-6980000D02*
X12270000Y-7020000D01*
X12270000Y-6980000D02*
X12230000Y-7020000D01*
X12230000Y-7230000D02*
X12270000Y-7270000D01*
X12270000Y-7230000D02*
X12230000Y-7270000D01*
X12230000Y-7480000D02*
X12270000Y-7520000D01*
X12270000Y-7480000D02*
X12230000Y-7520000D01*
X12230000Y-7730000D02*
X12270000Y-7770000D01*
X12270000Y-7730000D02*
X12230000Y-7770000D01*
X12230000Y-7980000D02*
X12270000Y-8020000D01*
X12270000Y-7980000D02*
X12230000Y-8020000D01*
X12230000Y-8230000D02*
X12270000Y-8270000D01*
X12270000Y-8230000D02*
X12230000Y-8270000D01*
X12230000Y-8480000D02*
X12270000Y-8520000D01*
X12270000Y-8480000D02*
X12230000Y-8520000D01*
X12230000Y-8730000D02*
X12270000Y-8770000D01*
X12270000Y-8730000D02*
X12230000Y-8770000D01*
X12230000Y-8980000D02*
X12270000Y-9020000D01*
X12270000Y-8980000D02*
X12230000Y-9020000D01*
X12230000Y-10730000D02*
X12270000Y-10770000D01*
X12270000Y-10730000D02*
X12230000Y-10770000D01*
X12230000Y-12980000D02*
X12270000Y-13020000D01*
X12270000Y-12980000D02*
X12230000Y-13020000D01*
X12230000Y-13230000D02*
X12270000Y-13270000D01*
X12270000Y-13230000D02*
X12230000Y-13270000D01*
X12230000Y-13480000D02*
X12270000Y-13520000D01*
X12270000Y-13480000D02*
X12230000Y-13520000D01*
X12230000Y-13755000D02*
X12270000Y-13795000D01*
X12270000Y-13755000D02*
X12230000Y-13795000D01*
X12230000Y-13980000D02*
X12270000Y-14020000D01*
X12270000Y-13980000D02*
X12230000Y-14020000D01*
X12480000Y-4230000D02*
X12520000Y-4270000D01*
X12520000Y-4230000D02*
X12480000Y-4270000D01*
X12480000Y-4730000D02*
X12520000Y-4770000D01*
X12520000Y-4730000D02*
X12480000Y-4770000D01*
X12480000Y-4980000D02*
X12520000Y-5020000D01*
X12520000Y-4980000D02*
X12480000Y-5020000D01*
X12480000Y-5230000D02*
X12520000Y-5270000D01*
X12520000Y-5230000D02*
X12480000Y-5270000D01*
X12480000Y-5480000D02*
X12520000Y-5520000D01*
X12520000Y-5480000D02*
X12480000Y-5520000D01*
X12480000Y-5980000D02*
X12520000Y-6020000D01*
X12520000Y-5980000D02*
X12480000Y-6020000D01*
X12480000Y-6230000D02*
X12520000Y-6270000D01*
X12520000Y-6230000D02*
X12480000Y-6270000D01*
X12480000Y-6480000D02*
X12520000Y-6520000D01*
X12520000Y-6480000D02*
X12480000Y-6520000D01*
X12480000Y-6730000D02*
X12520000Y-6770000D01*
X12520000Y-6730000D02*
X12480000Y-6770000D01*
X12480000Y-6980000D02*
X12520000Y-7020000D01*
X12520000Y-6980000D02*
X12480000Y-7020000D01*
X12480000Y-7230000D02*
X12520000Y-7270000D01*
X12520000Y-7230000D02*
X12480000Y-7270000D01*
X12480000Y-7480000D02*
X12520000Y-7520000D01*
X12520000Y-7480000D02*
X12480000Y-7520000D01*
X12480000Y-7730000D02*
X12520000Y-7770000D01*
X12520000Y-7730000D02*
X12480000Y-7770000D01*
X12480000Y-7980000D02*
X12520000Y-8020000D01*
X12520000Y-7980000D02*
X12480000Y-8020000D01*
X12480000Y-8230000D02*
X12520000Y-8270000D01*
X12520000Y-8230000D02*
X12480000Y-8270000D01*
X12480000Y-8480000D02*
X12520000Y-8520000D01*
X12520000Y-8480000D02*
X12480000Y-8520000D01*
X12480000Y-8730000D02*
X12520000Y-8770000D01*
X12520000Y-8730000D02*
X12480000Y-8770000D01*
X12480000Y-8980000D02*
X12520000Y-9020000D01*
X12520000Y-8980000D02*
X12480000Y-9020000D01*
X12480000Y-9980000D02*
X12520000Y-10020000D01*
X12520000Y-9980000D02*
X12480000Y-10020000D01*
X12480000Y-10230000D02*
X12520000Y-10270000D01*
X12520000Y-10230000D02*
X12480000Y-10270000D01*
X12480000Y-10980000D02*
X12520000Y-11020000D01*
X12520000Y-10980000D02*
X12480000Y-11020000D01*
X12480000Y-12980000D02*
X12520000Y-13020000D01*
X12520000Y-12980000D02*
X12480000Y-13020000D01*
X12480000Y-13230000D02*
X12520000Y-13270000D01*
X12520000Y-13230000D02*
X12480000Y-13270000D01*
X12480000Y-13480000D02*
X12520000Y-13520000D01*
X12520000Y-13480000D02*
X12480000Y-13520000D01*
X12480000Y-13755000D02*
X12520000Y-13795000D01*
X12520000Y-13755000D02*
X12480000Y-13795000D01*
X12480000Y-13980000D02*
X12520000Y-14020000D01*
X12520000Y-13980000D02*
X12480000Y-14020000D01*
X12618000Y-9617000D02*
X12658000Y-9657000D01*
X12658000Y-9617000D02*
X12618000Y-9657000D01*
X12730000Y-4230000D02*
X12770000Y-4270000D01*
X12770000Y-4230000D02*
X12730000Y-4270000D01*
X12730000Y-4730000D02*
X12770000Y-4770000D01*
X12770000Y-4730000D02*
X12730000Y-4770000D01*
X12730000Y-4980000D02*
X12770000Y-5020000D01*
X12770000Y-4980000D02*
X12730000Y-5020000D01*
X12730000Y-5230000D02*
X12770000Y-5270000D01*
X12770000Y-5230000D02*
X12730000Y-5270000D01*
X12730000Y-5730000D02*
X12770000Y-5770000D01*
X12770000Y-5730000D02*
X12730000Y-5770000D01*
X12730000Y-5980000D02*
X12770000Y-6020000D01*
X12770000Y-5980000D02*
X12730000Y-6020000D01*
X12730000Y-6230000D02*
X12770000Y-6270000D01*
X12770000Y-6230000D02*
X12730000Y-6270000D01*
X12730000Y-6480000D02*
X12770000Y-6520000D01*
X12770000Y-6480000D02*
X12730000Y-6520000D01*
X12730000Y-6730000D02*
X12770000Y-6770000D01*
X12770000Y-6730000D02*
X12730000Y-6770000D01*
X12730000Y-6980000D02*
X12770000Y-7020000D01*
X12770000Y-6980000D02*
X12730000Y-7020000D01*
X12730000Y-7230000D02*
X12770000Y-7270000D01*
X12770000Y-7230000D02*
X12730000Y-7270000D01*
X12730000Y-7480000D02*
X12770000Y-7520000D01*
X12770000Y-7480000D02*
X12730000Y-7520000D01*
X12730000Y-7730000D02*
X12770000Y-7770000D01*
X12770000Y-7730000D02*
X12730000Y-7770000D01*
X12730000Y-7980000D02*
X12770000Y-8020000D01*
X12770000Y-7980000D02*
X12730000Y-8020000D01*
X12730000Y-8230000D02*
X12770000Y-8270000D01*
X12770000Y-8230000D02*
X12730000Y-8270000D01*
X12730000Y-8480000D02*
X12770000Y-8520000D01*
X12770000Y-8480000D02*
X12730000Y-8520000D01*
X12730000Y-8730000D02*
X12770000Y-8770000D01*
X12770000Y-8730000D02*
X12730000Y-8770000D01*
X12730000Y-8980000D02*
X12770000Y-9020000D01*
X12770000Y-8980000D02*
X12730000Y-9020000D01*
X12730000Y-10730000D02*
X12770000Y-10770000D01*
X12770000Y-10730000D02*
X12730000Y-10770000D01*
X12730000Y-10980000D02*
X12770000Y-11020000D01*
X12770000Y-10980000D02*
X12730000Y-11020000D01*
X12730000Y-13230000D02*
X12770000Y-13270000D01*
X12770000Y-13230000D02*
X12730000Y-13270000D01*
X12730000Y-13480000D02*
X12770000Y-13520000D01*
X12770000Y-13480000D02*
X12730000Y-13520000D01*
X12730000Y-13755000D02*
X12770000Y-13795000D01*
X12770000Y-13755000D02*
X12730000Y-13795000D01*
X12730000Y-13980000D02*
X12770000Y-14020000D01*
X12770000Y-13980000D02*
X12730000Y-14020000D01*
X12980000Y-4230000D02*
X13020000Y-4270000D01*
X13020000Y-4230000D02*
X12980000Y-4270000D01*
X12980000Y-4980000D02*
X13020000Y-5020000D01*
X13020000Y-4980000D02*
X12980000Y-5020000D01*
X12980000Y-5480000D02*
X13020000Y-5520000D01*
X13020000Y-5480000D02*
X12980000Y-5520000D01*
X12980000Y-5730000D02*
X13020000Y-5770000D01*
X13020000Y-5730000D02*
X12980000Y-5770000D01*
X12980000Y-5980000D02*
X13020000Y-6020000D01*
X13020000Y-5980000D02*
X12980000Y-6020000D01*
X12980000Y-6230000D02*
X13020000Y-6270000D01*
X13020000Y-6230000D02*
X12980000Y-6270000D01*
X12980000Y-6480000D02*
X13020000Y-6520000D01*
X13020000Y-6480000D02*
X12980000Y-6520000D01*
X12980000Y-6730000D02*
X13020000Y-6770000D01*
X13020000Y-6730000D02*
X12980000Y-6770000D01*
X12980000Y-6980000D02*
X13020000Y-7020000D01*
X13020000Y-6980000D02*
X12980000Y-7020000D01*
X12980000Y-7230000D02*
X13020000Y-7270000D01*
X13020000Y-7230000D02*
X12980000Y-7270000D01*
X12980000Y-7480000D02*
X13020000Y-7520000D01*
X13020000Y-7480000D02*
X12980000Y-7520000D01*
X12980000Y-7730000D02*
X13020000Y-7770000D01*
X13020000Y-7730000D02*
X12980000Y-7770000D01*
X12980000Y-7980000D02*
X13020000Y-8020000D01*
X13020000Y-7980000D02*
X12980000Y-8020000D01*
X12980000Y-8230000D02*
X13020000Y-8270000D01*
X13020000Y-8230000D02*
X12980000Y-8270000D01*
X12980000Y-8480000D02*
X13020000Y-8520000D01*
X13020000Y-8480000D02*
X12980000Y-8520000D01*
X12980000Y-8730000D02*
X13020000Y-8770000D01*
X13020000Y-8730000D02*
X12980000Y-8770000D01*
X12980000Y-8980000D02*
X13020000Y-9020000D01*
X13020000Y-8980000D02*
X12980000Y-9020000D01*
X12980000Y-10980000D02*
X13020000Y-11020000D01*
X13020000Y-10980000D02*
X12980000Y-11020000D01*
X12980000Y-11230000D02*
X13020000Y-11270000D01*
X13020000Y-11230000D02*
X12980000Y-11270000D01*
X12980000Y-11480000D02*
X13020000Y-11520000D01*
X13020000Y-11480000D02*
X12980000Y-11520000D01*
X12980000Y-13980000D02*
X13020000Y-14020000D01*
X13020000Y-13980000D02*
X12980000Y-14020000D01*
X13230000Y-4230000D02*
X13270000Y-4270000D01*
X13270000Y-4230000D02*
X13230000Y-4270000D01*
X13230000Y-4730000D02*
X13270000Y-4770000D01*
X13270000Y-4730000D02*
X13230000Y-4770000D01*
X13230000Y-5230000D02*
X13270000Y-5270000D01*
X13270000Y-5230000D02*
X13230000Y-5270000D01*
X13230000Y-5480000D02*
X13270000Y-5520000D01*
X13270000Y-5480000D02*
X13230000Y-5520000D01*
X13230000Y-5730000D02*
X13270000Y-5770000D01*
X13270000Y-5730000D02*
X13230000Y-5770000D01*
X13230000Y-5980000D02*
X13270000Y-6020000D01*
X13270000Y-5980000D02*
X13230000Y-6020000D01*
X13230000Y-6230000D02*
X13270000Y-6270000D01*
X13270000Y-6230000D02*
X13230000Y-6270000D01*
X13230000Y-6480000D02*
X13270000Y-6520000D01*
X13270000Y-6480000D02*
X13230000Y-6520000D01*
X13230000Y-6730000D02*
X13270000Y-6770000D01*
X13270000Y-6730000D02*
X13230000Y-6770000D01*
X13230000Y-6980000D02*
X13270000Y-7020000D01*
X13270000Y-6980000D02*
X13230000Y-7020000D01*
X13230000Y-7230000D02*
X13270000Y-7270000D01*
X13270000Y-7230000D02*
X13230000Y-7270000D01*
X13230000Y-7480000D02*
X13270000Y-7520000D01*
X13270000Y-7480000D02*
X13230000Y-7520000D01*
X13230000Y-7730000D02*
X13270000Y-7770000D01*
X13270000Y-7730000D02*
X13230000Y-7770000D01*
X13230000Y-7980000D02*
X13270000Y-8020000D01*
X13270000Y-7980000D02*
X13230000Y-8020000D01*
X13230000Y-8230000D02*
X13270000Y-8270000D01*
X13270000Y-8230000D02*
X13230000Y-8270000D01*
X13230000Y-8480000D02*
X13270000Y-8520000D01*
X13270000Y-8480000D02*
X13230000Y-8520000D01*
X13230000Y-10230000D02*
X13270000Y-10270000D01*
X13270000Y-10230000D02*
X13230000Y-10270000D01*
X13230000Y-10980000D02*
X13270000Y-11020000D01*
X13270000Y-10980000D02*
X13230000Y-11020000D01*
X13230000Y-11230000D02*
X13270000Y-11270000D01*
X13270000Y-11230000D02*
X13230000Y-11270000D01*
X13230000Y-11480000D02*
X13270000Y-11520000D01*
X13270000Y-11480000D02*
X13230000Y-11520000D01*
X13230000Y-11730000D02*
X13270000Y-11770000D01*
X13270000Y-11730000D02*
X13230000Y-11770000D01*
X13230000Y-11980000D02*
X13270000Y-12020000D01*
X13270000Y-11980000D02*
X13230000Y-12020000D01*
X13230000Y-12230000D02*
X13270000Y-12270000D01*
X13270000Y-12230000D02*
X13230000Y-12270000D01*
X13230000Y-12480000D02*
X13270000Y-12520000D01*
X13270000Y-12480000D02*
X13230000Y-12520000D01*
X13230000Y-12730000D02*
X13270000Y-12770000D01*
X13270000Y-12730000D02*
X13230000Y-12770000D01*
X13230000Y-12980000D02*
X13270000Y-13020000D01*
X13270000Y-12980000D02*
X13230000Y-13020000D01*
X13230000Y-13980000D02*
X13270000Y-14020000D01*
X13270000Y-13980000D02*
X13230000Y-14020000D01*
X13260000Y-8740000D02*
X13300000Y-8780000D01*
X13300000Y-8740000D02*
X13260000Y-8780000D01*
X13480000Y-4230000D02*
X13520000Y-4270000D01*
X13520000Y-4230000D02*
X13480000Y-4270000D01*
X13480000Y-4980000D02*
X13520000Y-5020000D01*
X13520000Y-4980000D02*
X13480000Y-5020000D01*
X13480000Y-5230000D02*
X13520000Y-5270000D01*
X13520000Y-5230000D02*
X13480000Y-5270000D01*
X13480000Y-5480000D02*
X13520000Y-5520000D01*
X13520000Y-5480000D02*
X13480000Y-5520000D01*
X13480000Y-5730000D02*
X13520000Y-5770000D01*
X13520000Y-5730000D02*
X13480000Y-5770000D01*
X13480000Y-5980000D02*
X13520000Y-6020000D01*
X13520000Y-5980000D02*
X13480000Y-6020000D01*
X13480000Y-10230000D02*
X13520000Y-10270000D01*
X13520000Y-10230000D02*
X13480000Y-10270000D01*
X13480000Y-13980000D02*
X13520000Y-14020000D01*
X13520000Y-13980000D02*
X13480000Y-14020000D01*
X13555000Y-9680000D02*
X13595000Y-9720000D01*
X13595000Y-9680000D02*
X13555000Y-9720000D01*
X13640000Y-8740000D02*
X13680000Y-8780000D01*
X13680000Y-8740000D02*
X13640000Y-8780000D01*
X13730000Y-4230000D02*
X13770000Y-4270000D01*
X13770000Y-4230000D02*
X13730000Y-4270000D01*
X13730000Y-4730000D02*
X13770000Y-4770000D01*
X13770000Y-4730000D02*
X13730000Y-4770000D01*
X13730000Y-4980000D02*
X13770000Y-5020000D01*
X13770000Y-4980000D02*
X13730000Y-5020000D01*
X13730000Y-5230000D02*
X13770000Y-5270000D01*
X13770000Y-5230000D02*
X13730000Y-5270000D01*
X13730000Y-5480000D02*
X13770000Y-5520000D01*
X13770000Y-5480000D02*
X13730000Y-5520000D01*
X13730000Y-5730000D02*
X13770000Y-5770000D01*
X13770000Y-5730000D02*
X13730000Y-5770000D01*
X13730000Y-8980000D02*
X13770000Y-9020000D01*
X13770000Y-8980000D02*
X13730000Y-9020000D01*
X13730000Y-10230000D02*
X13770000Y-10270000D01*
X13770000Y-10230000D02*
X13730000Y-10270000D01*
X13730000Y-10730000D02*
X13770000Y-10770000D01*
X13770000Y-10730000D02*
X13730000Y-10770000D01*
X13730000Y-13980000D02*
X13770000Y-14020000D01*
X13770000Y-13980000D02*
X13730000Y-14020000D01*
X13980000Y-4230000D02*
X14020000Y-4270000D01*
X14020000Y-4230000D02*
X13980000Y-4270000D01*
X13980000Y-4480000D02*
X14020000Y-4520000D01*
X14020000Y-4480000D02*
X13980000Y-4520000D01*
X13980000Y-4730000D02*
X14020000Y-4770000D01*
X14020000Y-4730000D02*
X13980000Y-4770000D01*
X13980000Y-4980000D02*
X14020000Y-5020000D01*
X14020000Y-4980000D02*
X13980000Y-5020000D01*
X13980000Y-5230000D02*
X14020000Y-5270000D01*
X14020000Y-5230000D02*
X13980000Y-5270000D01*
X13980000Y-5480000D02*
X14020000Y-5520000D01*
X14020000Y-5480000D02*
X13980000Y-5520000D01*
X13980000Y-6230000D02*
X14020000Y-6270000D01*
X14020000Y-6230000D02*
X13980000Y-6270000D01*
X13980000Y-6480000D02*
X14020000Y-6520000D01*
X14020000Y-6480000D02*
X13980000Y-6520000D01*
X13980000Y-6730000D02*
X14020000Y-6770000D01*
X14020000Y-6730000D02*
X13980000Y-6770000D01*
X13980000Y-6980000D02*
X14020000Y-7020000D01*
X14020000Y-6980000D02*
X13980000Y-7020000D01*
X13980000Y-7230000D02*
X14020000Y-7270000D01*
X14020000Y-7230000D02*
X13980000Y-7270000D01*
X13980000Y-7480000D02*
X14020000Y-7520000D01*
X14020000Y-7480000D02*
X13980000Y-7520000D01*
X13980000Y-7730000D02*
X14020000Y-7770000D01*
X14020000Y-7730000D02*
X13980000Y-7770000D01*
X13980000Y-7980000D02*
X14020000Y-8020000D01*
X14020000Y-7980000D02*
X13980000Y-8020000D01*
X13980000Y-8230000D02*
X14020000Y-8270000D01*
X14020000Y-8230000D02*
X13980000Y-8270000D01*
X13980000Y-8480000D02*
X14020000Y-8520000D01*
X14020000Y-8480000D02*
X13980000Y-8520000D01*
X13980000Y-8730000D02*
X14020000Y-8770000D01*
X14020000Y-8730000D02*
X13980000Y-8770000D01*
X13980000Y-8980000D02*
X14020000Y-9020000D01*
X14020000Y-8980000D02*
X13980000Y-9020000D01*
X13980000Y-10230000D02*
X14020000Y-10270000D01*
X14020000Y-10230000D02*
X13980000Y-10270000D01*
X13980000Y-10730000D02*
X14020000Y-10770000D01*
X14020000Y-10730000D02*
X13980000Y-10770000D01*
X13980000Y-13980000D02*
X14020000Y-14020000D01*
X14020000Y-13980000D02*
X13980000Y-14020000D01*
X14230000Y-4230000D02*
X14270000Y-4270000D01*
X14270000Y-4230000D02*
X14230000Y-4270000D01*
X14230000Y-5980000D02*
X14270000Y-6020000D01*
X14270000Y-5980000D02*
X14230000Y-6020000D01*
X14230000Y-6230000D02*
X14270000Y-6270000D01*
X14270000Y-6230000D02*
X14230000Y-6270000D01*
X14230000Y-6480000D02*
X14270000Y-6520000D01*
X14270000Y-6480000D02*
X14230000Y-6520000D01*
X14230000Y-6730000D02*
X14270000Y-6770000D01*
X14270000Y-6730000D02*
X14230000Y-6770000D01*
X14230000Y-6980000D02*
X14270000Y-7020000D01*
X14270000Y-6980000D02*
X14230000Y-7020000D01*
X14230000Y-7230000D02*
X14270000Y-7270000D01*
X14270000Y-7230000D02*
X14230000Y-7270000D01*
X14230000Y-7480000D02*
X14270000Y-7520000D01*
X14270000Y-7480000D02*
X14230000Y-7520000D01*
X14230000Y-7730000D02*
X14270000Y-7770000D01*
X14270000Y-7730000D02*
X14230000Y-7770000D01*
X14230000Y-7980000D02*
X14270000Y-8020000D01*
X14270000Y-7980000D02*
X14230000Y-8020000D01*
X14230000Y-8230000D02*
X14270000Y-8270000D01*
X14270000Y-8230000D02*
X14230000Y-8270000D01*
X14230000Y-8480000D02*
X14270000Y-8520000D01*
X14270000Y-8480000D02*
X14230000Y-8520000D01*
X14230000Y-8730000D02*
X14270000Y-8770000D01*
X14270000Y-8730000D02*
X14230000Y-8770000D01*
X14230000Y-8980000D02*
X14270000Y-9020000D01*
X14270000Y-8980000D02*
X14230000Y-9020000D01*
X14230000Y-9980000D02*
X14270000Y-10020000D01*
X14270000Y-9980000D02*
X14230000Y-10020000D01*
X14230000Y-10230000D02*
X14270000Y-10270000D01*
X14270000Y-10230000D02*
X14230000Y-10270000D01*
X14230000Y-12980000D02*
X14270000Y-13020000D01*
X14270000Y-12980000D02*
X14230000Y-13020000D01*
X14230000Y-13980000D02*
X14270000Y-14020000D01*
X14270000Y-13980000D02*
X14230000Y-14020000D01*
X14442500Y-8542500D02*
X14482500Y-8582500D01*
X14482500Y-8542500D02*
X14442500Y-8582500D01*
X14480000Y-4230000D02*
X14520000Y-4270000D01*
X14520000Y-4230000D02*
X14480000Y-4270000D01*
X14480000Y-4730000D02*
X14520000Y-4770000D01*
X14520000Y-4730000D02*
X14480000Y-4770000D01*
X14480000Y-4980000D02*
X14520000Y-5020000D01*
X14520000Y-4980000D02*
X14480000Y-5020000D01*
X14480000Y-5730000D02*
X14520000Y-5770000D01*
X14520000Y-5730000D02*
X14480000Y-5770000D01*
X14480000Y-5980000D02*
X14520000Y-6020000D01*
X14520000Y-5980000D02*
X14480000Y-6020000D01*
X14480000Y-6230000D02*
X14520000Y-6270000D01*
X14520000Y-6230000D02*
X14480000Y-6270000D01*
X14480000Y-6480000D02*
X14520000Y-6520000D01*
X14520000Y-6480000D02*
X14480000Y-6520000D01*
X14480000Y-6730000D02*
X14520000Y-6770000D01*
X14520000Y-6730000D02*
X14480000Y-6770000D01*
X14480000Y-6980000D02*
X14520000Y-7020000D01*
X14520000Y-6980000D02*
X14480000Y-7020000D01*
X14480000Y-7230000D02*
X14520000Y-7270000D01*
X14520000Y-7230000D02*
X14480000Y-7270000D01*
X14480000Y-7480000D02*
X14520000Y-7520000D01*
X14520000Y-7480000D02*
X14480000Y-7520000D01*
X14480000Y-7730000D02*
X14520000Y-7770000D01*
X14520000Y-7730000D02*
X14480000Y-7770000D01*
X14480000Y-7980000D02*
X14520000Y-8020000D01*
X14520000Y-7980000D02*
X14480000Y-8020000D01*
X14480000Y-8230000D02*
X14520000Y-8270000D01*
X14520000Y-8230000D02*
X14480000Y-8270000D01*
X14480000Y-9980000D02*
X14520000Y-10020000D01*
X14520000Y-9980000D02*
X14480000Y-10020000D01*
X14480000Y-10230000D02*
X14520000Y-10270000D01*
X14520000Y-10230000D02*
X14480000Y-10270000D01*
X14480000Y-12980000D02*
X14520000Y-13020000D01*
X14520000Y-12980000D02*
X14480000Y-13020000D01*
X14480000Y-13755000D02*
X14520000Y-13795000D01*
X14520000Y-13755000D02*
X14480000Y-13795000D01*
X14480000Y-13980000D02*
X14520000Y-14020000D01*
X14520000Y-13980000D02*
X14480000Y-14020000D01*
X14730000Y-4230000D02*
X14770000Y-4270000D01*
X14770000Y-4230000D02*
X14730000Y-4270000D01*
X14730000Y-5480000D02*
X14770000Y-5520000D01*
X14770000Y-5480000D02*
X14730000Y-5520000D01*
X14730000Y-5980000D02*
X14770000Y-6020000D01*
X14770000Y-5980000D02*
X14730000Y-6020000D01*
X14730000Y-6230000D02*
X14770000Y-6270000D01*
X14770000Y-6230000D02*
X14730000Y-6270000D01*
X14730000Y-6480000D02*
X14770000Y-6520000D01*
X14770000Y-6480000D02*
X14730000Y-6520000D01*
X14730000Y-6730000D02*
X14770000Y-6770000D01*
X14770000Y-6730000D02*
X14730000Y-6770000D01*
X14730000Y-6980000D02*
X14770000Y-7020000D01*
X14770000Y-6980000D02*
X14730000Y-7020000D01*
X14730000Y-7230000D02*
X14770000Y-7270000D01*
X14770000Y-7230000D02*
X14730000Y-7270000D01*
X14730000Y-9480000D02*
X14770000Y-9520000D01*
X14770000Y-9480000D02*
X14730000Y-9520000D01*
X14730000Y-11730000D02*
X14770000Y-11770000D01*
X14770000Y-11730000D02*
X14730000Y-11770000D01*
X14730000Y-11980000D02*
X14770000Y-12020000D01*
X14770000Y-11980000D02*
X14730000Y-12020000D01*
X14730000Y-12980000D02*
X14770000Y-13020000D01*
X14770000Y-12980000D02*
X14730000Y-13020000D01*
X14730000Y-13755000D02*
X14770000Y-13795000D01*
X14770000Y-13755000D02*
X14730000Y-13795000D01*
X14730000Y-13980000D02*
X14770000Y-14020000D01*
X14770000Y-13980000D02*
X14730000Y-14020000D01*
X14793140Y-8541860D02*
X14833140Y-8581860D01*
X14833140Y-8541860D02*
X14793140Y-8581860D01*
X14980000Y-5480000D02*
X15020000Y-5520000D01*
X15020000Y-5480000D02*
X14980000Y-5520000D01*
X14980000Y-5730000D02*
X15020000Y-5770000D01*
X15020000Y-5730000D02*
X14980000Y-5770000D01*
X14980000Y-6230000D02*
X15020000Y-6270000D01*
X15020000Y-6230000D02*
X14980000Y-6270000D01*
X14980000Y-6480000D02*
X15020000Y-6520000D01*
X15020000Y-6480000D02*
X14980000Y-6520000D01*
X14980000Y-6730000D02*
X15020000Y-6770000D01*
X15020000Y-6730000D02*
X14980000Y-6770000D01*
X14980000Y-6980000D02*
X15020000Y-7020000D01*
X15020000Y-6980000D02*
X14980000Y-7020000D01*
X14980000Y-7480000D02*
X15020000Y-7520000D01*
X15020000Y-7480000D02*
X14980000Y-7520000D01*
X14980000Y-7730000D02*
X15020000Y-7770000D01*
X15020000Y-7730000D02*
X14980000Y-7770000D01*
X14980000Y-7980000D02*
X15020000Y-8020000D01*
X15020000Y-7980000D02*
X14980000Y-8020000D01*
X14980000Y-9480000D02*
X15020000Y-9520000D01*
X15020000Y-9480000D02*
X14980000Y-9520000D01*
X14980000Y-11230000D02*
X15020000Y-11270000D01*
X15020000Y-11230000D02*
X14980000Y-11270000D01*
X14980000Y-11480000D02*
X15020000Y-11520000D01*
X15020000Y-11480000D02*
X14980000Y-11520000D01*
X14980000Y-11730000D02*
X15020000Y-11770000D01*
X15020000Y-11730000D02*
X14980000Y-11770000D01*
X14980000Y-11980000D02*
X15020000Y-12020000D01*
X15020000Y-11980000D02*
X14980000Y-12020000D01*
X14980000Y-12230000D02*
X15020000Y-12270000D01*
X15020000Y-12230000D02*
X14980000Y-12270000D01*
X14980000Y-12480000D02*
X15020000Y-12520000D01*
X15020000Y-12480000D02*
X14980000Y-12520000D01*
X14980000Y-12730000D02*
X15020000Y-12770000D01*
X15020000Y-12730000D02*
X14980000Y-12770000D01*
X14980000Y-12980000D02*
X15020000Y-13020000D01*
X15020000Y-12980000D02*
X14980000Y-13020000D01*
X14980000Y-13980000D02*
X15020000Y-14020000D01*
X15020000Y-13980000D02*
X14980000Y-14020000D01*
X15230000Y-5480000D02*
X15270000Y-5520000D01*
X15270000Y-5480000D02*
X15230000Y-5520000D01*
X15230000Y-5730000D02*
X15270000Y-5770000D01*
X15270000Y-5730000D02*
X15230000Y-5770000D01*
X15230000Y-5980000D02*
X15270000Y-6020000D01*
X15270000Y-5980000D02*
X15230000Y-6020000D01*
X15230000Y-6480000D02*
X15270000Y-6520000D01*
X15270000Y-6480000D02*
X15230000Y-6520000D01*
X15230000Y-6730000D02*
X15270000Y-6770000D01*
X15270000Y-6730000D02*
X15230000Y-6770000D01*
X15230000Y-7230000D02*
X15270000Y-7270000D01*
X15270000Y-7230000D02*
X15230000Y-7270000D01*
X15230000Y-7480000D02*
X15270000Y-7520000D01*
X15270000Y-7480000D02*
X15230000Y-7520000D01*
X15230000Y-7730000D02*
X15270000Y-7770000D01*
X15270000Y-7730000D02*
X15230000Y-7770000D01*
X15230000Y-8730000D02*
X15270000Y-8770000D01*
X15270000Y-8730000D02*
X15230000Y-8770000D01*
X15230000Y-8980000D02*
X15270000Y-9020000D01*
X15270000Y-8980000D02*
X15230000Y-9020000D01*
X15230000Y-9480000D02*
X15270000Y-9520000D01*
X15270000Y-9480000D02*
X15230000Y-9520000D01*
X15230000Y-9980000D02*
X15270000Y-10020000D01*
X15270000Y-9980000D02*
X15230000Y-10020000D01*
X15230000Y-10230000D02*
X15270000Y-10270000D01*
X15270000Y-10230000D02*
X15230000Y-10270000D01*
X15230000Y-10730000D02*
X15270000Y-10770000D01*
X15270000Y-10730000D02*
X15230000Y-10770000D01*
X15230000Y-10980000D02*
X15270000Y-11020000D01*
X15270000Y-10980000D02*
X15230000Y-11020000D01*
X15230000Y-11230000D02*
X15270000Y-11270000D01*
X15270000Y-11230000D02*
X15230000Y-11270000D01*
X15230000Y-13980000D02*
X15270000Y-14020000D01*
X15270000Y-13980000D02*
X15230000Y-14020000D01*
X15480000Y-4730000D02*
X15520000Y-4770000D01*
X15520000Y-4730000D02*
X15480000Y-4770000D01*
X15480000Y-4980000D02*
X15520000Y-5020000D01*
X15520000Y-4980000D02*
X15480000Y-5020000D01*
X15480000Y-5730000D02*
X15520000Y-5770000D01*
X15520000Y-5730000D02*
X15480000Y-5770000D01*
X15480000Y-5980000D02*
X15520000Y-6020000D01*
X15520000Y-5980000D02*
X15480000Y-6020000D01*
X15480000Y-6230000D02*
X15520000Y-6270000D01*
X15520000Y-6230000D02*
X15480000Y-6270000D01*
X15480000Y-6980000D02*
X15520000Y-7020000D01*
X15520000Y-6980000D02*
X15480000Y-7020000D01*
X15480000Y-7230000D02*
X15520000Y-7270000D01*
X15520000Y-7230000D02*
X15480000Y-7270000D01*
X15480000Y-7480000D02*
X15520000Y-7520000D01*
X15520000Y-7480000D02*
X15480000Y-7520000D01*
X15480000Y-8480000D02*
X15520000Y-8520000D01*
X15520000Y-8480000D02*
X15480000Y-8520000D01*
X15480000Y-8730000D02*
X15520000Y-8770000D01*
X15520000Y-8730000D02*
X15480000Y-8770000D01*
X15480000Y-8980000D02*
X15520000Y-9020000D01*
X15520000Y-8980000D02*
X15480000Y-9020000D01*
X15480000Y-9480000D02*
X15520000Y-9520000D01*
X15520000Y-9480000D02*
X15480000Y-9520000D01*
X15480000Y-9980000D02*
X15520000Y-10020000D01*
X15520000Y-9980000D02*
X15480000Y-10020000D01*
X15480000Y-10230000D02*
X15520000Y-10270000D01*
X15520000Y-10230000D02*
X15480000Y-10270000D01*
X15480000Y-10730000D02*
X15520000Y-10770000D01*
X15520000Y-10730000D02*
X15480000Y-10770000D01*
X15480000Y-10980000D02*
X15520000Y-11020000D01*
X15520000Y-10980000D02*
X15480000Y-11020000D01*
X15480000Y-11730000D02*
X15520000Y-11770000D01*
X15520000Y-11730000D02*
X15480000Y-11770000D01*
X15480000Y-13980000D02*
X15520000Y-14020000D01*
X15520000Y-13980000D02*
X15480000Y-14020000D01*
X15580000Y-6420000D02*
X15620000Y-6460000D01*
X15620000Y-6420000D02*
X15580000Y-6460000D01*
X15730000Y-4480000D02*
X15770000Y-4520000D01*
X15770000Y-4480000D02*
X15730000Y-4520000D01*
X15730000Y-4730000D02*
X15770000Y-4770000D01*
X15770000Y-4730000D02*
X15730000Y-4770000D01*
X15730000Y-4980000D02*
X15770000Y-5020000D01*
X15770000Y-4980000D02*
X15730000Y-5020000D01*
X15730000Y-5480000D02*
X15770000Y-5520000D01*
X15770000Y-5480000D02*
X15730000Y-5520000D01*
X15730000Y-5980000D02*
X15770000Y-6020000D01*
X15770000Y-5980000D02*
X15730000Y-6020000D01*
X15730000Y-6230000D02*
X15770000Y-6270000D01*
X15770000Y-6230000D02*
X15730000Y-6270000D01*
X15730000Y-6980000D02*
X15770000Y-7020000D01*
X15770000Y-6980000D02*
X15730000Y-7020000D01*
X15730000Y-7230000D02*
X15770000Y-7270000D01*
X15770000Y-7230000D02*
X15730000Y-7270000D01*
X15730000Y-8230000D02*
X15770000Y-8270000D01*
X15770000Y-8230000D02*
X15730000Y-8270000D01*
X15730000Y-8480000D02*
X15770000Y-8520000D01*
X15770000Y-8480000D02*
X15730000Y-8520000D01*
X15730000Y-8730000D02*
X15770000Y-8770000D01*
X15770000Y-8730000D02*
X15730000Y-8770000D01*
X15730000Y-8980000D02*
X15770000Y-9020000D01*
X15770000Y-8980000D02*
X15730000Y-9020000D01*
X15730000Y-9230000D02*
X15770000Y-9270000D01*
X15770000Y-9230000D02*
X15730000Y-9270000D01*
X15730000Y-9480000D02*
X15770000Y-9520000D01*
X15770000Y-9480000D02*
X15730000Y-9520000D01*
X15730000Y-9980000D02*
X15770000Y-10020000D01*
X15770000Y-9980000D02*
X15730000Y-10020000D01*
X15730000Y-10230000D02*
X15770000Y-10270000D01*
X15770000Y-10230000D02*
X15730000Y-10270000D01*
X15730000Y-10730000D02*
X15770000Y-10770000D01*
X15770000Y-10730000D02*
X15730000Y-10770000D01*
X15730000Y-13980000D02*
X15770000Y-14020000D01*
X15770000Y-13980000D02*
X15730000Y-14020000D01*
X15800000Y-6620000D02*
X15840000Y-6660000D01*
X15840000Y-6620000D02*
X15800000Y-6660000D01*
X15980000Y-4480000D02*
X16020000Y-4520000D01*
X16020000Y-4480000D02*
X15980000Y-4520000D01*
X15980000Y-4730000D02*
X16020000Y-4770000D01*
X16020000Y-4730000D02*
X15980000Y-4770000D01*
X15980000Y-4980000D02*
X16020000Y-5020000D01*
X16020000Y-4980000D02*
X15980000Y-5020000D01*
X15980000Y-5480000D02*
X16020000Y-5520000D01*
X16020000Y-5480000D02*
X15980000Y-5520000D01*
X15980000Y-5730000D02*
X16020000Y-5770000D01*
X16020000Y-5730000D02*
X15980000Y-5770000D01*
X15980000Y-7980000D02*
X16020000Y-8020000D01*
X16020000Y-7980000D02*
X15980000Y-8020000D01*
X15980000Y-8230000D02*
X16020000Y-8270000D01*
X16020000Y-8230000D02*
X15980000Y-8270000D01*
X15980000Y-8480000D02*
X16020000Y-8520000D01*
X16020000Y-8480000D02*
X15980000Y-8520000D01*
X15980000Y-8730000D02*
X16020000Y-8770000D01*
X16020000Y-8730000D02*
X15980000Y-8770000D01*
X15980000Y-8980000D02*
X16020000Y-9020000D01*
X16020000Y-8980000D02*
X15980000Y-9020000D01*
X15980000Y-9230000D02*
X16020000Y-9270000D01*
X16020000Y-9230000D02*
X15980000Y-9270000D01*
X15980000Y-9480000D02*
X16020000Y-9520000D01*
X16020000Y-9480000D02*
X15980000Y-9520000D01*
X15980000Y-9980000D02*
X16020000Y-10020000D01*
X16020000Y-9980000D02*
X15980000Y-10020000D01*
X15980000Y-10230000D02*
X16020000Y-10270000D01*
X16020000Y-10230000D02*
X15980000Y-10270000D01*
X15980000Y-13755000D02*
X16020000Y-13795000D01*
X16020000Y-13755000D02*
X15980000Y-13795000D01*
X15980000Y-13980000D02*
X16020000Y-14020000D01*
X16020000Y-13980000D02*
X15980000Y-14020000D01*
X16060000Y-6380000D02*
X16100000Y-6420000D01*
X16100000Y-6380000D02*
X16060000Y-6420000D01*
X16060000Y-6800000D02*
X16100000Y-6840000D01*
X16100000Y-6800000D02*
X16060000Y-6840000D01*
X16230000Y-9980000D02*
X16270000Y-10020000D01*
X16270000Y-9980000D02*
X16230000Y-10020000D01*
X16230000Y-10230000D02*
X16270000Y-10270000D01*
X16270000Y-10230000D02*
X16230000Y-10270000D01*
X16230000Y-11730000D02*
X16270000Y-11770000D01*
X16270000Y-11730000D02*
X16230000Y-11770000D01*
X16230000Y-11980000D02*
X16270000Y-12020000D01*
X16270000Y-11980000D02*
X16230000Y-12020000D01*
X16230000Y-13755000D02*
X16270000Y-13795000D01*
X16270000Y-13755000D02*
X16230000Y-13795000D01*
X16230000Y-13980000D02*
X16270000Y-14020000D01*
X16270000Y-13980000D02*
X16230000Y-14020000D01*
X16480000Y-11730000D02*
X16520000Y-11770000D01*
X16520000Y-11730000D02*
X16480000Y-11770000D01*
X16480000Y-11980000D02*
X16520000Y-12020000D01*
X16520000Y-11980000D02*
X16480000Y-12020000D01*
X16480000Y-13980000D02*
X16520000Y-14020000D01*
X16520000Y-13980000D02*
X16480000Y-14020000D01*
X16730000Y-11230000D02*
X16770000Y-11270000D01*
X16770000Y-11230000D02*
X16730000Y-11270000D01*
X16730000Y-11480000D02*
X16770000Y-11520000D01*
X16770000Y-11480000D02*
X16730000Y-11520000D01*
X16730000Y-11730000D02*
X16770000Y-11770000D01*
X16770000Y-11730000D02*
X16730000Y-11770000D01*
X16730000Y-11980000D02*
X16770000Y-12020000D01*
X16770000Y-11980000D02*
X16730000Y-12020000D01*
X16730000Y-12230000D02*
X16770000Y-12270000D01*
X16770000Y-12230000D02*
X16730000Y-12270000D01*
X16730000Y-12480000D02*
X16770000Y-12520000D01*
X16770000Y-12480000D02*
X16730000Y-12520000D01*
X16730000Y-12730000D02*
X16770000Y-12770000D01*
X16770000Y-12730000D02*
X16730000Y-12770000D01*
X16730000Y-13980000D02*
X16770000Y-14020000D01*
X16770000Y-13980000D02*
X16730000Y-14020000D01*
X16980000Y-9980000D02*
X17020000Y-10020000D01*
X17020000Y-9980000D02*
X16980000Y-10020000D01*
X16980000Y-10230000D02*
X17020000Y-10270000D01*
X17020000Y-10230000D02*
X16980000Y-10270000D01*
X16980000Y-10730000D02*
X17020000Y-10770000D01*
X17020000Y-10730000D02*
X16980000Y-10770000D01*
X16980000Y-10980000D02*
X17020000Y-11020000D01*
X17020000Y-10980000D02*
X16980000Y-11020000D01*
X16980000Y-11230000D02*
X17020000Y-11270000D01*
X17020000Y-11230000D02*
X16980000Y-11270000D01*
X16980000Y-11480000D02*
X17020000Y-11520000D01*
X17020000Y-11480000D02*
X16980000Y-11520000D01*
X16980000Y-11730000D02*
X17020000Y-11770000D01*
X17020000Y-11730000D02*
X16980000Y-11770000D01*
X16980000Y-11980000D02*
X17020000Y-12020000D01*
X17020000Y-11980000D02*
X16980000Y-12020000D01*
X16980000Y-12230000D02*
X17020000Y-12270000D01*
X17020000Y-12230000D02*
X16980000Y-12270000D01*
X16980000Y-12480000D02*
X17020000Y-12520000D01*
X17020000Y-12480000D02*
X16980000Y-12520000D01*
X16980000Y-12730000D02*
X17020000Y-12770000D01*
X17020000Y-12730000D02*
X16980000Y-12770000D01*
X16980000Y-12980000D02*
X17020000Y-13020000D01*
X17020000Y-12980000D02*
X16980000Y-13020000D01*
X16980000Y-13980000D02*
X17020000Y-14020000D01*
X17020000Y-13980000D02*
X16980000Y-14020000D01*
X17230000Y-4480000D02*
X17270000Y-4520000D01*
X17270000Y-4480000D02*
X17230000Y-4520000D01*
X17230000Y-5230000D02*
X17270000Y-5270000D01*
X17270000Y-5230000D02*
X17230000Y-5270000D01*
X17230000Y-5480000D02*
X17270000Y-5520000D01*
X17270000Y-5480000D02*
X17230000Y-5520000D01*
X17230000Y-9730000D02*
X17270000Y-9770000D01*
X17270000Y-9730000D02*
X17230000Y-9770000D01*
X17230000Y-9980000D02*
X17270000Y-10020000D01*
X17270000Y-9980000D02*
X17230000Y-10020000D01*
X17230000Y-10230000D02*
X17270000Y-10270000D01*
X17270000Y-10230000D02*
X17230000Y-10270000D01*
X17230000Y-10730000D02*
X17270000Y-10770000D01*
X17270000Y-10730000D02*
X17230000Y-10770000D01*
X17230000Y-13980000D02*
X17270000Y-14020000D01*
X17270000Y-13980000D02*
X17230000Y-14020000D01*
X17480000Y-4480000D02*
X17520000Y-4520000D01*
X17520000Y-4480000D02*
X17480000Y-4520000D01*
X17480000Y-4730000D02*
X17520000Y-4770000D01*
X17520000Y-4730000D02*
X17480000Y-4770000D01*
X17480000Y-4980000D02*
X17520000Y-5020000D01*
X17520000Y-4980000D02*
X17480000Y-5020000D01*
X17480000Y-5230000D02*
X17520000Y-5270000D01*
X17520000Y-5230000D02*
X17480000Y-5270000D01*
X17480000Y-5480000D02*
X17520000Y-5520000D01*
X17520000Y-5480000D02*
X17480000Y-5520000D01*
X17480000Y-5730000D02*
X17520000Y-5770000D01*
X17520000Y-5730000D02*
X17480000Y-5770000D01*
X17480000Y-5980000D02*
X17520000Y-6020000D01*
X17520000Y-5980000D02*
X17480000Y-6020000D01*
X17480000Y-6230000D02*
X17520000Y-6270000D01*
X17520000Y-6230000D02*
X17480000Y-6270000D01*
X17480000Y-6480000D02*
X17520000Y-6520000D01*
X17520000Y-6480000D02*
X17480000Y-6520000D01*
X17480000Y-6730000D02*
X17520000Y-6770000D01*
X17520000Y-6730000D02*
X17480000Y-6770000D01*
X17480000Y-7230000D02*
X17520000Y-7270000D01*
X17520000Y-7230000D02*
X17480000Y-7270000D01*
X17480000Y-7480000D02*
X17520000Y-7520000D01*
X17520000Y-7480000D02*
X17480000Y-7520000D01*
X17480000Y-7730000D02*
X17520000Y-7770000D01*
X17520000Y-7730000D02*
X17480000Y-7770000D01*
X17480000Y-7980000D02*
X17520000Y-8020000D01*
X17520000Y-7980000D02*
X17480000Y-8020000D01*
X17480000Y-8480000D02*
X17520000Y-8520000D01*
X17520000Y-8480000D02*
X17480000Y-8520000D01*
X17480000Y-8730000D02*
X17520000Y-8770000D01*
X17520000Y-8730000D02*
X17480000Y-8770000D01*
X17480000Y-8980000D02*
X17520000Y-9020000D01*
X17520000Y-8980000D02*
X17480000Y-9020000D01*
X17480000Y-9230000D02*
X17520000Y-9270000D01*
X17520000Y-9230000D02*
X17480000Y-9270000D01*
X17480000Y-9480000D02*
X17520000Y-9520000D01*
X17520000Y-9480000D02*
X17480000Y-9520000D01*
X17480000Y-9980000D02*
X17520000Y-10020000D01*
X17520000Y-9980000D02*
X17480000Y-10020000D01*
X17480000Y-10230000D02*
X17520000Y-10270000D01*
X17520000Y-10230000D02*
X17480000Y-10270000D01*
X17480000Y-10730000D02*
X17520000Y-10770000D01*
X17520000Y-10730000D02*
X17480000Y-10770000D01*
X17480000Y-10980000D02*
X17520000Y-11020000D01*
X17520000Y-10980000D02*
X17480000Y-11020000D01*
X17480000Y-11730000D02*
X17520000Y-11770000D01*
X17520000Y-11730000D02*
X17480000Y-11770000D01*
X17480000Y-12980000D02*
X17520000Y-13020000D01*
X17520000Y-12980000D02*
X17480000Y-13020000D01*
X17480000Y-13480000D02*
X17520000Y-13520000D01*
X17520000Y-13480000D02*
X17480000Y-13520000D01*
X17480000Y-13755000D02*
X17520000Y-13795000D01*
X17520000Y-13755000D02*
X17480000Y-13795000D01*
X17480000Y-13980000D02*
X17520000Y-14020000D01*
X17520000Y-13980000D02*
X17480000Y-14020000D01*
X17730000Y-9980000D02*
X17770000Y-10020000D01*
X17770000Y-9980000D02*
X17730000Y-10020000D01*
X17730000Y-10230000D02*
X17770000Y-10270000D01*
X17770000Y-10230000D02*
X17730000Y-10270000D01*
X17730000Y-10730000D02*
X17770000Y-10770000D01*
X17770000Y-10730000D02*
X17730000Y-10770000D01*
X17730000Y-12980000D02*
X17770000Y-13020000D01*
X17770000Y-12980000D02*
X17730000Y-13020000D01*
X17730000Y-13230000D02*
X17770000Y-13270000D01*
X17770000Y-13230000D02*
X17730000Y-13270000D01*
X17730000Y-13480000D02*
X17770000Y-13520000D01*
X17770000Y-13480000D02*
X17730000Y-13520000D01*
X17730000Y-13730000D02*
X17770000Y-13770000D01*
X17770000Y-13730000D02*
X17730000Y-13770000D01*
X17730000Y-13980000D02*
X17770000Y-14020000D01*
X17770000Y-13980000D02*
X17730000Y-14020000D01*
X17980000Y-4730000D02*
X18020000Y-4770000D01*
X18020000Y-4730000D02*
X17980000Y-4770000D01*
X17980000Y-5980000D02*
X18020000Y-6020000D01*
X18020000Y-5980000D02*
X17980000Y-6020000D01*
X17980000Y-7480000D02*
X18020000Y-7520000D01*
X18020000Y-7480000D02*
X17980000Y-7520000D01*
X17980000Y-7980000D02*
X18020000Y-8020000D01*
X18020000Y-7980000D02*
X17980000Y-8020000D01*
X17980000Y-8730000D02*
X18020000Y-8770000D01*
X18020000Y-8730000D02*
X17980000Y-8770000D01*
X17980000Y-9980000D02*
X18020000Y-10020000D01*
X18020000Y-9980000D02*
X17980000Y-10020000D01*
X17980000Y-10230000D02*
X18020000Y-10270000D01*
X18020000Y-10230000D02*
X17980000Y-10270000D01*
X17980000Y-12980000D02*
X18020000Y-13020000D01*
X18020000Y-12980000D02*
X17980000Y-13020000D01*
X17980000Y-13230000D02*
X18020000Y-13270000D01*
X18020000Y-13230000D02*
X17980000Y-13270000D01*
X17980000Y-13480000D02*
X18020000Y-13520000D01*
X18020000Y-13480000D02*
X17980000Y-13520000D01*
X17980000Y-13730000D02*
X18020000Y-13770000D01*
X18020000Y-13730000D02*
X17980000Y-13770000D01*
X17980000Y-13980000D02*
X18020000Y-14020000D01*
X18020000Y-13980000D02*
X17980000Y-14020000D01*
X18230000Y-4230000D02*
X18270000Y-4270000D01*
X18270000Y-4230000D02*
X18230000Y-4270000D01*
X18230000Y-5980000D02*
X18270000Y-6020000D01*
X18270000Y-5980000D02*
X18230000Y-6020000D01*
X18230000Y-7480000D02*
X18270000Y-7520000D01*
X18270000Y-7480000D02*
X18230000Y-7520000D01*
X18230000Y-8730000D02*
X18270000Y-8770000D01*
X18270000Y-8730000D02*
X18230000Y-8770000D01*
X18230000Y-10230000D02*
X18270000Y-10270000D01*
X18270000Y-10230000D02*
X18230000Y-10270000D01*
X18230000Y-10480000D02*
X18270000Y-10520000D01*
X18270000Y-10480000D02*
X18230000Y-10520000D01*
X18230000Y-11730000D02*
X18270000Y-11770000D01*
X18270000Y-11730000D02*
X18230000Y-11770000D01*
X18230000Y-11980000D02*
X18270000Y-12020000D01*
X18270000Y-11980000D02*
X18230000Y-12020000D01*
X18230000Y-12980000D02*
X18270000Y-13020000D01*
X18270000Y-12980000D02*
X18230000Y-13020000D01*
X18230000Y-13230000D02*
X18270000Y-13270000D01*
X18270000Y-13230000D02*
X18230000Y-13270000D01*
X18230000Y-13480000D02*
X18270000Y-13520000D01*
X18270000Y-13480000D02*
X18230000Y-13520000D01*
X18230000Y-13730000D02*
X18270000Y-13770000D01*
X18270000Y-13730000D02*
X18230000Y-13770000D01*
X18230000Y-13980000D02*
X18270000Y-14020000D01*
X18270000Y-13980000D02*
X18230000Y-14020000D01*
X18480000Y-4230000D02*
X18520000Y-4270000D01*
X18520000Y-4230000D02*
X18480000Y-4270000D01*
X18480000Y-4730000D02*
X18520000Y-4770000D01*
X18520000Y-4730000D02*
X18480000Y-4770000D01*
X18480000Y-5480000D02*
X18520000Y-5520000D01*
X18520000Y-5480000D02*
X18480000Y-5520000D01*
X18480000Y-5980000D02*
X18520000Y-6020000D01*
X18520000Y-5980000D02*
X18480000Y-6020000D01*
X18480000Y-6730000D02*
X18520000Y-6770000D01*
X18520000Y-6730000D02*
X18480000Y-6770000D01*
X18480000Y-6980000D02*
X18520000Y-7020000D01*
X18520000Y-6980000D02*
X18480000Y-7020000D01*
X18480000Y-7480000D02*
X18520000Y-7520000D01*
X18520000Y-7480000D02*
X18480000Y-7520000D01*
X18480000Y-8230000D02*
X18520000Y-8270000D01*
X18520000Y-8230000D02*
X18480000Y-8270000D01*
X18480000Y-8980000D02*
X18520000Y-9020000D01*
X18520000Y-8980000D02*
X18480000Y-9020000D01*
X18480000Y-9730000D02*
X18520000Y-9770000D01*
X18520000Y-9730000D02*
X18480000Y-9770000D01*
X18480000Y-10480000D02*
X18520000Y-10520000D01*
X18520000Y-10480000D02*
X18480000Y-10520000D01*
X18480000Y-11730000D02*
X18520000Y-11770000D01*
X18520000Y-11730000D02*
X18480000Y-11770000D01*
X18480000Y-12980000D02*
X18520000Y-13020000D01*
X18520000Y-12980000D02*
X18480000Y-13020000D01*
X18480000Y-13230000D02*
X18520000Y-13270000D01*
X18520000Y-13230000D02*
X18480000Y-13270000D01*
X18480000Y-13480000D02*
X18520000Y-13520000D01*
X18520000Y-13480000D02*
X18480000Y-13520000D01*
X18480000Y-13730000D02*
X18520000Y-13770000D01*
X18520000Y-13730000D02*
X18480000Y-13770000D01*
X18480000Y-13980000D02*
X18520000Y-14020000D01*
X18520000Y-13980000D02*
X18480000Y-14020000D01*
X18730000Y-4230000D02*
X18770000Y-4270000D01*
X18770000Y-4230000D02*
X18730000Y-4270000D01*
X18730000Y-4480000D02*
X18770000Y-4520000D01*
X18770000Y-4480000D02*
X18730000Y-4520000D01*
X18730000Y-4730000D02*
X18770000Y-4770000D01*
X18770000Y-4730000D02*
X18730000Y-4770000D01*
X18730000Y-4980000D02*
X18770000Y-5020000D01*
X18770000Y-4980000D02*
X18730000Y-5020000D01*
X18730000Y-5230000D02*
X18770000Y-5270000D01*
X18770000Y-5230000D02*
X18730000Y-5270000D01*
X18730000Y-5480000D02*
X18770000Y-5520000D01*
X18770000Y-5480000D02*
X18730000Y-5520000D01*
X18730000Y-5980000D02*
X18770000Y-6020000D01*
X18770000Y-5980000D02*
X18730000Y-6020000D01*
X18730000Y-6230000D02*
X18770000Y-6270000D01*
X18770000Y-6230000D02*
X18730000Y-6270000D01*
X18730000Y-6480000D02*
X18770000Y-6520000D01*
X18770000Y-6480000D02*
X18730000Y-6520000D01*
X18730000Y-6730000D02*
X18770000Y-6770000D01*
X18770000Y-6730000D02*
X18730000Y-6770000D01*
X18730000Y-6980000D02*
X18770000Y-7020000D01*
X18770000Y-6980000D02*
X18730000Y-7020000D01*
X18730000Y-7480000D02*
X18770000Y-7520000D01*
X18770000Y-7480000D02*
X18730000Y-7520000D01*
X18730000Y-7730000D02*
X18770000Y-7770000D01*
X18770000Y-7730000D02*
X18730000Y-7770000D01*
X18730000Y-8230000D02*
X18770000Y-8270000D01*
X18770000Y-8230000D02*
X18730000Y-8270000D01*
X18730000Y-8480000D02*
X18770000Y-8520000D01*
X18770000Y-8480000D02*
X18730000Y-8520000D01*
X18730000Y-8730000D02*
X18770000Y-8770000D01*
X18770000Y-8730000D02*
X18730000Y-8770000D01*
X18730000Y-8980000D02*
X18770000Y-9020000D01*
X18770000Y-8980000D02*
X18730000Y-9020000D01*
X18730000Y-9230000D02*
X18770000Y-9270000D01*
X18770000Y-9230000D02*
X18730000Y-9270000D01*
X18730000Y-9480000D02*
X18770000Y-9520000D01*
X18770000Y-9480000D02*
X18730000Y-9520000D01*
X18730000Y-9730000D02*
X18770000Y-9770000D01*
X18770000Y-9730000D02*
X18730000Y-9770000D01*
X18730000Y-9980000D02*
X18770000Y-10020000D01*
X18770000Y-9980000D02*
X18730000Y-10020000D01*
X18730000Y-10230000D02*
X18770000Y-10270000D01*
X18770000Y-10230000D02*
X18730000Y-10270000D01*
X18730000Y-10480000D02*
X18770000Y-10520000D01*
X18770000Y-10480000D02*
X18730000Y-10520000D01*
X18730000Y-10730000D02*
X18770000Y-10770000D01*
X18770000Y-10730000D02*
X18730000Y-10770000D01*
X18730000Y-11230000D02*
X18770000Y-11270000D01*
X18770000Y-11230000D02*
X18730000Y-11270000D01*
X18730000Y-11480000D02*
X18770000Y-11520000D01*
X18770000Y-11480000D02*
X18730000Y-11520000D01*
X18730000Y-11730000D02*
X18770000Y-11770000D01*
X18770000Y-11730000D02*
X18730000Y-11770000D01*
X18730000Y-11980000D02*
X18770000Y-12020000D01*
X18770000Y-11980000D02*
X18730000Y-12020000D01*
X18730000Y-12230000D02*
X18770000Y-12270000D01*
X18770000Y-12230000D02*
X18730000Y-12270000D01*
X18730000Y-12480000D02*
X18770000Y-12520000D01*
X18770000Y-12480000D02*
X18730000Y-12520000D01*
X18730000Y-12730000D02*
X18770000Y-12770000D01*
X18770000Y-12730000D02*
X18730000Y-12770000D01*
X18730000Y-12980000D02*
X18770000Y-13020000D01*
X18770000Y-12980000D02*
X18730000Y-13020000D01*
X18730000Y-13230000D02*
X18770000Y-13270000D01*
X18770000Y-13230000D02*
X18730000Y-13270000D01*
X18730000Y-13480000D02*
X18770000Y-13520000D01*
X18770000Y-13480000D02*
X18730000Y-13520000D01*
X18730000Y-13730000D02*
X18770000Y-13770000D01*
X18770000Y-13730000D02*
X18730000Y-13770000D01*
X18730000Y-13980000D02*
X18770000Y-14020000D01*
X18770000Y-13980000D02*
X18730000Y-14020000D01*
D10*
X17725000Y-4600000D02*
G75*
G03*
X17725000Y-4600000I-25000J0D01*
G01*
X17725000Y-4750000D02*
G75*
G03*
X17725000Y-4750000I-25000J0D01*
G01*
X17725000Y-4900000D02*
G75*
G03*
X17725000Y-4900000I-25000J0D01*
G01*
X17725000Y-5050000D02*
G75*
G03*
X17725000Y-5050000I-25000J0D01*
G01*
X17725000Y-6000000D02*
G75*
G03*
X17725000Y-6000000I-25000J0D01*
G01*
X17725000Y-6150000D02*
G75*
G03*
X17725000Y-6150000I-25000J0D01*
G01*
X17725000Y-6300000D02*
G75*
G03*
X17725000Y-6300000I-25000J0D01*
G01*
X17725000Y-6450000D02*
G75*
G03*
X17725000Y-6450000I-25000J0D01*
G01*
X17725000Y-7400000D02*
G75*
G03*
X17725000Y-7400000I-25000J0D01*
G01*
X17725000Y-7550000D02*
G75*
G03*
X17725000Y-7550000I-25000J0D01*
G01*
X17725000Y-7700000D02*
G75*
G03*
X17725000Y-7700000I-25000J0D01*
G01*
X17725000Y-7850000D02*
G75*
G03*
X17725000Y-7850000I-25000J0D01*
G01*
X17725000Y-8850000D02*
G75*
G03*
X17725000Y-8850000I-25000J0D01*
G01*
X17725000Y-9000000D02*
G75*
G03*
X17725000Y-9000000I-25000J0D01*
G01*
X17725000Y-9150000D02*
G75*
G03*
X17725000Y-9150000I-25000J0D01*
G01*
X17725000Y-9300000D02*
G75*
G03*
X17725000Y-9300000I-25000J0D01*
G01*
D13*
X9701000Y-10958000D02*
X9701000Y-11028000D01*
X9666000Y-10993000D02*
X9736000Y-10993000D01*
X9701000Y-11466000D02*
X9701000Y-11536000D01*
X9666000Y-11501000D02*
X9736000Y-11501000D01*
X9701000Y-11858000D02*
X9701000Y-11928000D01*
X9666000Y-11893000D02*
X9736000Y-11893000D01*
X9701000Y-12366000D02*
X9701000Y-12436000D01*
X9666000Y-12401000D02*
X9736000Y-12401000D01*
X10001000Y-11858000D02*
X10001000Y-11928000D01*
X9966000Y-11893000D02*
X10036000Y-11893000D01*
X10001000Y-12366000D02*
X10001000Y-12436000D01*
X9966000Y-12401000D02*
X10036000Y-12401000D01*
X10301000Y-11858000D02*
X10301000Y-11928000D01*
X10266000Y-11893000D02*
X10336000Y-11893000D01*
X10301000Y-12366000D02*
X10301000Y-12436000D01*
X10266000Y-12401000D02*
X10336000Y-12401000D01*
X11001000Y-10958000D02*
X11001000Y-11028000D01*
X10966000Y-10993000D02*
X11036000Y-10993000D01*
X11001000Y-11466000D02*
X11001000Y-11536000D01*
X10966000Y-11501000D02*
X11036000Y-11501000D01*
X11001000Y-11858000D02*
X11001000Y-11928000D01*
X10966000Y-11893000D02*
X11036000Y-11893000D01*
X11001000Y-12366000D02*
X11001000Y-12436000D01*
X10966000Y-12401000D02*
X11036000Y-12401000D01*
X11301000Y-11858000D02*
X11301000Y-11928000D01*
X11266000Y-11893000D02*
X11336000Y-11893000D01*
X11301000Y-12366000D02*
X11301000Y-12436000D01*
X11266000Y-12401000D02*
X11336000Y-12401000D01*
X11601000Y-11858000D02*
X11601000Y-11928000D01*
X11566000Y-11893000D02*
X11636000Y-11893000D01*
X11601000Y-12366000D02*
X11601000Y-12436000D01*
X11566000Y-12401000D02*
X11636000Y-12401000D01*
X12301000Y-10966000D02*
X12301000Y-11036000D01*
X12266000Y-11001000D02*
X12336000Y-11001000D01*
X12301000Y-11474000D02*
X12301000Y-11544000D01*
X12266000Y-11509000D02*
X12336000Y-11509000D01*
X12301000Y-11858000D02*
X12301000Y-11928000D01*
X12266000Y-11893000D02*
X12336000Y-11893000D01*
X12301000Y-12366000D02*
X12301000Y-12436000D01*
X12266000Y-12401000D02*
X12336000Y-12401000D01*
X12601000Y-11858000D02*
X12601000Y-11928000D01*
X12566000Y-11893000D02*
X12636000Y-11893000D01*
X12601000Y-12366000D02*
X12601000Y-12436000D01*
X12566000Y-12401000D02*
X12636000Y-12401000D01*
X12901000Y-11858000D02*
X12901000Y-11928000D01*
X12866000Y-11893000D02*
X12936000Y-11893000D01*
X12901000Y-12366000D02*
X12901000Y-12436000D01*
X12866000Y-12401000D02*
X12936000Y-12401000D01*
X14051000Y-10958000D02*
X14051000Y-11028000D01*
X14016000Y-10993000D02*
X14086000Y-10993000D01*
X14051000Y-11466000D02*
X14051000Y-11536000D01*
X14016000Y-11501000D02*
X14086000Y-11501000D01*
X14051000Y-11858000D02*
X14051000Y-11928000D01*
X14016000Y-11893000D02*
X14086000Y-11893000D01*
X14051000Y-12366000D02*
X14051000Y-12436000D01*
X14016000Y-12401000D02*
X14086000Y-12401000D01*
X15750000Y-10966000D02*
X15750000Y-11036000D01*
X15715000Y-11001000D02*
X15785000Y-11001000D01*
X15750000Y-11474000D02*
X15750000Y-11544000D01*
X15715000Y-11509000D02*
X15785000Y-11509000D01*
X15750000Y-11857000D02*
X15750000Y-11927000D01*
X15715000Y-11892000D02*
X15785000Y-11892000D01*
X15750000Y-12365000D02*
X15750000Y-12435000D01*
X15715000Y-12400000D02*
X15785000Y-12400000D01*
X16301000Y-4766000D02*
X16301000Y-4836000D01*
X16266000Y-4801000D02*
X16336000Y-4801000D01*
X16301000Y-5046000D02*
X16301000Y-5116000D01*
X16266000Y-5081000D02*
X16336000Y-5081000D01*
X16301000Y-5666000D02*
X16301000Y-5736000D01*
X16266000Y-5701000D02*
X16336000Y-5701000D01*
X16301000Y-5946000D02*
X16301000Y-6016000D01*
X16266000Y-5981000D02*
X16336000Y-5981000D01*
X16301000Y-6566000D02*
X16301000Y-6636000D01*
X16266000Y-6601000D02*
X16336000Y-6601000D01*
X16301000Y-6846000D02*
X16301000Y-6916000D01*
X16266000Y-6881000D02*
X16336000Y-6881000D01*
X16301000Y-7466000D02*
X16301000Y-7536000D01*
X16266000Y-7501000D02*
X16336000Y-7501000D01*
X16301000Y-7746000D02*
X16301000Y-7816000D01*
X16266000Y-7781000D02*
X16336000Y-7781000D01*
X16301000Y-8366000D02*
X16301000Y-8436000D01*
X16266000Y-8401000D02*
X16336000Y-8401000D01*
X16301000Y-8646000D02*
X16301000Y-8716000D01*
X16266000Y-8681000D02*
X16336000Y-8681000D01*
X16301000Y-9266000D02*
X16301000Y-9336000D01*
X16266000Y-9301000D02*
X16336000Y-9301000D01*
X16301000Y-9546000D02*
X16301000Y-9616000D01*
X16266000Y-9581000D02*
X16336000Y-9581000D01*
X16809000Y-4766000D02*
X16809000Y-4836000D01*
X16774000Y-4801000D02*
X16844000Y-4801000D01*
X16809000Y-5046000D02*
X16809000Y-5116000D01*
X16774000Y-5081000D02*
X16844000Y-5081000D01*
X16809000Y-5666000D02*
X16809000Y-5736000D01*
X16774000Y-5701000D02*
X16844000Y-5701000D01*
X16809000Y-5946000D02*
X16809000Y-6016000D01*
X16774000Y-5981000D02*
X16844000Y-5981000D01*
X16809000Y-6566000D02*
X16809000Y-6636000D01*
X16774000Y-6601000D02*
X16844000Y-6601000D01*
X16809000Y-6846000D02*
X16809000Y-6916000D01*
X16774000Y-6881000D02*
X16844000Y-6881000D01*
X16809000Y-7466000D02*
X16809000Y-7536000D01*
X16774000Y-7501000D02*
X16844000Y-7501000D01*
X16809000Y-7746000D02*
X16809000Y-7816000D01*
X16774000Y-7781000D02*
X16844000Y-7781000D01*
X16809000Y-8366000D02*
X16809000Y-8436000D01*
X16774000Y-8401000D02*
X16844000Y-8401000D01*
X16809000Y-8646000D02*
X16809000Y-8716000D01*
X16774000Y-8681000D02*
X16844000Y-8681000D01*
X16809000Y-9266000D02*
X16809000Y-9336000D01*
X16774000Y-9301000D02*
X16844000Y-9301000D01*
X16809000Y-9546000D02*
X16809000Y-9616000D01*
X16774000Y-9581000D02*
X16844000Y-9581000D01*
X17751000Y-10966000D02*
X17751000Y-11036000D01*
X17716000Y-11001000D02*
X17786000Y-11001000D01*
X17751000Y-11474000D02*
X17751000Y-11544000D01*
X17716000Y-11509000D02*
X17786000Y-11509000D01*
X17751000Y-11858000D02*
X17751000Y-11928000D01*
X17716000Y-11893000D02*
X17786000Y-11893000D01*
X17751000Y-12366000D02*
X17751000Y-12436000D01*
X17716000Y-12401000D02*
X17786000Y-12401000D01*
X18051000Y-4365000D02*
X18051000Y-4435000D01*
X18016000Y-4400000D02*
X18086000Y-4400000D01*
X18051000Y-4873000D02*
X18051000Y-4943000D01*
X18016000Y-4908000D02*
X18086000Y-4908000D01*
X18067000Y-5765000D02*
X18067000Y-5835000D01*
X18032000Y-5800000D02*
X18102000Y-5800000D01*
X18067000Y-6273000D02*
X18067000Y-6343000D01*
X18032000Y-6308000D02*
X18102000Y-6308000D01*
X18071000Y-7166000D02*
X18071000Y-7236000D01*
X18036000Y-7201000D02*
X18106000Y-7201000D01*
X18071000Y-7674000D02*
X18071000Y-7744000D01*
X18036000Y-7709000D02*
X18106000Y-7709000D01*
X18071000Y-8566000D02*
X18071000Y-8636000D01*
X18036000Y-8601000D02*
X18106000Y-8601000D01*
X18071000Y-9074000D02*
X18071000Y-9144000D01*
X18036000Y-9109000D02*
X18106000Y-9109000D01*
X18311000Y-4366000D02*
X18311000Y-4436000D01*
X18276000Y-4401000D02*
X18346000Y-4401000D01*
X18311000Y-4874000D02*
X18311000Y-4944000D01*
X18276000Y-4909000D02*
X18346000Y-4909000D01*
X18328000Y-5766000D02*
X18328000Y-5836000D01*
X18293000Y-5801000D02*
X18363000Y-5801000D01*
X18328000Y-6274000D02*
X18328000Y-6344000D01*
X18293000Y-6309000D02*
X18363000Y-6309000D01*
X18331000Y-7166000D02*
X18331000Y-7236000D01*
X18296000Y-7201000D02*
X18366000Y-7201000D01*
X18331000Y-7674000D02*
X18331000Y-7744000D01*
X18296000Y-7709000D02*
X18366000Y-7709000D01*
X18331000Y-8566000D02*
X18331000Y-8636000D01*
X18296000Y-8601000D02*
X18366000Y-8601000D01*
X18331000Y-9074000D02*
X18331000Y-9144000D01*
X18296000Y-9109000D02*
X18366000Y-9109000D01*
D14*
X10026517Y-11426517D02*
X10026517Y-11373483D01*
X9973483Y-11373483D01*
X9973483Y-11426517D01*
X10026517Y-11426517D01*
X10153517Y-11299517D02*
X10153517Y-11246483D01*
X10100483Y-11246483D01*
X10100483Y-11299517D01*
X10153517Y-11299517D01*
X10280517Y-11426517D02*
X10280517Y-11373483D01*
X10227483Y-11373483D01*
X10227483Y-11426517D01*
X10280517Y-11426517D01*
X11326517Y-11426517D02*
X11326517Y-11373483D01*
X11273483Y-11373483D01*
X11273483Y-11426517D01*
X11326517Y-11426517D01*
X11453517Y-11299517D02*
X11453517Y-11246483D01*
X11400483Y-11246483D01*
X11400483Y-11299517D01*
X11453517Y-11299517D01*
X11580517Y-11426517D02*
X11580517Y-11373483D01*
X11527483Y-11373483D01*
X11527483Y-11426517D01*
X11580517Y-11426517D01*
X12626517Y-11426517D02*
X12626517Y-11373483D01*
X12573483Y-11373483D01*
X12573483Y-11426517D01*
X12626517Y-11426517D01*
X12753517Y-11299517D02*
X12753517Y-11246483D01*
X12700483Y-11246483D01*
X12700483Y-11299517D01*
X12753517Y-11299517D01*
X12880517Y-11426517D02*
X12880517Y-11373483D01*
X12827483Y-11373483D01*
X12827483Y-11426517D01*
X12880517Y-11426517D01*
X14801517Y-10826517D02*
X14801517Y-10773483D01*
X14748483Y-10773483D01*
X14748483Y-10826517D01*
X14801517Y-10826517D01*
X14801517Y-11080517D02*
X14801517Y-11027483D01*
X14748483Y-11027483D01*
X14748483Y-11080517D01*
X14801517Y-11080517D01*
X14928517Y-10953517D02*
X14928517Y-10900483D01*
X14875483Y-10900483D01*
X14875483Y-10953517D01*
X14928517Y-10953517D01*
X16501517Y-10826517D02*
X16501517Y-10773483D01*
X16448483Y-10773483D01*
X16448483Y-10826517D01*
X16501517Y-10826517D01*
X16501517Y-11080517D02*
X16501517Y-11027483D01*
X16448483Y-11027483D01*
X16448483Y-11080517D01*
X16501517Y-11080517D01*
X16628517Y-10953517D02*
X16628517Y-10900483D01*
X16575483Y-10900483D01*
X16575483Y-10953517D01*
X16628517Y-10953517D01*
X18501517Y-10826517D02*
X18501517Y-10773483D01*
X18448483Y-10773483D01*
X18448483Y-10826517D01*
X18501517Y-10826517D01*
X18501517Y-11080517D02*
X18501517Y-11027483D01*
X18448483Y-11027483D01*
X18448483Y-11080517D01*
X18501517Y-11080517D01*
X18628517Y-10953517D02*
X18628517Y-10900483D01*
X18575483Y-10900483D01*
X18575483Y-10953517D01*
X18628517Y-10953517D01*
D15*
X10300000Y-10040000D02*
X10340000Y-10000000D01*
X10300000Y-9960000D01*
X10260000Y-10000000D01*
X10300000Y-10040000D01*
X10300000Y-10240000D02*
X10340000Y-10200000D01*
X10300000Y-10160000D01*
X10260000Y-10200000D01*
X10300000Y-10240000D01*
X12100000Y-10140000D02*
X12140000Y-10100000D01*
X12100000Y-10060000D01*
X12060000Y-10100000D01*
X12100000Y-10140000D01*
X12300000Y-10140000D02*
X12340000Y-10100000D01*
X12300000Y-10060000D01*
X12260000Y-10100000D01*
X12300000Y-10140000D01*
X14726000Y-11425000D02*
X14766000Y-11385000D01*
X14726000Y-11345000D01*
X14686000Y-11385000D01*
X14726000Y-11425000D01*
X14726000Y-12441000D02*
X14766000Y-12401000D01*
X14726000Y-12361000D01*
X14686000Y-12401000D01*
X14726000Y-12441000D01*
X14826000Y-10041000D02*
X14866000Y-10001000D01*
X14826000Y-9961000D01*
X14786000Y-10001000D01*
X14826000Y-10041000D01*
X14826000Y-10241000D02*
X14866000Y-10201000D01*
X14826000Y-10161000D01*
X14786000Y-10201000D01*
X14826000Y-10241000D01*
X16301000Y-4541000D02*
X16341000Y-4501000D01*
X16301000Y-4461000D01*
X16261000Y-4501000D01*
X16301000Y-4541000D01*
X16301000Y-5441000D02*
X16341000Y-5401000D01*
X16301000Y-5361000D01*
X16261000Y-5401000D01*
X16301000Y-5441000D01*
X16301000Y-6341000D02*
X16341000Y-6301000D01*
X16301000Y-6261000D01*
X16261000Y-6301000D01*
X16301000Y-6341000D01*
X16301000Y-7241000D02*
X16341000Y-7201000D01*
X16301000Y-7161000D01*
X16261000Y-7201000D01*
X16301000Y-7241000D01*
X16301000Y-8141000D02*
X16341000Y-8101000D01*
X16301000Y-8061000D01*
X16261000Y-8101000D01*
X16301000Y-8141000D01*
X16301000Y-9041000D02*
X16341000Y-9001000D01*
X16301000Y-8961000D01*
X16261000Y-9001000D01*
X16301000Y-9041000D01*
X16426000Y-11425000D02*
X16466000Y-11385000D01*
X16426000Y-11345000D01*
X16386000Y-11385000D01*
X16426000Y-11425000D01*
X16426000Y-12441000D02*
X16466000Y-12401000D01*
X16426000Y-12361000D01*
X16386000Y-12401000D01*
X16426000Y-12441000D01*
X16526000Y-10041000D02*
X16566000Y-10001000D01*
X16526000Y-9961000D01*
X16486000Y-10001000D01*
X16526000Y-10041000D01*
X16526000Y-10241000D02*
X16566000Y-10201000D01*
X16526000Y-10161000D01*
X16486000Y-10201000D01*
X16526000Y-10241000D01*
X17063000Y-4541000D02*
X17103000Y-4501000D01*
X17063000Y-4461000D01*
X17023000Y-4501000D01*
X17063000Y-4541000D01*
X17063000Y-5441000D02*
X17103000Y-5401000D01*
X17063000Y-5361000D01*
X17023000Y-5401000D01*
X17063000Y-5441000D01*
X17063000Y-6341000D02*
X17103000Y-6301000D01*
X17063000Y-6261000D01*
X17023000Y-6301000D01*
X17063000Y-6341000D01*
X17063000Y-7241000D02*
X17103000Y-7201000D01*
X17063000Y-7161000D01*
X17023000Y-7201000D01*
X17063000Y-7241000D01*
X17063000Y-8141000D02*
X17103000Y-8101000D01*
X17063000Y-8061000D01*
X17023000Y-8101000D01*
X17063000Y-8141000D01*
X17063000Y-9041000D02*
X17103000Y-9001000D01*
X17063000Y-8961000D01*
X17023000Y-9001000D01*
X17063000Y-9041000D01*
X18426000Y-11425000D02*
X18466000Y-11385000D01*
X18426000Y-11345000D01*
X18386000Y-11385000D01*
X18426000Y-11425000D01*
X18426000Y-12441000D02*
X18466000Y-12401000D01*
X18426000Y-12361000D01*
X18386000Y-12401000D01*
X18426000Y-12441000D01*
X18526000Y-10041000D02*
X18566000Y-10001000D01*
X18526000Y-9961000D01*
X18486000Y-10001000D01*
X18526000Y-10041000D01*
X18526000Y-10241000D02*
X18566000Y-10201000D01*
X18526000Y-10161000D01*
X18486000Y-10201000D01*
X18526000Y-10241000D01*
X18601000Y-4441000D02*
X18641000Y-4401000D01*
X18601000Y-4361000D01*
X18561000Y-4401000D01*
X18601000Y-4441000D01*
X18601000Y-5203000D02*
X18641000Y-5163000D01*
X18601000Y-5123000D01*
X18561000Y-5163000D01*
X18601000Y-5203000D01*
X18601000Y-5841000D02*
X18641000Y-5801000D01*
X18601000Y-5761000D01*
X18561000Y-5801000D01*
X18601000Y-5841000D01*
X18601000Y-6603000D02*
X18641000Y-6563000D01*
X18601000Y-6523000D01*
X18561000Y-6563000D01*
X18601000Y-6603000D01*
X18601000Y-7241000D02*
X18641000Y-7201000D01*
X18601000Y-7161000D01*
X18561000Y-7201000D01*
X18601000Y-7241000D01*
X18601000Y-8003000D02*
X18641000Y-7963000D01*
X18601000Y-7923000D01*
X18561000Y-7963000D01*
X18601000Y-8003000D01*
X18601000Y-8641000D02*
X18641000Y-8601000D01*
X18601000Y-8561000D01*
X18561000Y-8601000D01*
X18601000Y-8641000D01*
X18601000Y-9403000D02*
X18641000Y-9363000D01*
X18601000Y-9323000D01*
X18561000Y-9363000D01*
X18601000Y-9403000D01*
D16*
X9250000Y-10356000D02*
X9350000Y-10456000D01*
X9350000Y-10356000D02*
X9250000Y-10456000D01*
X9350000Y-10406000D02*
G75*
G03*
X9350000Y-10406000I-50000J0D01*
G01*
X9250000Y-10610000D02*
X9350000Y-10710000D01*
X9350000Y-10610000D02*
X9250000Y-10710000D01*
X9350000Y-10660000D02*
G75*
G03*
X9350000Y-10660000I-50000J0D01*
G01*
X10937000Y-9277000D02*
X11037000Y-9377000D01*
X11037000Y-9277000D02*
X10937000Y-9377000D01*
X11037000Y-9327000D02*
G75*
G03*
X11037000Y-9327000I-50000J0D01*
G01*
X11150000Y-13675000D02*
X11250000Y-13775000D01*
X11250000Y-13675000D02*
X11150000Y-13775000D01*
X11250000Y-13725000D02*
G75*
G03*
X11250000Y-13725000I-50000J0D01*
G01*
X11191000Y-9277000D02*
X11291000Y-9377000D01*
X11291000Y-9277000D02*
X11191000Y-9377000D01*
X11291000Y-9327000D02*
G75*
G03*
X11291000Y-9327000I-50000J0D01*
G01*
X11445000Y-9277000D02*
X11545000Y-9377000D01*
X11545000Y-9277000D02*
X11445000Y-9377000D01*
X11545000Y-9327000D02*
G75*
G03*
X11545000Y-9327000I-50000J0D01*
G01*
X11699000Y-9277000D02*
X11799000Y-9377000D01*
X11799000Y-9277000D02*
X11699000Y-9377000D01*
X11799000Y-9327000D02*
G75*
G03*
X11799000Y-9327000I-50000J0D01*
G01*
X11851000Y-4451000D02*
X11951000Y-4551000D01*
X11951000Y-4451000D02*
X11851000Y-4551000D01*
X11951000Y-4501000D02*
G75*
G03*
X11951000Y-4501000I-50000J0D01*
G01*
X11953000Y-9277000D02*
X12053000Y-9377000D01*
X12053000Y-9277000D02*
X11953000Y-9377000D01*
X12053000Y-9327000D02*
G75*
G03*
X12053000Y-9327000I-50000J0D01*
G01*
X12105000Y-4451000D02*
X12205000Y-4551000D01*
X12205000Y-4451000D02*
X12105000Y-4551000D01*
X12205000Y-4501000D02*
G75*
G03*
X12205000Y-4501000I-50000J0D01*
G01*
X12207000Y-9277000D02*
X12307000Y-9377000D01*
X12307000Y-9277000D02*
X12207000Y-9377000D01*
X12307000Y-9327000D02*
G75*
G03*
X12307000Y-9327000I-50000J0D01*
G01*
X12359000Y-4451000D02*
X12459000Y-4551000D01*
X12459000Y-4451000D02*
X12359000Y-4551000D01*
X12459000Y-4501000D02*
G75*
G03*
X12459000Y-4501000I-50000J0D01*
G01*
X12461000Y-9277000D02*
X12561000Y-9377000D01*
X12561000Y-9277000D02*
X12461000Y-9377000D01*
X12561000Y-9327000D02*
G75*
G03*
X12561000Y-9327000I-50000J0D01*
G01*
X12613000Y-4451000D02*
X12713000Y-4551000D01*
X12713000Y-4451000D02*
X12613000Y-4551000D01*
X12713000Y-4501000D02*
G75*
G03*
X12713000Y-4501000I-50000J0D01*
G01*
X12715000Y-9277000D02*
X12815000Y-9377000D01*
X12815000Y-9277000D02*
X12715000Y-9377000D01*
X12815000Y-9327000D02*
G75*
G03*
X12815000Y-9327000I-50000J0D01*
G01*
X12867000Y-4451000D02*
X12967000Y-4551000D01*
X12967000Y-4451000D02*
X12867000Y-4551000D01*
X12967000Y-4501000D02*
G75*
G03*
X12967000Y-4501000I-50000J0D01*
G01*
X12969000Y-9277000D02*
X13069000Y-9377000D01*
X13069000Y-9277000D02*
X12969000Y-9377000D01*
X13069000Y-9327000D02*
G75*
G03*
X13069000Y-9327000I-50000J0D01*
G01*
X13121000Y-4451000D02*
X13221000Y-4551000D01*
X13221000Y-4451000D02*
X13121000Y-4551000D01*
X13221000Y-4501000D02*
G75*
G03*
X13221000Y-4501000I-50000J0D01*
G01*
X13151000Y-9951000D02*
X13251000Y-10051000D01*
X13251000Y-9951000D02*
X13151000Y-10051000D01*
X13251000Y-10001000D02*
G75*
G03*
X13251000Y-10001000I-50000J0D01*
G01*
X13223000Y-9277000D02*
X13323000Y-9377000D01*
X13323000Y-9277000D02*
X13223000Y-9377000D01*
X13323000Y-9327000D02*
G75*
G03*
X13323000Y-9327000I-50000J0D01*
G01*
X13350000Y-13675000D02*
X13450000Y-13775000D01*
X13450000Y-13675000D02*
X13350000Y-13775000D01*
X13450000Y-13725000D02*
G75*
G03*
X13450000Y-13725000I-50000J0D01*
G01*
X13375000Y-4451000D02*
X13475000Y-4551000D01*
X13475000Y-4451000D02*
X13375000Y-4551000D01*
X13475000Y-4501000D02*
G75*
G03*
X13475000Y-4501000I-50000J0D01*
G01*
X13405000Y-9951000D02*
X13505000Y-10051000D01*
X13505000Y-9951000D02*
X13405000Y-10051000D01*
X13505000Y-10001000D02*
G75*
G03*
X13505000Y-10001000I-50000J0D01*
G01*
X13629000Y-4451000D02*
X13729000Y-4551000D01*
X13729000Y-4451000D02*
X13629000Y-4551000D01*
X13729000Y-4501000D02*
G75*
G03*
X13729000Y-4501000I-50000J0D01*
G01*
X13629000Y-9277000D02*
X13729000Y-9377000D01*
X13729000Y-9277000D02*
X13629000Y-9377000D01*
X13729000Y-9327000D02*
G75*
G03*
X13729000Y-9327000I-50000J0D01*
G01*
X13659000Y-9951000D02*
X13759000Y-10051000D01*
X13759000Y-9951000D02*
X13659000Y-10051000D01*
X13759000Y-10001000D02*
G75*
G03*
X13759000Y-10001000I-50000J0D01*
G01*
X13883000Y-9277000D02*
X13983000Y-9377000D01*
X13983000Y-9277000D02*
X13883000Y-9377000D01*
X13983000Y-9327000D02*
G75*
G03*
X13983000Y-9327000I-50000J0D01*
G01*
X13913000Y-9951000D02*
X14013000Y-10051000D01*
X14013000Y-9951000D02*
X13913000Y-10051000D01*
X14013000Y-10001000D02*
G75*
G03*
X14013000Y-10001000I-50000J0D01*
G01*
X14137000Y-4451000D02*
X14237000Y-4551000D01*
X14237000Y-4451000D02*
X14137000Y-4551000D01*
X14237000Y-4501000D02*
G75*
G03*
X14237000Y-4501000I-50000J0D01*
G01*
X14137000Y-9277000D02*
X14237000Y-9377000D01*
X14237000Y-9277000D02*
X14137000Y-9377000D01*
X14237000Y-9327000D02*
G75*
G03*
X14237000Y-9327000I-50000J0D01*
G01*
X14391000Y-4451000D02*
X14491000Y-4551000D01*
X14491000Y-4451000D02*
X14391000Y-4551000D01*
X14491000Y-4501000D02*
G75*
G03*
X14491000Y-4501000I-50000J0D01*
G01*
X14391000Y-9277000D02*
X14491000Y-9377000D01*
X14491000Y-9277000D02*
X14391000Y-9377000D01*
X14491000Y-9327000D02*
G75*
G03*
X14491000Y-9327000I-50000J0D01*
G01*
X14645000Y-4451000D02*
X14745000Y-4551000D01*
X14745000Y-4451000D02*
X14645000Y-4551000D01*
X14745000Y-4501000D02*
G75*
G03*
X14745000Y-4501000I-50000J0D01*
G01*
X14645000Y-9277000D02*
X14745000Y-9377000D01*
X14745000Y-9277000D02*
X14645000Y-9377000D01*
X14745000Y-9327000D02*
G75*
G03*
X14745000Y-9327000I-50000J0D01*
G01*
X14899000Y-4451000D02*
X14999000Y-4551000D01*
X14999000Y-4451000D02*
X14899000Y-4551000D01*
X14999000Y-4501000D02*
G75*
G03*
X14999000Y-4501000I-50000J0D01*
G01*
X14899000Y-9277000D02*
X14999000Y-9377000D01*
X14999000Y-9277000D02*
X14899000Y-9377000D01*
X14999000Y-9327000D02*
G75*
G03*
X14999000Y-9327000I-50000J0D01*
G01*
X15153000Y-4451000D02*
X15253000Y-4551000D01*
X15253000Y-4451000D02*
X15153000Y-4551000D01*
X15253000Y-4501000D02*
G75*
G03*
X15253000Y-4501000I-50000J0D01*
G01*
X15153000Y-9277000D02*
X15253000Y-9377000D01*
X15253000Y-9277000D02*
X15153000Y-9377000D01*
X15253000Y-9327000D02*
G75*
G03*
X15253000Y-9327000I-50000J0D01*
G01*
X15407000Y-4451000D02*
X15507000Y-4551000D01*
X15507000Y-4451000D02*
X15407000Y-4551000D01*
X15507000Y-4501000D02*
G75*
G03*
X15507000Y-4501000I-50000J0D01*
G01*
X15407000Y-9277000D02*
X15507000Y-9377000D01*
X15507000Y-9277000D02*
X15407000Y-9377000D01*
X15507000Y-9327000D02*
G75*
G03*
X15507000Y-9327000I-50000J0D01*
G01*
X15650000Y-13675000D02*
X15750000Y-13775000D01*
X15750000Y-13675000D02*
X15650000Y-13775000D01*
X15750000Y-13725000D02*
G75*
G03*
X15750000Y-13725000I-50000J0D01*
G01*
X16450000Y-13675000D02*
X16550000Y-13775000D01*
X16550000Y-13675000D02*
X16450000Y-13775000D01*
X16550000Y-13725000D02*
G75*
G03*
X16550000Y-13725000I-50000J0D01*
G01*
X16850000Y-13675000D02*
X16950000Y-13775000D01*
X16950000Y-13675000D02*
X16850000Y-13775000D01*
X16950000Y-13725000D02*
G75*
G03*
X16950000Y-13725000I-50000J0D01*
G01*
X17150000Y-4850000D02*
X17250000Y-4950000D01*
X17250000Y-4850000D02*
X17150000Y-4950000D01*
X17250000Y-4900000D02*
G75*
G03*
X17250000Y-4900000I-50000J0D01*
G01*
X17150000Y-5750000D02*
X17250000Y-5850000D01*
X17250000Y-5750000D02*
X17150000Y-5850000D01*
X17250000Y-5800000D02*
G75*
G03*
X17250000Y-5800000I-50000J0D01*
G01*
X17150000Y-6650000D02*
X17250000Y-6750000D01*
X17250000Y-6650000D02*
X17150000Y-6750000D01*
X17250000Y-6700000D02*
G75*
G03*
X17250000Y-6700000I-50000J0D01*
G01*
X17150000Y-7550000D02*
X17250000Y-7650000D01*
X17250000Y-7550000D02*
X17150000Y-7650000D01*
X17250000Y-7600000D02*
G75*
G03*
X17250000Y-7600000I-50000J0D01*
G01*
X17150000Y-8450000D02*
X17250000Y-8550000D01*
X17250000Y-8450000D02*
X17150000Y-8550000D01*
X17250000Y-8500000D02*
G75*
G03*
X17250000Y-8500000I-50000J0D01*
G01*
X17150000Y-9350000D02*
X17250000Y-9450000D01*
X17250000Y-9350000D02*
X17150000Y-9450000D01*
X17250000Y-9400000D02*
G75*
G03*
X17250000Y-9400000I-50000J0D01*
G01*
X17250000Y-13675000D02*
X17350000Y-13775000D01*
X17350000Y-13675000D02*
X17250000Y-13775000D01*
X17350000Y-13725000D02*
G75*
G03*
X17350000Y-13725000I-50000J0D01*
G01*
X18150000Y-5350000D02*
X18250000Y-5450000D01*
X18250000Y-5350000D02*
X18150000Y-5450000D01*
X18250000Y-5400000D02*
G75*
G03*
X18250000Y-5400000I-50000J0D01*
G01*
X18150000Y-6750000D02*
X18250000Y-6850000D01*
X18250000Y-6750000D02*
X18150000Y-6850000D01*
X18250000Y-6800000D02*
G75*
G03*
X18250000Y-6800000I-50000J0D01*
G01*
X18150000Y-8150000D02*
X18250000Y-8250000D01*
X18250000Y-8150000D02*
X18150000Y-8250000D01*
X18250000Y-8200000D02*
G75*
G03*
X18250000Y-8200000I-50000J0D01*
G01*
X18150000Y-9550000D02*
X18250000Y-9650000D01*
X18250000Y-9550000D02*
X18150000Y-9650000D01*
X18250000Y-9600000D02*
G75*
G03*
X18250000Y-9600000I-50000J0D01*
G01*
D17*
X9646000Y-9846000D02*
X9756000Y-9956000D01*
X9756000Y-9846000D02*
X9646000Y-9956000D01*
X9701000Y-9846000D02*
X9701000Y-9956000D01*
X9646000Y-9901000D02*
X9756000Y-9901000D01*
X9646000Y-10608000D02*
X9756000Y-10718000D01*
X9756000Y-10608000D02*
X9646000Y-10718000D01*
X9701000Y-10608000D02*
X9701000Y-10718000D01*
X9646000Y-10663000D02*
X9756000Y-10663000D01*
X9737000Y-12745000D02*
X9847000Y-12855000D01*
X9847000Y-12745000D02*
X9737000Y-12855000D01*
X9792000Y-12745000D02*
X9792000Y-12855000D01*
X9737000Y-12800000D02*
X9847000Y-12800000D01*
X9991000Y-12745000D02*
X10101000Y-12855000D01*
X10101000Y-12745000D02*
X9991000Y-12855000D01*
X10046000Y-12745000D02*
X10046000Y-12855000D01*
X9991000Y-12800000D02*
X10101000Y-12800000D01*
X10245000Y-12745000D02*
X10355000Y-12855000D01*
X10355000Y-12745000D02*
X10245000Y-12855000D01*
X10300000Y-12745000D02*
X10300000Y-12855000D01*
X10245000Y-12800000D02*
X10355000Y-12800000D01*
X10945000Y-10045000D02*
X11055000Y-10155000D01*
X11055000Y-10045000D02*
X10945000Y-10155000D01*
X11000000Y-10045000D02*
X11000000Y-10155000D01*
X10945000Y-10100000D02*
X11055000Y-10100000D01*
X11037000Y-12745000D02*
X11147000Y-12855000D01*
X11147000Y-12745000D02*
X11037000Y-12855000D01*
X11092000Y-12745000D02*
X11092000Y-12855000D01*
X11037000Y-12800000D02*
X11147000Y-12800000D01*
X11199000Y-10045000D02*
X11309000Y-10155000D01*
X11309000Y-10045000D02*
X11199000Y-10155000D01*
X11254000Y-10045000D02*
X11254000Y-10155000D01*
X11199000Y-10100000D02*
X11309000Y-10100000D01*
X11291000Y-12745000D02*
X11401000Y-12855000D01*
X11401000Y-12745000D02*
X11291000Y-12855000D01*
X11346000Y-12745000D02*
X11346000Y-12855000D01*
X11291000Y-12800000D02*
X11401000Y-12800000D01*
X11453000Y-10045000D02*
X11563000Y-10155000D01*
X11563000Y-10045000D02*
X11453000Y-10155000D01*
X11508000Y-10045000D02*
X11508000Y-10155000D01*
X11453000Y-10100000D02*
X11563000Y-10100000D01*
X11545000Y-12745000D02*
X11655000Y-12855000D01*
X11655000Y-12745000D02*
X11545000Y-12855000D01*
X11600000Y-12745000D02*
X11600000Y-12855000D01*
X11545000Y-12800000D02*
X11655000Y-12800000D01*
X12337000Y-12745000D02*
X12447000Y-12855000D01*
X12447000Y-12745000D02*
X12337000Y-12855000D01*
X12392000Y-12745000D02*
X12392000Y-12855000D01*
X12337000Y-12800000D02*
X12447000Y-12800000D01*
X12591000Y-12745000D02*
X12701000Y-12855000D01*
X12701000Y-12745000D02*
X12591000Y-12855000D01*
X12646000Y-12745000D02*
X12646000Y-12855000D01*
X12591000Y-12800000D02*
X12701000Y-12800000D01*
X12845000Y-12745000D02*
X12955000Y-12855000D01*
X12955000Y-12745000D02*
X12845000Y-12855000D01*
X12900000Y-12745000D02*
X12900000Y-12855000D01*
X12845000Y-12800000D02*
X12955000Y-12800000D01*
X14037000Y-12745000D02*
X14147000Y-12855000D01*
X14147000Y-12745000D02*
X14037000Y-12855000D01*
X14092000Y-12745000D02*
X14092000Y-12855000D01*
X14037000Y-12800000D02*
X14147000Y-12800000D01*
X14291000Y-12745000D02*
X14401000Y-12855000D01*
X14401000Y-12745000D02*
X14291000Y-12855000D01*
X14346000Y-12745000D02*
X14346000Y-12855000D01*
X14291000Y-12800000D02*
X14401000Y-12800000D01*
X14545000Y-12745000D02*
X14655000Y-12855000D01*
X14655000Y-12745000D02*
X14545000Y-12855000D01*
X14600000Y-12745000D02*
X14600000Y-12855000D01*
X14545000Y-12800000D02*
X14655000Y-12800000D01*
X15737000Y-12745000D02*
X15847000Y-12855000D01*
X15847000Y-12745000D02*
X15737000Y-12855000D01*
X15792000Y-12745000D02*
X15792000Y-12855000D01*
X15737000Y-12800000D02*
X15847000Y-12800000D01*
X15991000Y-12745000D02*
X16101000Y-12855000D01*
X16101000Y-12745000D02*
X15991000Y-12855000D01*
X16046000Y-12745000D02*
X16046000Y-12855000D01*
X15991000Y-12800000D02*
X16101000Y-12800000D01*
X16245000Y-12745000D02*
X16355000Y-12855000D01*
X16355000Y-12745000D02*
X16245000Y-12855000D01*
X16300000Y-12745000D02*
X16300000Y-12855000D01*
X16245000Y-12800000D02*
X16355000Y-12800000D01*
X17747000Y-12745000D02*
X17857000Y-12855000D01*
X17857000Y-12745000D02*
X17747000Y-12855000D01*
X17802000Y-12745000D02*
X17802000Y-12855000D01*
X17747000Y-12800000D02*
X17857000Y-12800000D01*
X18001000Y-12745000D02*
X18111000Y-12855000D01*
X18111000Y-12745000D02*
X18001000Y-12855000D01*
X18056000Y-12745000D02*
X18056000Y-12855000D01*
X18001000Y-12800000D02*
X18111000Y-12800000D01*
X18255000Y-12745000D02*
X18365000Y-12855000D01*
X18365000Y-12745000D02*
X18255000Y-12855000D01*
X18310000Y-12745000D02*
X18310000Y-12855000D01*
X18255000Y-12800000D02*
X18365000Y-12800000D01*
D18*
X9625000Y-13666000D02*
X9745000Y-13786000D01*
X9745000Y-13666000D02*
X9625000Y-13786000D01*
X9727427Y-13768427D02*
X9727427Y-13683573D01*
X9642573Y-13683573D01*
X9642573Y-13768427D01*
X9727427Y-13768427D01*
X10641000Y-13666000D02*
X10761000Y-13786000D01*
X10761000Y-13666000D02*
X10641000Y-13786000D01*
X10743427Y-13768427D02*
X10743427Y-13683573D01*
X10658573Y-13683573D01*
X10658573Y-13768427D01*
X10743427Y-13768427D01*
X11925000Y-13666000D02*
X12045000Y-13786000D01*
X12045000Y-13666000D02*
X11925000Y-13786000D01*
X12027427Y-13768427D02*
X12027427Y-13683573D01*
X11942573Y-13683573D01*
X11942573Y-13768427D01*
X12027427Y-13768427D01*
X12941000Y-13666000D02*
X13061000Y-13786000D01*
X13061000Y-13666000D02*
X12941000Y-13786000D01*
X13043427Y-13768427D02*
X13043427Y-13683573D01*
X12958573Y-13683573D01*
X12958573Y-13768427D01*
X13043427Y-13768427D01*
X13541000Y-11425000D02*
X13661000Y-11545000D01*
X13661000Y-11425000D02*
X13541000Y-11545000D01*
X13643427Y-11527427D02*
X13643427Y-11442573D01*
X13558573Y-11442573D01*
X13558573Y-11527427D01*
X13643427Y-11527427D01*
X13541000Y-12441000D02*
X13661000Y-12561000D01*
X13661000Y-12441000D02*
X13541000Y-12561000D01*
X13643427Y-12543427D02*
X13643427Y-12458573D01*
X13558573Y-12458573D01*
X13558573Y-12543427D01*
X13643427Y-12543427D01*
X14124000Y-13665000D02*
X14244000Y-13785000D01*
X14244000Y-13665000D02*
X14124000Y-13785000D01*
X14226427Y-13767427D02*
X14226427Y-13682573D01*
X14141573Y-13682573D01*
X14141573Y-13767427D01*
X14226427Y-13767427D01*
X15140000Y-13665000D02*
X15260000Y-13785000D01*
X15260000Y-13665000D02*
X15140000Y-13785000D01*
X15242427Y-13767427D02*
X15242427Y-13682573D01*
X15157573Y-13682573D01*
X15157573Y-13767427D01*
X15242427Y-13767427D01*
X15241000Y-11425000D02*
X15361000Y-11545000D01*
X15361000Y-11425000D02*
X15241000Y-11545000D01*
X15343427Y-11527427D02*
X15343427Y-11442573D01*
X15258573Y-11442573D01*
X15258573Y-11527427D01*
X15343427Y-11527427D01*
X15241000Y-12441000D02*
X15361000Y-12561000D01*
X15361000Y-12441000D02*
X15241000Y-12561000D01*
X15343427Y-12543427D02*
X15343427Y-12458573D01*
X15258573Y-12458573D01*
X15258573Y-12543427D01*
X15343427Y-12543427D01*
X17241000Y-11425000D02*
X17361000Y-11545000D01*
X17361000Y-11425000D02*
X17241000Y-11545000D01*
X17343427Y-11527427D02*
X17343427Y-11442573D01*
X17258573Y-11442573D01*
X17258573Y-11527427D01*
X17343427Y-11527427D01*
X17241000Y-12441000D02*
X17361000Y-12561000D01*
X17361000Y-12441000D02*
X17241000Y-12561000D01*
X17343427Y-12543427D02*
X17343427Y-12458573D01*
X17258573Y-12458573D01*
X17258573Y-12543427D01*
X17343427Y-12543427D01*
X17640000Y-5724000D02*
X17760000Y-5844000D01*
X17760000Y-5724000D02*
X17640000Y-5844000D01*
X17742427Y-5826427D02*
X17742427Y-5741573D01*
X17657573Y-5741573D01*
X17657573Y-5826427D01*
X17742427Y-5826427D01*
X17640000Y-6740000D02*
X17760000Y-6860000D01*
X17760000Y-6740000D02*
X17640000Y-6860000D01*
X17742427Y-6842427D02*
X17742427Y-6757573D01*
X17657573Y-6757573D01*
X17657573Y-6842427D01*
X17742427Y-6842427D01*
X17640000Y-7124000D02*
X17760000Y-7244000D01*
X17760000Y-7124000D02*
X17640000Y-7244000D01*
X17742427Y-7226427D02*
X17742427Y-7141573D01*
X17657573Y-7141573D01*
X17657573Y-7226427D01*
X17742427Y-7226427D01*
X17640000Y-8140000D02*
X17760000Y-8260000D01*
X17760000Y-8140000D02*
X17640000Y-8260000D01*
X17742427Y-8242427D02*
X17742427Y-8157573D01*
X17657573Y-8157573D01*
X17657573Y-8242427D01*
X17742427Y-8242427D01*
X17640000Y-8524000D02*
X17760000Y-8644000D01*
X17760000Y-8524000D02*
X17640000Y-8644000D01*
X17742427Y-8626427D02*
X17742427Y-8541573D01*
X17657573Y-8541573D01*
X17657573Y-8626427D01*
X17742427Y-8626427D01*
X17640000Y-9540000D02*
X17760000Y-9660000D01*
X17760000Y-9540000D02*
X17640000Y-9660000D01*
X17742427Y-9642427D02*
X17742427Y-9557573D01*
X17657573Y-9557573D01*
X17657573Y-9642427D01*
X17742427Y-9642427D01*
X17641000Y-4325000D02*
X17761000Y-4445000D01*
X17761000Y-4325000D02*
X17641000Y-4445000D01*
X17743427Y-4427427D02*
X17743427Y-4342573D01*
X17658573Y-4342573D01*
X17658573Y-4427427D01*
X17743427Y-4427427D01*
X17641000Y-5341000D02*
X17761000Y-5461000D01*
X17761000Y-5341000D02*
X17641000Y-5461000D01*
X17743427Y-5443427D02*
X17743427Y-5358573D01*
X17658573Y-5358573D01*
X17658573Y-5443427D01*
X17743427Y-5443427D01*
D11*
X9156119Y-14413976D02*
X9156119Y-14213976D01*
X9203738Y-14213976D01*
X9232310Y-14223500D01*
X9251357Y-14242548D01*
X9260881Y-14261595D01*
X9270405Y-14299690D01*
X9270405Y-14328262D01*
X9260881Y-14366357D01*
X9251357Y-14385405D01*
X9232310Y-14404452D01*
X9203738Y-14413976D01*
X9156119Y-14413976D01*
X9356119Y-14413976D02*
X9356119Y-14280643D01*
X9356119Y-14318738D02*
X9365643Y-14299690D01*
X9375167Y-14290167D01*
X9394214Y-14280643D01*
X9413262Y-14280643D01*
X9479929Y-14413976D02*
X9479929Y-14280643D01*
X9479929Y-14213976D02*
X9470405Y-14223500D01*
X9479929Y-14233024D01*
X9489452Y-14223500D01*
X9479929Y-14213976D01*
X9479929Y-14233024D01*
X9603738Y-14413976D02*
X9584690Y-14404452D01*
X9575167Y-14385405D01*
X9575167Y-14213976D01*
X9708500Y-14413976D02*
X9689452Y-14404452D01*
X9679929Y-14385405D01*
X9679929Y-14213976D01*
X9937071Y-14413976D02*
X9937071Y-14213976D01*
X10003738Y-14356833D01*
X10070405Y-14213976D01*
X10070405Y-14413976D01*
X10251357Y-14413976D02*
X10251357Y-14309214D01*
X10241833Y-14290167D01*
X10222786Y-14280643D01*
X10184690Y-14280643D01*
X10165643Y-14290167D01*
X10251357Y-14404452D02*
X10232310Y-14413976D01*
X10184690Y-14413976D01*
X10165643Y-14404452D01*
X10156119Y-14385405D01*
X10156119Y-14366357D01*
X10165643Y-14347309D01*
X10184690Y-14337786D01*
X10232310Y-14337786D01*
X10251357Y-14328262D01*
X10346595Y-14280643D02*
X10346595Y-14480643D01*
X10346595Y-14290167D02*
X10365643Y-14280643D01*
X10403738Y-14280643D01*
X10422786Y-14290167D01*
X10432310Y-14299690D01*
X10441833Y-14318738D01*
X10441833Y-14375881D01*
X10432310Y-14394928D01*
X10422786Y-14404452D01*
X10403738Y-14413976D01*
X10365643Y-14413976D01*
X10346595Y-14404452D01*
X10527548Y-14394928D02*
X10537071Y-14404452D01*
X10527548Y-14413976D01*
X10518024Y-14404452D01*
X10527548Y-14394928D01*
X10527548Y-14413976D01*
X10527548Y-14290167D02*
X10537071Y-14299690D01*
X10527548Y-14309214D01*
X10518024Y-14299690D01*
X10527548Y-14290167D01*
X10527548Y-14309214D01*
D12*
X8858500Y-14723500D02*
X8898500Y-14763500D01*
X8898500Y-14723500D02*
X8858500Y-14763500D01*
D11*
X9194214Y-14633976D02*
X9213262Y-14633976D01*
X9232310Y-14643500D01*
X9241833Y-14653024D01*
X9251357Y-14672071D01*
X9260881Y-14710167D01*
X9260881Y-14757786D01*
X9251357Y-14795881D01*
X9241833Y-14814928D01*
X9232310Y-14824452D01*
X9213262Y-14833976D01*
X9194214Y-14833976D01*
X9175167Y-14824452D01*
X9165643Y-14814928D01*
X9156119Y-14795881D01*
X9146595Y-14757786D01*
X9146595Y-14710167D01*
X9156119Y-14672071D01*
X9165643Y-14653024D01*
X9175167Y-14643500D01*
X9194214Y-14633976D01*
X9346595Y-14814928D02*
X9356119Y-14824452D01*
X9346595Y-14833976D01*
X9337071Y-14824452D01*
X9346595Y-14814928D01*
X9346595Y-14833976D01*
X9527548Y-14700643D02*
X9527548Y-14833976D01*
X9479929Y-14624452D02*
X9432310Y-14767309D01*
X9556119Y-14767309D01*
X9670405Y-14633976D02*
X9689452Y-14633976D01*
X9708500Y-14643500D01*
X9718024Y-14653024D01*
X9727548Y-14672071D01*
X9737071Y-14710167D01*
X9737071Y-14757786D01*
X9727548Y-14795881D01*
X9718024Y-14814928D01*
X9708500Y-14824452D01*
X9689452Y-14833976D01*
X9670405Y-14833976D01*
X9651357Y-14824452D01*
X9641833Y-14814928D01*
X9632310Y-14795881D01*
X9622786Y-14757786D01*
X9622786Y-14710167D01*
X9632310Y-14672071D01*
X9641833Y-14653024D01*
X9651357Y-14643500D01*
X9670405Y-14633976D01*
X9860881Y-14633976D02*
X9879929Y-14633976D01*
X9898976Y-14643500D01*
X9908500Y-14653024D01*
X9918024Y-14672071D01*
X9927548Y-14710167D01*
X9927548Y-14757786D01*
X9918024Y-14795881D01*
X9908500Y-14814928D01*
X9898976Y-14824452D01*
X9879929Y-14833976D01*
X9860881Y-14833976D01*
X9841833Y-14824452D01*
X9832310Y-14814928D01*
X9822786Y-14795881D01*
X9813262Y-14757786D01*
X9813262Y-14710167D01*
X9822786Y-14672071D01*
X9832310Y-14653024D01*
X9841833Y-14643500D01*
X9860881Y-14633976D01*
X10013262Y-14833976D02*
X10013262Y-14700643D01*
X10013262Y-14719690D02*
X10022786Y-14710167D01*
X10041833Y-14700643D01*
X10070405Y-14700643D01*
X10089452Y-14710167D01*
X10098976Y-14729214D01*
X10098976Y-14833976D01*
X10098976Y-14729214D02*
X10108500Y-14710167D01*
X10127548Y-14700643D01*
X10156119Y-14700643D01*
X10175167Y-14710167D01*
X10184690Y-14729214D01*
X10184690Y-14833976D01*
X10279929Y-14833976D02*
X10279929Y-14700643D01*
X10279929Y-14719690D02*
X10289452Y-14710167D01*
X10308500Y-14700643D01*
X10337071Y-14700643D01*
X10356119Y-14710167D01*
X10365643Y-14729214D01*
X10365643Y-14833976D01*
X10365643Y-14729214D02*
X10375167Y-14710167D01*
X10394214Y-14700643D01*
X10422786Y-14700643D01*
X10441833Y-14710167D01*
X10451357Y-14729214D01*
X10451357Y-14833976D01*
X10841833Y-14624452D02*
X10670405Y-14881595D01*
X11098976Y-14633976D02*
X11118024Y-14633976D01*
X11137071Y-14643500D01*
X11146595Y-14653024D01*
X11156119Y-14672071D01*
X11165643Y-14710167D01*
X11165643Y-14757786D01*
X11156119Y-14795881D01*
X11146595Y-14814928D01*
X11137071Y-14824452D01*
X11118024Y-14833976D01*
X11098976Y-14833976D01*
X11079929Y-14824452D01*
X11070405Y-14814928D01*
X11060881Y-14795881D01*
X11051357Y-14757786D01*
X11051357Y-14710167D01*
X11060881Y-14672071D01*
X11070405Y-14653024D01*
X11079929Y-14643500D01*
X11098976Y-14633976D01*
X11251357Y-14814928D02*
X11260881Y-14824452D01*
X11251357Y-14833976D01*
X11241833Y-14824452D01*
X11251357Y-14814928D01*
X11251357Y-14833976D01*
X11384690Y-14633976D02*
X11403738Y-14633976D01*
X11422786Y-14643500D01*
X11432309Y-14653024D01*
X11441833Y-14672071D01*
X11451357Y-14710167D01*
X11451357Y-14757786D01*
X11441833Y-14795881D01*
X11432309Y-14814928D01*
X11422786Y-14824452D01*
X11403738Y-14833976D01*
X11384690Y-14833976D01*
X11365643Y-14824452D01*
X11356119Y-14814928D01*
X11346595Y-14795881D01*
X11337071Y-14757786D01*
X11337071Y-14710167D01*
X11346595Y-14672071D01*
X11356119Y-14653024D01*
X11365643Y-14643500D01*
X11384690Y-14633976D01*
X11641833Y-14833976D02*
X11527548Y-14833976D01*
X11584690Y-14833976D02*
X11584690Y-14633976D01*
X11565643Y-14662548D01*
X11546595Y-14681595D01*
X11527548Y-14691119D01*
X11822786Y-14633976D02*
X11727548Y-14633976D01*
X11718024Y-14729214D01*
X11727548Y-14719690D01*
X11746595Y-14710167D01*
X11794214Y-14710167D01*
X11813262Y-14719690D01*
X11822786Y-14729214D01*
X11832309Y-14748262D01*
X11832309Y-14795881D01*
X11822786Y-14814928D01*
X11813262Y-14824452D01*
X11794214Y-14833976D01*
X11746595Y-14833976D01*
X11727548Y-14824452D01*
X11718024Y-14814928D01*
X11898976Y-14633976D02*
X12032309Y-14633976D01*
X11946595Y-14833976D01*
X12098976Y-14633976D02*
X12098976Y-14672071D01*
X12175167Y-14633976D02*
X12175167Y-14672071D01*
X12470405Y-14910167D02*
X12460881Y-14900643D01*
X12441833Y-14872071D01*
X12432309Y-14853024D01*
X12422786Y-14824452D01*
X12413262Y-14776833D01*
X12413262Y-14738738D01*
X12422786Y-14691119D01*
X12432309Y-14662548D01*
X12441833Y-14643500D01*
X12460881Y-14614928D01*
X12470405Y-14605405D01*
X12575167Y-14719690D02*
X12556119Y-14710167D01*
X12546595Y-14700643D01*
X12537071Y-14681595D01*
X12537071Y-14672071D01*
X12546595Y-14653024D01*
X12556119Y-14643500D01*
X12575167Y-14633976D01*
X12613262Y-14633976D01*
X12632309Y-14643500D01*
X12641833Y-14653024D01*
X12651357Y-14672071D01*
X12651357Y-14681595D01*
X12641833Y-14700643D01*
X12632309Y-14710167D01*
X12613262Y-14719690D01*
X12575167Y-14719690D01*
X12556119Y-14729214D01*
X12546595Y-14738738D01*
X12537071Y-14757786D01*
X12537071Y-14795881D01*
X12546595Y-14814928D01*
X12556119Y-14824452D01*
X12575167Y-14833976D01*
X12613262Y-14833976D01*
X12632309Y-14824452D01*
X12641833Y-14814928D01*
X12651357Y-14795881D01*
X12651357Y-14757786D01*
X12641833Y-14738738D01*
X12632309Y-14729214D01*
X12613262Y-14719690D01*
X12727548Y-14653024D02*
X12737071Y-14643500D01*
X12756119Y-14633976D01*
X12803738Y-14633976D01*
X12822786Y-14643500D01*
X12832309Y-14653024D01*
X12841833Y-14672071D01*
X12841833Y-14691119D01*
X12832309Y-14719690D01*
X12718024Y-14833976D01*
X12841833Y-14833976D01*
X12965643Y-14633976D02*
X12984690Y-14633976D01*
X13003738Y-14643500D01*
X13013262Y-14653024D01*
X13022786Y-14672071D01*
X13032309Y-14710167D01*
X13032309Y-14757786D01*
X13022786Y-14795881D01*
X13013262Y-14814928D01*
X13003738Y-14824452D01*
X12984690Y-14833976D01*
X12965643Y-14833976D01*
X12946595Y-14824452D01*
X12937071Y-14814928D01*
X12927548Y-14795881D01*
X12918024Y-14757786D01*
X12918024Y-14710167D01*
X12927548Y-14672071D01*
X12937071Y-14653024D01*
X12946595Y-14643500D01*
X12965643Y-14633976D01*
X13270405Y-14833976D02*
X13270405Y-14633976D01*
X13356119Y-14833976D02*
X13356119Y-14729214D01*
X13346595Y-14710167D01*
X13327548Y-14700643D01*
X13298976Y-14700643D01*
X13279928Y-14710167D01*
X13270405Y-14719690D01*
X13479928Y-14833976D02*
X13460881Y-14824452D01*
X13451357Y-14814928D01*
X13441833Y-14795881D01*
X13441833Y-14738738D01*
X13451357Y-14719690D01*
X13460881Y-14710167D01*
X13479928Y-14700643D01*
X13508500Y-14700643D01*
X13527548Y-14710167D01*
X13537071Y-14719690D01*
X13546595Y-14738738D01*
X13546595Y-14795881D01*
X13537071Y-14814928D01*
X13527548Y-14824452D01*
X13508500Y-14833976D01*
X13479928Y-14833976D01*
X13660881Y-14833976D02*
X13641833Y-14824452D01*
X13632309Y-14805405D01*
X13632309Y-14633976D01*
X13813262Y-14824452D02*
X13794214Y-14833976D01*
X13756119Y-14833976D01*
X13737071Y-14824452D01*
X13727548Y-14805405D01*
X13727548Y-14729214D01*
X13737071Y-14710167D01*
X13756119Y-14700643D01*
X13794214Y-14700643D01*
X13813262Y-14710167D01*
X13822786Y-14729214D01*
X13822786Y-14748262D01*
X13727548Y-14767309D01*
X13898976Y-14824452D02*
X13918024Y-14833976D01*
X13956119Y-14833976D01*
X13975167Y-14824452D01*
X13984690Y-14805405D01*
X13984690Y-14795881D01*
X13975167Y-14776833D01*
X13956119Y-14767309D01*
X13927548Y-14767309D01*
X13908500Y-14757786D01*
X13898976Y-14738738D01*
X13898976Y-14729214D01*
X13908500Y-14710167D01*
X13927548Y-14700643D01*
X13956119Y-14700643D01*
X13975167Y-14710167D01*
X14051357Y-14910167D02*
X14060881Y-14900643D01*
X14079928Y-14872071D01*
X14089452Y-14853024D01*
X14098976Y-14824452D01*
X14108500Y-14776833D01*
X14108500Y-14738738D01*
X14098976Y-14691119D01*
X14089452Y-14662548D01*
X14079928Y-14643500D01*
X14060881Y-14614928D01*
X14051357Y-14605405D01*
D10*
X8898500Y-15007500D02*
G75*
G03*
X8898500Y-15007500I-25000J0D01*
G01*
D11*
X9194214Y-14897976D02*
X9213262Y-14897976D01*
X9232310Y-14907500D01*
X9241833Y-14917024D01*
X9251357Y-14936071D01*
X9260881Y-14974167D01*
X9260881Y-15021786D01*
X9251357Y-15059881D01*
X9241833Y-15078928D01*
X9232310Y-15088452D01*
X9213262Y-15097976D01*
X9194214Y-15097976D01*
X9175167Y-15088452D01*
X9165643Y-15078928D01*
X9156119Y-15059881D01*
X9146595Y-15021786D01*
X9146595Y-14974167D01*
X9156119Y-14936071D01*
X9165643Y-14917024D01*
X9175167Y-14907500D01*
X9194214Y-14897976D01*
X9346595Y-15078928D02*
X9356119Y-15088452D01*
X9346595Y-15097976D01*
X9337071Y-15088452D01*
X9346595Y-15078928D01*
X9346595Y-15097976D01*
X9537071Y-14897976D02*
X9441833Y-14897976D01*
X9432310Y-14993214D01*
X9441833Y-14983690D01*
X9460881Y-14974167D01*
X9508500Y-14974167D01*
X9527548Y-14983690D01*
X9537071Y-14993214D01*
X9546595Y-15012262D01*
X9546595Y-15059881D01*
X9537071Y-15078928D01*
X9527548Y-15088452D01*
X9508500Y-15097976D01*
X9460881Y-15097976D01*
X9441833Y-15088452D01*
X9432310Y-15078928D01*
X9670405Y-14897976D02*
X9689452Y-14897976D01*
X9708500Y-14907500D01*
X9718024Y-14917024D01*
X9727548Y-14936071D01*
X9737071Y-14974167D01*
X9737071Y-15021786D01*
X9727548Y-15059881D01*
X9718024Y-15078928D01*
X9708500Y-15088452D01*
X9689452Y-15097976D01*
X9670405Y-15097976D01*
X9651357Y-15088452D01*
X9641833Y-15078928D01*
X9632310Y-15059881D01*
X9622786Y-15021786D01*
X9622786Y-14974167D01*
X9632310Y-14936071D01*
X9641833Y-14917024D01*
X9651357Y-14907500D01*
X9670405Y-14897976D01*
X9860881Y-14897976D02*
X9879929Y-14897976D01*
X9898976Y-14907500D01*
X9908500Y-14917024D01*
X9918024Y-14936071D01*
X9927548Y-14974167D01*
X9927548Y-15021786D01*
X9918024Y-15059881D01*
X9908500Y-15078928D01*
X9898976Y-15088452D01*
X9879929Y-15097976D01*
X9860881Y-15097976D01*
X9841833Y-15088452D01*
X9832310Y-15078928D01*
X9822786Y-15059881D01*
X9813262Y-15021786D01*
X9813262Y-14974167D01*
X9822786Y-14936071D01*
X9832310Y-14917024D01*
X9841833Y-14907500D01*
X9860881Y-14897976D01*
X10013262Y-15097976D02*
X10013262Y-14964643D01*
X10013262Y-14983690D02*
X10022786Y-14974167D01*
X10041833Y-14964643D01*
X10070405Y-14964643D01*
X10089452Y-14974167D01*
X10098976Y-14993214D01*
X10098976Y-15097976D01*
X10098976Y-14993214D02*
X10108500Y-14974167D01*
X10127548Y-14964643D01*
X10156119Y-14964643D01*
X10175167Y-14974167D01*
X10184690Y-14993214D01*
X10184690Y-15097976D01*
X10279929Y-15097976D02*
X10279929Y-14964643D01*
X10279929Y-14983690D02*
X10289452Y-14974167D01*
X10308500Y-14964643D01*
X10337071Y-14964643D01*
X10356119Y-14974167D01*
X10365643Y-14993214D01*
X10365643Y-15097976D01*
X10365643Y-14993214D02*
X10375167Y-14974167D01*
X10394214Y-14964643D01*
X10422786Y-14964643D01*
X10441833Y-14974167D01*
X10451357Y-14993214D01*
X10451357Y-15097976D01*
X10841833Y-14888452D02*
X10670405Y-15145595D01*
X11098976Y-14897976D02*
X11118024Y-14897976D01*
X11137071Y-14907500D01*
X11146595Y-14917024D01*
X11156119Y-14936071D01*
X11165643Y-14974167D01*
X11165643Y-15021786D01*
X11156119Y-15059881D01*
X11146595Y-15078928D01*
X11137071Y-15088452D01*
X11118024Y-15097976D01*
X11098976Y-15097976D01*
X11079929Y-15088452D01*
X11070405Y-15078928D01*
X11060881Y-15059881D01*
X11051357Y-15021786D01*
X11051357Y-14974167D01*
X11060881Y-14936071D01*
X11070405Y-14917024D01*
X11079929Y-14907500D01*
X11098976Y-14897976D01*
X11251357Y-15078928D02*
X11260881Y-15088452D01*
X11251357Y-15097976D01*
X11241833Y-15088452D01*
X11251357Y-15078928D01*
X11251357Y-15097976D01*
X11384690Y-14897976D02*
X11403738Y-14897976D01*
X11422786Y-14907500D01*
X11432309Y-14917024D01*
X11441833Y-14936071D01*
X11451357Y-14974167D01*
X11451357Y-15021786D01*
X11441833Y-15059881D01*
X11432309Y-15078928D01*
X11422786Y-15088452D01*
X11403738Y-15097976D01*
X11384690Y-15097976D01*
X11365643Y-15088452D01*
X11356119Y-15078928D01*
X11346595Y-15059881D01*
X11337071Y-15021786D01*
X11337071Y-14974167D01*
X11346595Y-14936071D01*
X11356119Y-14917024D01*
X11365643Y-14907500D01*
X11384690Y-14897976D01*
X11641833Y-15097976D02*
X11527548Y-15097976D01*
X11584690Y-15097976D02*
X11584690Y-14897976D01*
X11565643Y-14926548D01*
X11546595Y-14945595D01*
X11527548Y-14955119D01*
X11737071Y-15097976D02*
X11775167Y-15097976D01*
X11794214Y-15088452D01*
X11803738Y-15078928D01*
X11822786Y-15050357D01*
X11832309Y-15012262D01*
X11832309Y-14936071D01*
X11822786Y-14917024D01*
X11813262Y-14907500D01*
X11794214Y-14897976D01*
X11756119Y-14897976D01*
X11737071Y-14907500D01*
X11727548Y-14917024D01*
X11718024Y-14936071D01*
X11718024Y-14983690D01*
X11727548Y-15002738D01*
X11737071Y-15012262D01*
X11756119Y-15021786D01*
X11794214Y-15021786D01*
X11813262Y-15012262D01*
X11822786Y-15002738D01*
X11832309Y-14983690D01*
X11898976Y-14897976D02*
X12032309Y-14897976D01*
X11946595Y-15097976D01*
X12098976Y-14897976D02*
X12098976Y-14936071D01*
X12175167Y-14897976D02*
X12175167Y-14936071D01*
X12470405Y-15174167D02*
X12460881Y-15164643D01*
X12441833Y-15136071D01*
X12432309Y-15117024D01*
X12422786Y-15088452D01*
X12413262Y-15040833D01*
X12413262Y-15002738D01*
X12422786Y-14955119D01*
X12432309Y-14926548D01*
X12441833Y-14907500D01*
X12460881Y-14878928D01*
X12470405Y-14869405D01*
X12651357Y-15097976D02*
X12537071Y-15097976D01*
X12594214Y-15097976D02*
X12594214Y-14897976D01*
X12575167Y-14926548D01*
X12556119Y-14945595D01*
X12537071Y-14955119D01*
X12822786Y-14897976D02*
X12784690Y-14897976D01*
X12765643Y-14907500D01*
X12756119Y-14917024D01*
X12737071Y-14945595D01*
X12727548Y-14983690D01*
X12727548Y-15059881D01*
X12737071Y-15078928D01*
X12746595Y-15088452D01*
X12765643Y-15097976D01*
X12803738Y-15097976D01*
X12822786Y-15088452D01*
X12832309Y-15078928D01*
X12841833Y-15059881D01*
X12841833Y-15012262D01*
X12832309Y-14993214D01*
X12822786Y-14983690D01*
X12803738Y-14974167D01*
X12765643Y-14974167D01*
X12746595Y-14983690D01*
X12737071Y-14993214D01*
X12727548Y-15012262D01*
X13079928Y-15097976D02*
X13079928Y-14897976D01*
X13165643Y-15097976D02*
X13165643Y-14993214D01*
X13156119Y-14974167D01*
X13137071Y-14964643D01*
X13108500Y-14964643D01*
X13089452Y-14974167D01*
X13079928Y-14983690D01*
X13289452Y-15097976D02*
X13270405Y-15088452D01*
X13260881Y-15078928D01*
X13251357Y-15059881D01*
X13251357Y-15002738D01*
X13260881Y-14983690D01*
X13270405Y-14974167D01*
X13289452Y-14964643D01*
X13318024Y-14964643D01*
X13337071Y-14974167D01*
X13346595Y-14983690D01*
X13356119Y-15002738D01*
X13356119Y-15059881D01*
X13346595Y-15078928D01*
X13337071Y-15088452D01*
X13318024Y-15097976D01*
X13289452Y-15097976D01*
X13470405Y-15097976D02*
X13451357Y-15088452D01*
X13441833Y-15069405D01*
X13441833Y-14897976D01*
X13622786Y-15088452D02*
X13603738Y-15097976D01*
X13565643Y-15097976D01*
X13546595Y-15088452D01*
X13537071Y-15069405D01*
X13537071Y-14993214D01*
X13546595Y-14974167D01*
X13565643Y-14964643D01*
X13603738Y-14964643D01*
X13622786Y-14974167D01*
X13632309Y-14993214D01*
X13632309Y-15012262D01*
X13537071Y-15031309D01*
X13708500Y-15088452D02*
X13727548Y-15097976D01*
X13765643Y-15097976D01*
X13784690Y-15088452D01*
X13794214Y-15069405D01*
X13794214Y-15059881D01*
X13784690Y-15040833D01*
X13765643Y-15031309D01*
X13737071Y-15031309D01*
X13718024Y-15021786D01*
X13708500Y-15002738D01*
X13708500Y-14993214D01*
X13718024Y-14974167D01*
X13737071Y-14964643D01*
X13765643Y-14964643D01*
X13784690Y-14974167D01*
X13860881Y-15174167D02*
X13870405Y-15164643D01*
X13889452Y-15136071D01*
X13898976Y-15117024D01*
X13908500Y-15088452D01*
X13918024Y-15040833D01*
X13918024Y-15002738D01*
X13908500Y-14955119D01*
X13898976Y-14926548D01*
X13889452Y-14907500D01*
X13870405Y-14878928D01*
X13860881Y-14869405D01*
D13*
X8863500Y-15236500D02*
X8863500Y-15306500D01*
X8828500Y-15271500D02*
X8898500Y-15271500D01*
D11*
X9194214Y-15161976D02*
X9213262Y-15161976D01*
X9232310Y-15171500D01*
X9241833Y-15181024D01*
X9251357Y-15200071D01*
X9260881Y-15238167D01*
X9260881Y-15285786D01*
X9251357Y-15323881D01*
X9241833Y-15342928D01*
X9232310Y-15352452D01*
X9213262Y-15361976D01*
X9194214Y-15361976D01*
X9175167Y-15352452D01*
X9165643Y-15342928D01*
X9156119Y-15323881D01*
X9146595Y-15285786D01*
X9146595Y-15238167D01*
X9156119Y-15200071D01*
X9165643Y-15181024D01*
X9175167Y-15171500D01*
X9194214Y-15161976D01*
X9346595Y-15342928D02*
X9356119Y-15352452D01*
X9346595Y-15361976D01*
X9337071Y-15352452D01*
X9346595Y-15342928D01*
X9346595Y-15361976D01*
X9422786Y-15161976D02*
X9556119Y-15161976D01*
X9470405Y-15361976D01*
X9670405Y-15161976D02*
X9689452Y-15161976D01*
X9708500Y-15171500D01*
X9718024Y-15181024D01*
X9727548Y-15200071D01*
X9737071Y-15238167D01*
X9737071Y-15285786D01*
X9727548Y-15323881D01*
X9718024Y-15342928D01*
X9708500Y-15352452D01*
X9689452Y-15361976D01*
X9670405Y-15361976D01*
X9651357Y-15352452D01*
X9641833Y-15342928D01*
X9632310Y-15323881D01*
X9622786Y-15285786D01*
X9622786Y-15238167D01*
X9632310Y-15200071D01*
X9641833Y-15181024D01*
X9651357Y-15171500D01*
X9670405Y-15161976D01*
X9860881Y-15161976D02*
X9879929Y-15161976D01*
X9898976Y-15171500D01*
X9908500Y-15181024D01*
X9918024Y-15200071D01*
X9927548Y-15238167D01*
X9927548Y-15285786D01*
X9918024Y-15323881D01*
X9908500Y-15342928D01*
X9898976Y-15352452D01*
X9879929Y-15361976D01*
X9860881Y-15361976D01*
X9841833Y-15352452D01*
X9832310Y-15342928D01*
X9822786Y-15323881D01*
X9813262Y-15285786D01*
X9813262Y-15238167D01*
X9822786Y-15200071D01*
X9832310Y-15181024D01*
X9841833Y-15171500D01*
X9860881Y-15161976D01*
X10013262Y-15361976D02*
X10013262Y-15228643D01*
X10013262Y-15247690D02*
X10022786Y-15238167D01*
X10041833Y-15228643D01*
X10070405Y-15228643D01*
X10089452Y-15238167D01*
X10098976Y-15257214D01*
X10098976Y-15361976D01*
X10098976Y-15257214D02*
X10108500Y-15238167D01*
X10127548Y-15228643D01*
X10156119Y-15228643D01*
X10175167Y-15238167D01*
X10184690Y-15257214D01*
X10184690Y-15361976D01*
X10279929Y-15361976D02*
X10279929Y-15228643D01*
X10279929Y-15247690D02*
X10289452Y-15238167D01*
X10308500Y-15228643D01*
X10337071Y-15228643D01*
X10356119Y-15238167D01*
X10365643Y-15257214D01*
X10365643Y-15361976D01*
X10365643Y-15257214D02*
X10375167Y-15238167D01*
X10394214Y-15228643D01*
X10422786Y-15228643D01*
X10441833Y-15238167D01*
X10451357Y-15257214D01*
X10451357Y-15361976D01*
X10841833Y-15152452D02*
X10670405Y-15409595D01*
X11098976Y-15161976D02*
X11118024Y-15161976D01*
X11137071Y-15171500D01*
X11146595Y-15181024D01*
X11156119Y-15200071D01*
X11165643Y-15238167D01*
X11165643Y-15285786D01*
X11156119Y-15323881D01*
X11146595Y-15342928D01*
X11137071Y-15352452D01*
X11118024Y-15361976D01*
X11098976Y-15361976D01*
X11079929Y-15352452D01*
X11070405Y-15342928D01*
X11060881Y-15323881D01*
X11051357Y-15285786D01*
X11051357Y-15238167D01*
X11060881Y-15200071D01*
X11070405Y-15181024D01*
X11079929Y-15171500D01*
X11098976Y-15161976D01*
X11251357Y-15342928D02*
X11260881Y-15352452D01*
X11251357Y-15361976D01*
X11241833Y-15352452D01*
X11251357Y-15342928D01*
X11251357Y-15361976D01*
X11384690Y-15161976D02*
X11403738Y-15161976D01*
X11422786Y-15171500D01*
X11432309Y-15181024D01*
X11441833Y-15200071D01*
X11451357Y-15238167D01*
X11451357Y-15285786D01*
X11441833Y-15323881D01*
X11432309Y-15342928D01*
X11422786Y-15352452D01*
X11403738Y-15361976D01*
X11384690Y-15361976D01*
X11365643Y-15352452D01*
X11356119Y-15342928D01*
X11346595Y-15323881D01*
X11337071Y-15285786D01*
X11337071Y-15238167D01*
X11346595Y-15200071D01*
X11356119Y-15181024D01*
X11365643Y-15171500D01*
X11384690Y-15161976D01*
X11527548Y-15181024D02*
X11537071Y-15171500D01*
X11556119Y-15161976D01*
X11603738Y-15161976D01*
X11622786Y-15171500D01*
X11632309Y-15181024D01*
X11641833Y-15200071D01*
X11641833Y-15219119D01*
X11632309Y-15247690D01*
X11518024Y-15361976D01*
X11641833Y-15361976D01*
X11708500Y-15161976D02*
X11841833Y-15161976D01*
X11756119Y-15361976D01*
X12003738Y-15161976D02*
X11965643Y-15161976D01*
X11946595Y-15171500D01*
X11937071Y-15181024D01*
X11918024Y-15209595D01*
X11908500Y-15247690D01*
X11908500Y-15323881D01*
X11918024Y-15342928D01*
X11927548Y-15352452D01*
X11946595Y-15361976D01*
X11984690Y-15361976D01*
X12003738Y-15352452D01*
X12013262Y-15342928D01*
X12022786Y-15323881D01*
X12022786Y-15276262D01*
X12013262Y-15257214D01*
X12003738Y-15247690D01*
X11984690Y-15238167D01*
X11946595Y-15238167D01*
X11927548Y-15247690D01*
X11918024Y-15257214D01*
X11908500Y-15276262D01*
X12098976Y-15161976D02*
X12098976Y-15200071D01*
X12175167Y-15161976D02*
X12175167Y-15200071D01*
X12470405Y-15438167D02*
X12460881Y-15428643D01*
X12441833Y-15400071D01*
X12432309Y-15381024D01*
X12422786Y-15352452D01*
X12413262Y-15304833D01*
X12413262Y-15266738D01*
X12422786Y-15219119D01*
X12432309Y-15190548D01*
X12441833Y-15171500D01*
X12460881Y-15142928D01*
X12470405Y-15133405D01*
X12527548Y-15161976D02*
X12660881Y-15161976D01*
X12575167Y-15361976D01*
X12822786Y-15161976D02*
X12784690Y-15161976D01*
X12765643Y-15171500D01*
X12756119Y-15181024D01*
X12737071Y-15209595D01*
X12727548Y-15247690D01*
X12727548Y-15323881D01*
X12737071Y-15342928D01*
X12746595Y-15352452D01*
X12765643Y-15361976D01*
X12803738Y-15361976D01*
X12822786Y-15352452D01*
X12832309Y-15342928D01*
X12841833Y-15323881D01*
X12841833Y-15276262D01*
X12832309Y-15257214D01*
X12822786Y-15247690D01*
X12803738Y-15238167D01*
X12765643Y-15238167D01*
X12746595Y-15247690D01*
X12737071Y-15257214D01*
X12727548Y-15276262D01*
X13079928Y-15361976D02*
X13079928Y-15161976D01*
X13165643Y-15361976D02*
X13165643Y-15257214D01*
X13156119Y-15238167D01*
X13137071Y-15228643D01*
X13108500Y-15228643D01*
X13089452Y-15238167D01*
X13079928Y-15247690D01*
X13289452Y-15361976D02*
X13270405Y-15352452D01*
X13260881Y-15342928D01*
X13251357Y-15323881D01*
X13251357Y-15266738D01*
X13260881Y-15247690D01*
X13270405Y-15238167D01*
X13289452Y-15228643D01*
X13318024Y-15228643D01*
X13337071Y-15238167D01*
X13346595Y-15247690D01*
X13356119Y-15266738D01*
X13356119Y-15323881D01*
X13346595Y-15342928D01*
X13337071Y-15352452D01*
X13318024Y-15361976D01*
X13289452Y-15361976D01*
X13470405Y-15361976D02*
X13451357Y-15352452D01*
X13441833Y-15333405D01*
X13441833Y-15161976D01*
X13622786Y-15352452D02*
X13603738Y-15361976D01*
X13565643Y-15361976D01*
X13546595Y-15352452D01*
X13537071Y-15333405D01*
X13537071Y-15257214D01*
X13546595Y-15238167D01*
X13565643Y-15228643D01*
X13603738Y-15228643D01*
X13622786Y-15238167D01*
X13632309Y-15257214D01*
X13632309Y-15276262D01*
X13537071Y-15295309D01*
X13708500Y-15352452D02*
X13727548Y-15361976D01*
X13765643Y-15361976D01*
X13784690Y-15352452D01*
X13794214Y-15333405D01*
X13794214Y-15323881D01*
X13784690Y-15304833D01*
X13765643Y-15295309D01*
X13737071Y-15295309D01*
X13718024Y-15285786D01*
X13708500Y-15266738D01*
X13708500Y-15257214D01*
X13718024Y-15238167D01*
X13737071Y-15228643D01*
X13765643Y-15228643D01*
X13784690Y-15238167D01*
X13860881Y-15438167D02*
X13870405Y-15428643D01*
X13889452Y-15400071D01*
X13898976Y-15381024D01*
X13908500Y-15352452D01*
X13918024Y-15304833D01*
X13918024Y-15266738D01*
X13908500Y-15219119D01*
X13898976Y-15190548D01*
X13889452Y-15171500D01*
X13870405Y-15142928D01*
X13860881Y-15133405D01*
D14*
X8887517Y-15562017D02*
X8887517Y-15508983D01*
X8834483Y-15508983D01*
X8834483Y-15562017D01*
X8887517Y-15562017D01*
D11*
X9194214Y-15425976D02*
X9213262Y-15425976D01*
X9232310Y-15435500D01*
X9241833Y-15445024D01*
X9251357Y-15464071D01*
X9260881Y-15502167D01*
X9260881Y-15549786D01*
X9251357Y-15587881D01*
X9241833Y-15606928D01*
X9232310Y-15616452D01*
X9213262Y-15625976D01*
X9194214Y-15625976D01*
X9175167Y-15616452D01*
X9165643Y-15606928D01*
X9156119Y-15587881D01*
X9146595Y-15549786D01*
X9146595Y-15502167D01*
X9156119Y-15464071D01*
X9165643Y-15445024D01*
X9175167Y-15435500D01*
X9194214Y-15425976D01*
X9346595Y-15606928D02*
X9356119Y-15616452D01*
X9346595Y-15625976D01*
X9337071Y-15616452D01*
X9346595Y-15606928D01*
X9346595Y-15625976D01*
X9422786Y-15425976D02*
X9556119Y-15425976D01*
X9470405Y-15625976D01*
X9727548Y-15425976D02*
X9632310Y-15425976D01*
X9622786Y-15521214D01*
X9632310Y-15511690D01*
X9651357Y-15502167D01*
X9698976Y-15502167D01*
X9718024Y-15511690D01*
X9727548Y-15521214D01*
X9737071Y-15540262D01*
X9737071Y-15587881D01*
X9727548Y-15606928D01*
X9718024Y-15616452D01*
X9698976Y-15625976D01*
X9651357Y-15625976D01*
X9632310Y-15616452D01*
X9622786Y-15606928D01*
X9860881Y-15425976D02*
X9879929Y-15425976D01*
X9898976Y-15435500D01*
X9908500Y-15445024D01*
X9918024Y-15464071D01*
X9927548Y-15502167D01*
X9927548Y-15549786D01*
X9918024Y-15587881D01*
X9908500Y-15606928D01*
X9898976Y-15616452D01*
X9879929Y-15625976D01*
X9860881Y-15625976D01*
X9841833Y-15616452D01*
X9832310Y-15606928D01*
X9822786Y-15587881D01*
X9813262Y-15549786D01*
X9813262Y-15502167D01*
X9822786Y-15464071D01*
X9832310Y-15445024D01*
X9841833Y-15435500D01*
X9860881Y-15425976D01*
X10013262Y-15625976D02*
X10013262Y-15492643D01*
X10013262Y-15511690D02*
X10022786Y-15502167D01*
X10041833Y-15492643D01*
X10070405Y-15492643D01*
X10089452Y-15502167D01*
X10098976Y-15521214D01*
X10098976Y-15625976D01*
X10098976Y-15521214D02*
X10108500Y-15502167D01*
X10127548Y-15492643D01*
X10156119Y-15492643D01*
X10175167Y-15502167D01*
X10184690Y-15521214D01*
X10184690Y-15625976D01*
X10279929Y-15625976D02*
X10279929Y-15492643D01*
X10279929Y-15511690D02*
X10289452Y-15502167D01*
X10308500Y-15492643D01*
X10337071Y-15492643D01*
X10356119Y-15502167D01*
X10365643Y-15521214D01*
X10365643Y-15625976D01*
X10365643Y-15521214D02*
X10375167Y-15502167D01*
X10394214Y-15492643D01*
X10422786Y-15492643D01*
X10441833Y-15502167D01*
X10451357Y-15521214D01*
X10451357Y-15625976D01*
X10841833Y-15416452D02*
X10670405Y-15673595D01*
X11098976Y-15425976D02*
X11118024Y-15425976D01*
X11137071Y-15435500D01*
X11146595Y-15445024D01*
X11156119Y-15464071D01*
X11165643Y-15502167D01*
X11165643Y-15549786D01*
X11156119Y-15587881D01*
X11146595Y-15606928D01*
X11137071Y-15616452D01*
X11118024Y-15625976D01*
X11098976Y-15625976D01*
X11079929Y-15616452D01*
X11070405Y-15606928D01*
X11060881Y-15587881D01*
X11051357Y-15549786D01*
X11051357Y-15502167D01*
X11060881Y-15464071D01*
X11070405Y-15445024D01*
X11079929Y-15435500D01*
X11098976Y-15425976D01*
X11251357Y-15606928D02*
X11260881Y-15616452D01*
X11251357Y-15625976D01*
X11241833Y-15616452D01*
X11251357Y-15606928D01*
X11251357Y-15625976D01*
X11384690Y-15425976D02*
X11403738Y-15425976D01*
X11422786Y-15435500D01*
X11432309Y-15445024D01*
X11441833Y-15464071D01*
X11451357Y-15502167D01*
X11451357Y-15549786D01*
X11441833Y-15587881D01*
X11432309Y-15606928D01*
X11422786Y-15616452D01*
X11403738Y-15625976D01*
X11384690Y-15625976D01*
X11365643Y-15616452D01*
X11356119Y-15606928D01*
X11346595Y-15587881D01*
X11337071Y-15549786D01*
X11337071Y-15502167D01*
X11346595Y-15464071D01*
X11356119Y-15445024D01*
X11365643Y-15435500D01*
X11384690Y-15425976D01*
X11527548Y-15445024D02*
X11537071Y-15435500D01*
X11556119Y-15425976D01*
X11603738Y-15425976D01*
X11622786Y-15435500D01*
X11632309Y-15445024D01*
X11641833Y-15464071D01*
X11641833Y-15483119D01*
X11632309Y-15511690D01*
X11518024Y-15625976D01*
X11641833Y-15625976D01*
X11737071Y-15625976D02*
X11775167Y-15625976D01*
X11794214Y-15616452D01*
X11803738Y-15606928D01*
X11822786Y-15578357D01*
X11832309Y-15540262D01*
X11832309Y-15464071D01*
X11822786Y-15445024D01*
X11813262Y-15435500D01*
X11794214Y-15425976D01*
X11756119Y-15425976D01*
X11737071Y-15435500D01*
X11727548Y-15445024D01*
X11718024Y-15464071D01*
X11718024Y-15511690D01*
X11727548Y-15530738D01*
X11737071Y-15540262D01*
X11756119Y-15549786D01*
X11794214Y-15549786D01*
X11813262Y-15540262D01*
X11822786Y-15530738D01*
X11832309Y-15511690D01*
X12013262Y-15425976D02*
X11918024Y-15425976D01*
X11908500Y-15521214D01*
X11918024Y-15511690D01*
X11937071Y-15502167D01*
X11984690Y-15502167D01*
X12003738Y-15511690D01*
X12013262Y-15521214D01*
X12022786Y-15540262D01*
X12022786Y-15587881D01*
X12013262Y-15606928D01*
X12003738Y-15616452D01*
X11984690Y-15625976D01*
X11937071Y-15625976D01*
X11918024Y-15616452D01*
X11908500Y-15606928D01*
X12098976Y-15425976D02*
X12098976Y-15464071D01*
X12175167Y-15425976D02*
X12175167Y-15464071D01*
X12470405Y-15702167D02*
X12460881Y-15692643D01*
X12441833Y-15664071D01*
X12432309Y-15645024D01*
X12422786Y-15616452D01*
X12413262Y-15568833D01*
X12413262Y-15530738D01*
X12422786Y-15483119D01*
X12432309Y-15454548D01*
X12441833Y-15435500D01*
X12460881Y-15406928D01*
X12470405Y-15397405D01*
X12651357Y-15625976D02*
X12537071Y-15625976D01*
X12594214Y-15625976D02*
X12594214Y-15425976D01*
X12575167Y-15454548D01*
X12556119Y-15473595D01*
X12537071Y-15483119D01*
X12765643Y-15511690D02*
X12746595Y-15502167D01*
X12737071Y-15492643D01*
X12727548Y-15473595D01*
X12727548Y-15464071D01*
X12737071Y-15445024D01*
X12746595Y-15435500D01*
X12765643Y-15425976D01*
X12803738Y-15425976D01*
X12822786Y-15435500D01*
X12832309Y-15445024D01*
X12841833Y-15464071D01*
X12841833Y-15473595D01*
X12832309Y-15492643D01*
X12822786Y-15502167D01*
X12803738Y-15511690D01*
X12765643Y-15511690D01*
X12746595Y-15521214D01*
X12737071Y-15530738D01*
X12727548Y-15549786D01*
X12727548Y-15587881D01*
X12737071Y-15606928D01*
X12746595Y-15616452D01*
X12765643Y-15625976D01*
X12803738Y-15625976D01*
X12822786Y-15616452D01*
X12832309Y-15606928D01*
X12841833Y-15587881D01*
X12841833Y-15549786D01*
X12832309Y-15530738D01*
X12822786Y-15521214D01*
X12803738Y-15511690D01*
X13079928Y-15625976D02*
X13079928Y-15425976D01*
X13165643Y-15625976D02*
X13165643Y-15521214D01*
X13156119Y-15502167D01*
X13137071Y-15492643D01*
X13108500Y-15492643D01*
X13089452Y-15502167D01*
X13079928Y-15511690D01*
X13289452Y-15625976D02*
X13270405Y-15616452D01*
X13260881Y-15606928D01*
X13251357Y-15587881D01*
X13251357Y-15530738D01*
X13260881Y-15511690D01*
X13270405Y-15502167D01*
X13289452Y-15492643D01*
X13318024Y-15492643D01*
X13337071Y-15502167D01*
X13346595Y-15511690D01*
X13356119Y-15530738D01*
X13356119Y-15587881D01*
X13346595Y-15606928D01*
X13337071Y-15616452D01*
X13318024Y-15625976D01*
X13289452Y-15625976D01*
X13470405Y-15625976D02*
X13451357Y-15616452D01*
X13441833Y-15597405D01*
X13441833Y-15425976D01*
X13622786Y-15616452D02*
X13603738Y-15625976D01*
X13565643Y-15625976D01*
X13546595Y-15616452D01*
X13537071Y-15597405D01*
X13537071Y-15521214D01*
X13546595Y-15502167D01*
X13565643Y-15492643D01*
X13603738Y-15492643D01*
X13622786Y-15502167D01*
X13632309Y-15521214D01*
X13632309Y-15540262D01*
X13537071Y-15559309D01*
X13708500Y-15616452D02*
X13727548Y-15625976D01*
X13765643Y-15625976D01*
X13784690Y-15616452D01*
X13794214Y-15597405D01*
X13794214Y-15587881D01*
X13784690Y-15568833D01*
X13765643Y-15559309D01*
X13737071Y-15559309D01*
X13718024Y-15549786D01*
X13708500Y-15530738D01*
X13708500Y-15521214D01*
X13718024Y-15502167D01*
X13737071Y-15492643D01*
X13765643Y-15492643D01*
X13784690Y-15502167D01*
X13860881Y-15702167D02*
X13870405Y-15692643D01*
X13889452Y-15664071D01*
X13898976Y-15645024D01*
X13908500Y-15616452D01*
X13918024Y-15568833D01*
X13918024Y-15530738D01*
X13908500Y-15483119D01*
X13898976Y-15454548D01*
X13889452Y-15435500D01*
X13870405Y-15406928D01*
X13860881Y-15397405D01*
D15*
X8858500Y-15839500D02*
X8898500Y-15799500D01*
X8858500Y-15759500D01*
X8818500Y-15799500D01*
X8858500Y-15839500D01*
D11*
X9194214Y-15689976D02*
X9213262Y-15689976D01*
X9232310Y-15699500D01*
X9241833Y-15709024D01*
X9251357Y-15728071D01*
X9260881Y-15766167D01*
X9260881Y-15813786D01*
X9251357Y-15851881D01*
X9241833Y-15870928D01*
X9232310Y-15880452D01*
X9213262Y-15889976D01*
X9194214Y-15889976D01*
X9175167Y-15880452D01*
X9165643Y-15870928D01*
X9156119Y-15851881D01*
X9146595Y-15813786D01*
X9146595Y-15766167D01*
X9156119Y-15728071D01*
X9165643Y-15709024D01*
X9175167Y-15699500D01*
X9194214Y-15689976D01*
X9346595Y-15870928D02*
X9356119Y-15880452D01*
X9346595Y-15889976D01*
X9337071Y-15880452D01*
X9346595Y-15870928D01*
X9346595Y-15889976D01*
X9470405Y-15775690D02*
X9451357Y-15766167D01*
X9441833Y-15756643D01*
X9432310Y-15737595D01*
X9432310Y-15728071D01*
X9441833Y-15709024D01*
X9451357Y-15699500D01*
X9470405Y-15689976D01*
X9508500Y-15689976D01*
X9527548Y-15699500D01*
X9537071Y-15709024D01*
X9546595Y-15728071D01*
X9546595Y-15737595D01*
X9537071Y-15756643D01*
X9527548Y-15766167D01*
X9508500Y-15775690D01*
X9470405Y-15775690D01*
X9451357Y-15785214D01*
X9441833Y-15794738D01*
X9432310Y-15813786D01*
X9432310Y-15851881D01*
X9441833Y-15870928D01*
X9451357Y-15880452D01*
X9470405Y-15889976D01*
X9508500Y-15889976D01*
X9527548Y-15880452D01*
X9537071Y-15870928D01*
X9546595Y-15851881D01*
X9546595Y-15813786D01*
X9537071Y-15794738D01*
X9527548Y-15785214D01*
X9508500Y-15775690D01*
X9670405Y-15689976D02*
X9689452Y-15689976D01*
X9708500Y-15699500D01*
X9718024Y-15709024D01*
X9727548Y-15728071D01*
X9737071Y-15766167D01*
X9737071Y-15813786D01*
X9727548Y-15851881D01*
X9718024Y-15870928D01*
X9708500Y-15880452D01*
X9689452Y-15889976D01*
X9670405Y-15889976D01*
X9651357Y-15880452D01*
X9641833Y-15870928D01*
X9632310Y-15851881D01*
X9622786Y-15813786D01*
X9622786Y-15766167D01*
X9632310Y-15728071D01*
X9641833Y-15709024D01*
X9651357Y-15699500D01*
X9670405Y-15689976D01*
X9860881Y-15689976D02*
X9879929Y-15689976D01*
X9898976Y-15699500D01*
X9908500Y-15709024D01*
X9918024Y-15728071D01*
X9927548Y-15766167D01*
X9927548Y-15813786D01*
X9918024Y-15851881D01*
X9908500Y-15870928D01*
X9898976Y-15880452D01*
X9879929Y-15889976D01*
X9860881Y-15889976D01*
X9841833Y-15880452D01*
X9832310Y-15870928D01*
X9822786Y-15851881D01*
X9813262Y-15813786D01*
X9813262Y-15766167D01*
X9822786Y-15728071D01*
X9832310Y-15709024D01*
X9841833Y-15699500D01*
X9860881Y-15689976D01*
X10013262Y-15889976D02*
X10013262Y-15756643D01*
X10013262Y-15775690D02*
X10022786Y-15766167D01*
X10041833Y-15756643D01*
X10070405Y-15756643D01*
X10089452Y-15766167D01*
X10098976Y-15785214D01*
X10098976Y-15889976D01*
X10098976Y-15785214D02*
X10108500Y-15766167D01*
X10127548Y-15756643D01*
X10156119Y-15756643D01*
X10175167Y-15766167D01*
X10184690Y-15785214D01*
X10184690Y-15889976D01*
X10279929Y-15889976D02*
X10279929Y-15756643D01*
X10279929Y-15775690D02*
X10289452Y-15766167D01*
X10308500Y-15756643D01*
X10337071Y-15756643D01*
X10356119Y-15766167D01*
X10365643Y-15785214D01*
X10365643Y-15889976D01*
X10365643Y-15785214D02*
X10375167Y-15766167D01*
X10394214Y-15756643D01*
X10422786Y-15756643D01*
X10441833Y-15766167D01*
X10451357Y-15785214D01*
X10451357Y-15889976D01*
X10841833Y-15680452D02*
X10670405Y-15937595D01*
X11098976Y-15689976D02*
X11118024Y-15689976D01*
X11137071Y-15699500D01*
X11146595Y-15709024D01*
X11156119Y-15728071D01*
X11165643Y-15766167D01*
X11165643Y-15813786D01*
X11156119Y-15851881D01*
X11146595Y-15870928D01*
X11137071Y-15880452D01*
X11118024Y-15889976D01*
X11098976Y-15889976D01*
X11079929Y-15880452D01*
X11070405Y-15870928D01*
X11060881Y-15851881D01*
X11051357Y-15813786D01*
X11051357Y-15766167D01*
X11060881Y-15728071D01*
X11070405Y-15709024D01*
X11079929Y-15699500D01*
X11098976Y-15689976D01*
X11251357Y-15870928D02*
X11260881Y-15880452D01*
X11251357Y-15889976D01*
X11241833Y-15880452D01*
X11251357Y-15870928D01*
X11251357Y-15889976D01*
X11384690Y-15689976D02*
X11403738Y-15689976D01*
X11422786Y-15699500D01*
X11432309Y-15709024D01*
X11441833Y-15728071D01*
X11451357Y-15766167D01*
X11451357Y-15813786D01*
X11441833Y-15851881D01*
X11432309Y-15870928D01*
X11422786Y-15880452D01*
X11403738Y-15889976D01*
X11384690Y-15889976D01*
X11365643Y-15880452D01*
X11356119Y-15870928D01*
X11346595Y-15851881D01*
X11337071Y-15813786D01*
X11337071Y-15766167D01*
X11346595Y-15728071D01*
X11356119Y-15709024D01*
X11365643Y-15699500D01*
X11384690Y-15689976D01*
X11518024Y-15689976D02*
X11641833Y-15689976D01*
X11575167Y-15766167D01*
X11603738Y-15766167D01*
X11622786Y-15775690D01*
X11632309Y-15785214D01*
X11641833Y-15804262D01*
X11641833Y-15851881D01*
X11632309Y-15870928D01*
X11622786Y-15880452D01*
X11603738Y-15889976D01*
X11546595Y-15889976D01*
X11527548Y-15880452D01*
X11518024Y-15870928D01*
X11832309Y-15889976D02*
X11718024Y-15889976D01*
X11775167Y-15889976D02*
X11775167Y-15689976D01*
X11756119Y-15718548D01*
X11737071Y-15737595D01*
X11718024Y-15747119D01*
X12013262Y-15689976D02*
X11918024Y-15689976D01*
X11908500Y-15785214D01*
X11918024Y-15775690D01*
X11937071Y-15766167D01*
X11984690Y-15766167D01*
X12003738Y-15775690D01*
X12013262Y-15785214D01*
X12022786Y-15804262D01*
X12022786Y-15851881D01*
X12013262Y-15870928D01*
X12003738Y-15880452D01*
X11984690Y-15889976D01*
X11937071Y-15889976D01*
X11918024Y-15880452D01*
X11908500Y-15870928D01*
X12098976Y-15689976D02*
X12098976Y-15728071D01*
X12175167Y-15689976D02*
X12175167Y-15728071D01*
X12470405Y-15966167D02*
X12460881Y-15956643D01*
X12441833Y-15928071D01*
X12432309Y-15909024D01*
X12422786Y-15880452D01*
X12413262Y-15832833D01*
X12413262Y-15794738D01*
X12422786Y-15747119D01*
X12432309Y-15718548D01*
X12441833Y-15699500D01*
X12460881Y-15670928D01*
X12470405Y-15661405D01*
X12527548Y-15689976D02*
X12651357Y-15689976D01*
X12584690Y-15766167D01*
X12613262Y-15766167D01*
X12632309Y-15775690D01*
X12641833Y-15785214D01*
X12651357Y-15804262D01*
X12651357Y-15851881D01*
X12641833Y-15870928D01*
X12632309Y-15880452D01*
X12613262Y-15889976D01*
X12556119Y-15889976D01*
X12537071Y-15880452D01*
X12527548Y-15870928D01*
X12822786Y-15689976D02*
X12784690Y-15689976D01*
X12765643Y-15699500D01*
X12756119Y-15709024D01*
X12737071Y-15737595D01*
X12727548Y-15775690D01*
X12727548Y-15851881D01*
X12737071Y-15870928D01*
X12746595Y-15880452D01*
X12765643Y-15889976D01*
X12803738Y-15889976D01*
X12822786Y-15880452D01*
X12832309Y-15870928D01*
X12841833Y-15851881D01*
X12841833Y-15804262D01*
X12832309Y-15785214D01*
X12822786Y-15775690D01*
X12803738Y-15766167D01*
X12765643Y-15766167D01*
X12746595Y-15775690D01*
X12737071Y-15785214D01*
X12727548Y-15804262D01*
X13079928Y-15889976D02*
X13079928Y-15689976D01*
X13165643Y-15889976D02*
X13165643Y-15785214D01*
X13156119Y-15766167D01*
X13137071Y-15756643D01*
X13108500Y-15756643D01*
X13089452Y-15766167D01*
X13079928Y-15775690D01*
X13289452Y-15889976D02*
X13270405Y-15880452D01*
X13260881Y-15870928D01*
X13251357Y-15851881D01*
X13251357Y-15794738D01*
X13260881Y-15775690D01*
X13270405Y-15766167D01*
X13289452Y-15756643D01*
X13318024Y-15756643D01*
X13337071Y-15766167D01*
X13346595Y-15775690D01*
X13356119Y-15794738D01*
X13356119Y-15851881D01*
X13346595Y-15870928D01*
X13337071Y-15880452D01*
X13318024Y-15889976D01*
X13289452Y-15889976D01*
X13470405Y-15889976D02*
X13451357Y-15880452D01*
X13441833Y-15861405D01*
X13441833Y-15689976D01*
X13622786Y-15880452D02*
X13603738Y-15889976D01*
X13565643Y-15889976D01*
X13546595Y-15880452D01*
X13537071Y-15861405D01*
X13537071Y-15785214D01*
X13546595Y-15766167D01*
X13565643Y-15756643D01*
X13603738Y-15756643D01*
X13622786Y-15766167D01*
X13632309Y-15785214D01*
X13632309Y-15804262D01*
X13537071Y-15823309D01*
X13708500Y-15880452D02*
X13727548Y-15889976D01*
X13765643Y-15889976D01*
X13784690Y-15880452D01*
X13794214Y-15861405D01*
X13794214Y-15851881D01*
X13784690Y-15832833D01*
X13765643Y-15823309D01*
X13737071Y-15823309D01*
X13718024Y-15813786D01*
X13708500Y-15794738D01*
X13708500Y-15785214D01*
X13718024Y-15766167D01*
X13737071Y-15756643D01*
X13765643Y-15756643D01*
X13784690Y-15766167D01*
X13860881Y-15966167D02*
X13870405Y-15956643D01*
X13889452Y-15928071D01*
X13898976Y-15909024D01*
X13908500Y-15880452D01*
X13918024Y-15832833D01*
X13918024Y-15794738D01*
X13908500Y-15747119D01*
X13898976Y-15718548D01*
X13889452Y-15699500D01*
X13870405Y-15670928D01*
X13860881Y-15661405D01*
D16*
X8798500Y-16013500D02*
X8898500Y-16113500D01*
X8898500Y-16013500D02*
X8798500Y-16113500D01*
X8898500Y-16063500D02*
G75*
G03*
X8898500Y-16063500I-50000J0D01*
G01*
D11*
X9260881Y-16153976D02*
X9146595Y-16153976D01*
X9203738Y-16153976D02*
X9203738Y-15953976D01*
X9184690Y-15982548D01*
X9165643Y-16001595D01*
X9146595Y-16011119D01*
X9346595Y-16134928D02*
X9356119Y-16144452D01*
X9346595Y-16153976D01*
X9337071Y-16144452D01*
X9346595Y-16134928D01*
X9346595Y-16153976D01*
X9479929Y-15953976D02*
X9498976Y-15953976D01*
X9518024Y-15963500D01*
X9527548Y-15973024D01*
X9537071Y-15992071D01*
X9546595Y-16030167D01*
X9546595Y-16077786D01*
X9537071Y-16115881D01*
X9527548Y-16134928D01*
X9518024Y-16144452D01*
X9498976Y-16153976D01*
X9479929Y-16153976D01*
X9460881Y-16144452D01*
X9451357Y-16134928D01*
X9441833Y-16115881D01*
X9432310Y-16077786D01*
X9432310Y-16030167D01*
X9441833Y-15992071D01*
X9451357Y-15973024D01*
X9460881Y-15963500D01*
X9479929Y-15953976D01*
X9670405Y-15953976D02*
X9689452Y-15953976D01*
X9708500Y-15963500D01*
X9718024Y-15973024D01*
X9727548Y-15992071D01*
X9737071Y-16030167D01*
X9737071Y-16077786D01*
X9727548Y-16115881D01*
X9718024Y-16134928D01*
X9708500Y-16144452D01*
X9689452Y-16153976D01*
X9670405Y-16153976D01*
X9651357Y-16144452D01*
X9641833Y-16134928D01*
X9632310Y-16115881D01*
X9622786Y-16077786D01*
X9622786Y-16030167D01*
X9632310Y-15992071D01*
X9641833Y-15973024D01*
X9651357Y-15963500D01*
X9670405Y-15953976D01*
X9860881Y-15953976D02*
X9879929Y-15953976D01*
X9898976Y-15963500D01*
X9908500Y-15973024D01*
X9918024Y-15992071D01*
X9927548Y-16030167D01*
X9927548Y-16077786D01*
X9918024Y-16115881D01*
X9908500Y-16134928D01*
X9898976Y-16144452D01*
X9879929Y-16153976D01*
X9860881Y-16153976D01*
X9841833Y-16144452D01*
X9832310Y-16134928D01*
X9822786Y-16115881D01*
X9813262Y-16077786D01*
X9813262Y-16030167D01*
X9822786Y-15992071D01*
X9832310Y-15973024D01*
X9841833Y-15963500D01*
X9860881Y-15953976D01*
X10013262Y-16153976D02*
X10013262Y-16020643D01*
X10013262Y-16039690D02*
X10022786Y-16030167D01*
X10041833Y-16020643D01*
X10070405Y-16020643D01*
X10089452Y-16030167D01*
X10098976Y-16049214D01*
X10098976Y-16153976D01*
X10098976Y-16049214D02*
X10108500Y-16030167D01*
X10127548Y-16020643D01*
X10156119Y-16020643D01*
X10175167Y-16030167D01*
X10184690Y-16049214D01*
X10184690Y-16153976D01*
X10279929Y-16153976D02*
X10279929Y-16020643D01*
X10279929Y-16039690D02*
X10289452Y-16030167D01*
X10308500Y-16020643D01*
X10337071Y-16020643D01*
X10356119Y-16030167D01*
X10365643Y-16049214D01*
X10365643Y-16153976D01*
X10365643Y-16049214D02*
X10375167Y-16030167D01*
X10394214Y-16020643D01*
X10422786Y-16020643D01*
X10441833Y-16030167D01*
X10451357Y-16049214D01*
X10451357Y-16153976D01*
X10841833Y-15944452D02*
X10670405Y-16201595D01*
X11098976Y-15953976D02*
X11118024Y-15953976D01*
X11137071Y-15963500D01*
X11146595Y-15973024D01*
X11156119Y-15992071D01*
X11165643Y-16030167D01*
X11165643Y-16077786D01*
X11156119Y-16115881D01*
X11146595Y-16134928D01*
X11137071Y-16144452D01*
X11118024Y-16153976D01*
X11098976Y-16153976D01*
X11079929Y-16144452D01*
X11070405Y-16134928D01*
X11060881Y-16115881D01*
X11051357Y-16077786D01*
X11051357Y-16030167D01*
X11060881Y-15992071D01*
X11070405Y-15973024D01*
X11079929Y-15963500D01*
X11098976Y-15953976D01*
X11251357Y-16134928D02*
X11260881Y-16144452D01*
X11251357Y-16153976D01*
X11241833Y-16144452D01*
X11251357Y-16134928D01*
X11251357Y-16153976D01*
X11384690Y-15953976D02*
X11403738Y-15953976D01*
X11422786Y-15963500D01*
X11432309Y-15973024D01*
X11441833Y-15992071D01*
X11451357Y-16030167D01*
X11451357Y-16077786D01*
X11441833Y-16115881D01*
X11432309Y-16134928D01*
X11422786Y-16144452D01*
X11403738Y-16153976D01*
X11384690Y-16153976D01*
X11365643Y-16144452D01*
X11356119Y-16134928D01*
X11346595Y-16115881D01*
X11337071Y-16077786D01*
X11337071Y-16030167D01*
X11346595Y-15992071D01*
X11356119Y-15973024D01*
X11365643Y-15963500D01*
X11384690Y-15953976D01*
X11518024Y-15953976D02*
X11641833Y-15953976D01*
X11575167Y-16030167D01*
X11603738Y-16030167D01*
X11622786Y-16039690D01*
X11632309Y-16049214D01*
X11641833Y-16068262D01*
X11641833Y-16115881D01*
X11632309Y-16134928D01*
X11622786Y-16144452D01*
X11603738Y-16153976D01*
X11546595Y-16153976D01*
X11527548Y-16144452D01*
X11518024Y-16134928D01*
X11737071Y-16153976D02*
X11775167Y-16153976D01*
X11794214Y-16144452D01*
X11803738Y-16134928D01*
X11822786Y-16106357D01*
X11832309Y-16068262D01*
X11832309Y-15992071D01*
X11822786Y-15973024D01*
X11813262Y-15963500D01*
X11794214Y-15953976D01*
X11756119Y-15953976D01*
X11737071Y-15963500D01*
X11727548Y-15973024D01*
X11718024Y-15992071D01*
X11718024Y-16039690D01*
X11727548Y-16058738D01*
X11737071Y-16068262D01*
X11756119Y-16077786D01*
X11794214Y-16077786D01*
X11813262Y-16068262D01*
X11822786Y-16058738D01*
X11832309Y-16039690D01*
X12003738Y-16020643D02*
X12003738Y-16153976D01*
X11956119Y-15944452D02*
X11908500Y-16087309D01*
X12032309Y-16087309D01*
X12098976Y-15953976D02*
X12098976Y-15992071D01*
X12175167Y-15953976D02*
X12175167Y-15992071D01*
X12470405Y-16230167D02*
X12460881Y-16220643D01*
X12441833Y-16192071D01*
X12432309Y-16173024D01*
X12422786Y-16144452D01*
X12413262Y-16096833D01*
X12413262Y-16058738D01*
X12422786Y-16011119D01*
X12432309Y-15982548D01*
X12441833Y-15963500D01*
X12460881Y-15934928D01*
X12470405Y-15925405D01*
X12641833Y-15953976D02*
X12546595Y-15953976D01*
X12537071Y-16049214D01*
X12546595Y-16039690D01*
X12565643Y-16030167D01*
X12613262Y-16030167D01*
X12632309Y-16039690D01*
X12641833Y-16049214D01*
X12651357Y-16068262D01*
X12651357Y-16115881D01*
X12641833Y-16134928D01*
X12632309Y-16144452D01*
X12613262Y-16153976D01*
X12565643Y-16153976D01*
X12546595Y-16144452D01*
X12537071Y-16134928D01*
X12822786Y-16020643D02*
X12822786Y-16153976D01*
X12775167Y-15944452D02*
X12727548Y-16087309D01*
X12851357Y-16087309D01*
X13079928Y-16153976D02*
X13079928Y-15953976D01*
X13165643Y-16153976D02*
X13165643Y-16049214D01*
X13156119Y-16030167D01*
X13137071Y-16020643D01*
X13108500Y-16020643D01*
X13089452Y-16030167D01*
X13079928Y-16039690D01*
X13289452Y-16153976D02*
X13270405Y-16144452D01*
X13260881Y-16134928D01*
X13251357Y-16115881D01*
X13251357Y-16058738D01*
X13260881Y-16039690D01*
X13270405Y-16030167D01*
X13289452Y-16020643D01*
X13318024Y-16020643D01*
X13337071Y-16030167D01*
X13346595Y-16039690D01*
X13356119Y-16058738D01*
X13356119Y-16115881D01*
X13346595Y-16134928D01*
X13337071Y-16144452D01*
X13318024Y-16153976D01*
X13289452Y-16153976D01*
X13470405Y-16153976D02*
X13451357Y-16144452D01*
X13441833Y-16125405D01*
X13441833Y-15953976D01*
X13622786Y-16144452D02*
X13603738Y-16153976D01*
X13565643Y-16153976D01*
X13546595Y-16144452D01*
X13537071Y-16125405D01*
X13537071Y-16049214D01*
X13546595Y-16030167D01*
X13565643Y-16020643D01*
X13603738Y-16020643D01*
X13622786Y-16030167D01*
X13632309Y-16049214D01*
X13632309Y-16068262D01*
X13537071Y-16087309D01*
X13708500Y-16144452D02*
X13727548Y-16153976D01*
X13765643Y-16153976D01*
X13784690Y-16144452D01*
X13794214Y-16125405D01*
X13794214Y-16115881D01*
X13784690Y-16096833D01*
X13765643Y-16087309D01*
X13737071Y-16087309D01*
X13718024Y-16077786D01*
X13708500Y-16058738D01*
X13708500Y-16049214D01*
X13718024Y-16030167D01*
X13737071Y-16020643D01*
X13765643Y-16020643D01*
X13784690Y-16030167D01*
X13860881Y-16230167D02*
X13870405Y-16220643D01*
X13889452Y-16192071D01*
X13898976Y-16173024D01*
X13908500Y-16144452D01*
X13918024Y-16096833D01*
X13918024Y-16058738D01*
X13908500Y-16011119D01*
X13898976Y-15982548D01*
X13889452Y-15963500D01*
X13870405Y-15934928D01*
X13860881Y-15925405D01*
D17*
X8788500Y-16272500D02*
X8898500Y-16382500D01*
X8898500Y-16272500D02*
X8788500Y-16382500D01*
X8843500Y-16272500D02*
X8843500Y-16382500D01*
X8788500Y-16327500D02*
X8898500Y-16327500D01*
D11*
X9260881Y-16417976D02*
X9146595Y-16417976D01*
X9203738Y-16417976D02*
X9203738Y-16217976D01*
X9184690Y-16246548D01*
X9165643Y-16265595D01*
X9146595Y-16275119D01*
X9346595Y-16398928D02*
X9356119Y-16408452D01*
X9346595Y-16417976D01*
X9337071Y-16408452D01*
X9346595Y-16398928D01*
X9346595Y-16417976D01*
X9546595Y-16417976D02*
X9432310Y-16417976D01*
X9489452Y-16417976D02*
X9489452Y-16217976D01*
X9470405Y-16246548D01*
X9451357Y-16265595D01*
X9432310Y-16275119D01*
X9670405Y-16217976D02*
X9689452Y-16217976D01*
X9708500Y-16227500D01*
X9718024Y-16237024D01*
X9727548Y-16256071D01*
X9737071Y-16294167D01*
X9737071Y-16341786D01*
X9727548Y-16379881D01*
X9718024Y-16398928D01*
X9708500Y-16408452D01*
X9689452Y-16417976D01*
X9670405Y-16417976D01*
X9651357Y-16408452D01*
X9641833Y-16398928D01*
X9632310Y-16379881D01*
X9622786Y-16341786D01*
X9622786Y-16294167D01*
X9632310Y-16256071D01*
X9641833Y-16237024D01*
X9651357Y-16227500D01*
X9670405Y-16217976D01*
X9860881Y-16217976D02*
X9879929Y-16217976D01*
X9898976Y-16227500D01*
X9908500Y-16237024D01*
X9918024Y-16256071D01*
X9927548Y-16294167D01*
X9927548Y-16341786D01*
X9918024Y-16379881D01*
X9908500Y-16398928D01*
X9898976Y-16408452D01*
X9879929Y-16417976D01*
X9860881Y-16417976D01*
X9841833Y-16408452D01*
X9832310Y-16398928D01*
X9822786Y-16379881D01*
X9813262Y-16341786D01*
X9813262Y-16294167D01*
X9822786Y-16256071D01*
X9832310Y-16237024D01*
X9841833Y-16227500D01*
X9860881Y-16217976D01*
X10013262Y-16417976D02*
X10013262Y-16284643D01*
X10013262Y-16303690D02*
X10022786Y-16294167D01*
X10041833Y-16284643D01*
X10070405Y-16284643D01*
X10089452Y-16294167D01*
X10098976Y-16313214D01*
X10098976Y-16417976D01*
X10098976Y-16313214D02*
X10108500Y-16294167D01*
X10127548Y-16284643D01*
X10156119Y-16284643D01*
X10175167Y-16294167D01*
X10184690Y-16313214D01*
X10184690Y-16417976D01*
X10279929Y-16417976D02*
X10279929Y-16284643D01*
X10279929Y-16303690D02*
X10289452Y-16294167D01*
X10308500Y-16284643D01*
X10337071Y-16284643D01*
X10356119Y-16294167D01*
X10365643Y-16313214D01*
X10365643Y-16417976D01*
X10365643Y-16313214D02*
X10375167Y-16294167D01*
X10394214Y-16284643D01*
X10422786Y-16284643D01*
X10441833Y-16294167D01*
X10451357Y-16313214D01*
X10451357Y-16417976D01*
X10841833Y-16208452D02*
X10670405Y-16465595D01*
X11098976Y-16217976D02*
X11118024Y-16217976D01*
X11137071Y-16227500D01*
X11146595Y-16237024D01*
X11156119Y-16256071D01*
X11165643Y-16294167D01*
X11165643Y-16341786D01*
X11156119Y-16379881D01*
X11146595Y-16398928D01*
X11137071Y-16408452D01*
X11118024Y-16417976D01*
X11098976Y-16417976D01*
X11079929Y-16408452D01*
X11070405Y-16398928D01*
X11060881Y-16379881D01*
X11051357Y-16341786D01*
X11051357Y-16294167D01*
X11060881Y-16256071D01*
X11070405Y-16237024D01*
X11079929Y-16227500D01*
X11098976Y-16217976D01*
X11251357Y-16398928D02*
X11260881Y-16408452D01*
X11251357Y-16417976D01*
X11241833Y-16408452D01*
X11251357Y-16398928D01*
X11251357Y-16417976D01*
X11384690Y-16217976D02*
X11403738Y-16217976D01*
X11422786Y-16227500D01*
X11432309Y-16237024D01*
X11441833Y-16256071D01*
X11451357Y-16294167D01*
X11451357Y-16341786D01*
X11441833Y-16379881D01*
X11432309Y-16398928D01*
X11422786Y-16408452D01*
X11403738Y-16417976D01*
X11384690Y-16417976D01*
X11365643Y-16408452D01*
X11356119Y-16398928D01*
X11346595Y-16379881D01*
X11337071Y-16341786D01*
X11337071Y-16294167D01*
X11346595Y-16256071D01*
X11356119Y-16237024D01*
X11365643Y-16227500D01*
X11384690Y-16217976D01*
X11622786Y-16284643D02*
X11622786Y-16417976D01*
X11575167Y-16208452D02*
X11527548Y-16351309D01*
X11651357Y-16351309D01*
X11708500Y-16217976D02*
X11832309Y-16217976D01*
X11765643Y-16294167D01*
X11794214Y-16294167D01*
X11813262Y-16303690D01*
X11822786Y-16313214D01*
X11832309Y-16332262D01*
X11832309Y-16379881D01*
X11822786Y-16398928D01*
X11813262Y-16408452D01*
X11794214Y-16417976D01*
X11737071Y-16417976D01*
X11718024Y-16408452D01*
X11708500Y-16398928D01*
X11898976Y-16217976D02*
X12022786Y-16217976D01*
X11956119Y-16294167D01*
X11984690Y-16294167D01*
X12003738Y-16303690D01*
X12013262Y-16313214D01*
X12022786Y-16332262D01*
X12022786Y-16379881D01*
X12013262Y-16398928D01*
X12003738Y-16408452D01*
X11984690Y-16417976D01*
X11927548Y-16417976D01*
X11908500Y-16408452D01*
X11898976Y-16398928D01*
X12098976Y-16217976D02*
X12098976Y-16256071D01*
X12175167Y-16217976D02*
X12175167Y-16256071D01*
X12470405Y-16494167D02*
X12460881Y-16484643D01*
X12441833Y-16456071D01*
X12432309Y-16437024D01*
X12422786Y-16408452D01*
X12413262Y-16360833D01*
X12413262Y-16322738D01*
X12422786Y-16275119D01*
X12432309Y-16246548D01*
X12441833Y-16227500D01*
X12460881Y-16198928D01*
X12470405Y-16189405D01*
X12537071Y-16237024D02*
X12546595Y-16227500D01*
X12565643Y-16217976D01*
X12613262Y-16217976D01*
X12632309Y-16227500D01*
X12641833Y-16237024D01*
X12651357Y-16256071D01*
X12651357Y-16275119D01*
X12641833Y-16303690D01*
X12527548Y-16417976D01*
X12651357Y-16417976D01*
X12718024Y-16217976D02*
X12841833Y-16217976D01*
X12775167Y-16294167D01*
X12803738Y-16294167D01*
X12822786Y-16303690D01*
X12832309Y-16313214D01*
X12841833Y-16332262D01*
X12841833Y-16379881D01*
X12832309Y-16398928D01*
X12822786Y-16408452D01*
X12803738Y-16417976D01*
X12746595Y-16417976D01*
X12727548Y-16408452D01*
X12718024Y-16398928D01*
X13079928Y-16417976D02*
X13079928Y-16217976D01*
X13165643Y-16417976D02*
X13165643Y-16313214D01*
X13156119Y-16294167D01*
X13137071Y-16284643D01*
X13108500Y-16284643D01*
X13089452Y-16294167D01*
X13079928Y-16303690D01*
X13289452Y-16417976D02*
X13270405Y-16408452D01*
X13260881Y-16398928D01*
X13251357Y-16379881D01*
X13251357Y-16322738D01*
X13260881Y-16303690D01*
X13270405Y-16294167D01*
X13289452Y-16284643D01*
X13318024Y-16284643D01*
X13337071Y-16294167D01*
X13346595Y-16303690D01*
X13356119Y-16322738D01*
X13356119Y-16379881D01*
X13346595Y-16398928D01*
X13337071Y-16408452D01*
X13318024Y-16417976D01*
X13289452Y-16417976D01*
X13470405Y-16417976D02*
X13451357Y-16408452D01*
X13441833Y-16389405D01*
X13441833Y-16217976D01*
X13622786Y-16408452D02*
X13603738Y-16417976D01*
X13565643Y-16417976D01*
X13546595Y-16408452D01*
X13537071Y-16389405D01*
X13537071Y-16313214D01*
X13546595Y-16294167D01*
X13565643Y-16284643D01*
X13603738Y-16284643D01*
X13622786Y-16294167D01*
X13632309Y-16313214D01*
X13632309Y-16332262D01*
X13537071Y-16351309D01*
X13708500Y-16408452D02*
X13727548Y-16417976D01*
X13765643Y-16417976D01*
X13784690Y-16408452D01*
X13794214Y-16389405D01*
X13794214Y-16379881D01*
X13784690Y-16360833D01*
X13765643Y-16351309D01*
X13737071Y-16351309D01*
X13718024Y-16341786D01*
X13708500Y-16322738D01*
X13708500Y-16313214D01*
X13718024Y-16294167D01*
X13737071Y-16284643D01*
X13765643Y-16284643D01*
X13784690Y-16294167D01*
X13860881Y-16494167D02*
X13870405Y-16484643D01*
X13889452Y-16456071D01*
X13898976Y-16437024D01*
X13908500Y-16408452D01*
X13918024Y-16360833D01*
X13918024Y-16322738D01*
X13908500Y-16275119D01*
X13898976Y-16246548D01*
X13889452Y-16227500D01*
X13870405Y-16198928D01*
X13860881Y-16189405D01*
D18*
X8778500Y-16531500D02*
X8898500Y-16651500D01*
X8898500Y-16531500D02*
X8778500Y-16651500D01*
X8880927Y-16633927D02*
X8880927Y-16549073D01*
X8796073Y-16549073D01*
X8796073Y-16633927D01*
X8880927Y-16633927D01*
D11*
X9260881Y-16681976D02*
X9146595Y-16681976D01*
X9203738Y-16681976D02*
X9203738Y-16481976D01*
X9184690Y-16510548D01*
X9165643Y-16529595D01*
X9146595Y-16539119D01*
X9346595Y-16662928D02*
X9356119Y-16672452D01*
X9346595Y-16681976D01*
X9337071Y-16672452D01*
X9346595Y-16662928D01*
X9346595Y-16681976D01*
X9432310Y-16501024D02*
X9441833Y-16491500D01*
X9460881Y-16481976D01*
X9508500Y-16481976D01*
X9527548Y-16491500D01*
X9537071Y-16501024D01*
X9546595Y-16520071D01*
X9546595Y-16539119D01*
X9537071Y-16567690D01*
X9422786Y-16681976D01*
X9546595Y-16681976D01*
X9670405Y-16481976D02*
X9689452Y-16481976D01*
X9708500Y-16491500D01*
X9718024Y-16501024D01*
X9727548Y-16520071D01*
X9737071Y-16558167D01*
X9737071Y-16605786D01*
X9727548Y-16643881D01*
X9718024Y-16662928D01*
X9708500Y-16672452D01*
X9689452Y-16681976D01*
X9670405Y-16681976D01*
X9651357Y-16672452D01*
X9641833Y-16662928D01*
X9632310Y-16643881D01*
X9622786Y-16605786D01*
X9622786Y-16558167D01*
X9632310Y-16520071D01*
X9641833Y-16501024D01*
X9651357Y-16491500D01*
X9670405Y-16481976D01*
X9860881Y-16481976D02*
X9879929Y-16481976D01*
X9898976Y-16491500D01*
X9908500Y-16501024D01*
X9918024Y-16520071D01*
X9927548Y-16558167D01*
X9927548Y-16605786D01*
X9918024Y-16643881D01*
X9908500Y-16662928D01*
X9898976Y-16672452D01*
X9879929Y-16681976D01*
X9860881Y-16681976D01*
X9841833Y-16672452D01*
X9832310Y-16662928D01*
X9822786Y-16643881D01*
X9813262Y-16605786D01*
X9813262Y-16558167D01*
X9822786Y-16520071D01*
X9832310Y-16501024D01*
X9841833Y-16491500D01*
X9860881Y-16481976D01*
X10013262Y-16681976D02*
X10013262Y-16548643D01*
X10013262Y-16567690D02*
X10022786Y-16558167D01*
X10041833Y-16548643D01*
X10070405Y-16548643D01*
X10089452Y-16558167D01*
X10098976Y-16577214D01*
X10098976Y-16681976D01*
X10098976Y-16577214D02*
X10108500Y-16558167D01*
X10127548Y-16548643D01*
X10156119Y-16548643D01*
X10175167Y-16558167D01*
X10184690Y-16577214D01*
X10184690Y-16681976D01*
X10279929Y-16681976D02*
X10279929Y-16548643D01*
X10279929Y-16567690D02*
X10289452Y-16558167D01*
X10308500Y-16548643D01*
X10337071Y-16548643D01*
X10356119Y-16558167D01*
X10365643Y-16577214D01*
X10365643Y-16681976D01*
X10365643Y-16577214D02*
X10375167Y-16558167D01*
X10394214Y-16548643D01*
X10422786Y-16548643D01*
X10441833Y-16558167D01*
X10451357Y-16577214D01*
X10451357Y-16681976D01*
X10841833Y-16472452D02*
X10670405Y-16729595D01*
X11098976Y-16481976D02*
X11118024Y-16481976D01*
X11137071Y-16491500D01*
X11146595Y-16501024D01*
X11156119Y-16520071D01*
X11165643Y-16558167D01*
X11165643Y-16605786D01*
X11156119Y-16643881D01*
X11146595Y-16662928D01*
X11137071Y-16672452D01*
X11118024Y-16681976D01*
X11098976Y-16681976D01*
X11079929Y-16672452D01*
X11070405Y-16662928D01*
X11060881Y-16643881D01*
X11051357Y-16605786D01*
X11051357Y-16558167D01*
X11060881Y-16520071D01*
X11070405Y-16501024D01*
X11079929Y-16491500D01*
X11098976Y-16481976D01*
X11251357Y-16662928D02*
X11260881Y-16672452D01*
X11251357Y-16681976D01*
X11241833Y-16672452D01*
X11251357Y-16662928D01*
X11251357Y-16681976D01*
X11384690Y-16481976D02*
X11403738Y-16481976D01*
X11422786Y-16491500D01*
X11432309Y-16501024D01*
X11441833Y-16520071D01*
X11451357Y-16558167D01*
X11451357Y-16605786D01*
X11441833Y-16643881D01*
X11432309Y-16662928D01*
X11422786Y-16672452D01*
X11403738Y-16681976D01*
X11384690Y-16681976D01*
X11365643Y-16672452D01*
X11356119Y-16662928D01*
X11346595Y-16643881D01*
X11337071Y-16605786D01*
X11337071Y-16558167D01*
X11346595Y-16520071D01*
X11356119Y-16501024D01*
X11365643Y-16491500D01*
X11384690Y-16481976D01*
X11622786Y-16548643D02*
X11622786Y-16681976D01*
X11575167Y-16472452D02*
X11527548Y-16615309D01*
X11651357Y-16615309D01*
X11708500Y-16481976D02*
X11841833Y-16481976D01*
X11756119Y-16681976D01*
X11908500Y-16501024D02*
X11918024Y-16491500D01*
X11937071Y-16481976D01*
X11984690Y-16481976D01*
X12003738Y-16491500D01*
X12013262Y-16501024D01*
X12022786Y-16520071D01*
X12022786Y-16539119D01*
X12013262Y-16567690D01*
X11898976Y-16681976D01*
X12022786Y-16681976D01*
X12098976Y-16481976D02*
X12098976Y-16520071D01*
X12175167Y-16481976D02*
X12175167Y-16520071D01*
X12470405Y-16758167D02*
X12460881Y-16748643D01*
X12441833Y-16720071D01*
X12432309Y-16701024D01*
X12422786Y-16672452D01*
X12413262Y-16624833D01*
X12413262Y-16586738D01*
X12422786Y-16539119D01*
X12432309Y-16510548D01*
X12441833Y-16491500D01*
X12460881Y-16462928D01*
X12470405Y-16453405D01*
X12537071Y-16501024D02*
X12546595Y-16491500D01*
X12565643Y-16481976D01*
X12613262Y-16481976D01*
X12632309Y-16491500D01*
X12641833Y-16501024D01*
X12651357Y-16520071D01*
X12651357Y-16539119D01*
X12641833Y-16567690D01*
X12527548Y-16681976D01*
X12651357Y-16681976D01*
X12775167Y-16481976D02*
X12794214Y-16481976D01*
X12813262Y-16491500D01*
X12822786Y-16501024D01*
X12832309Y-16520071D01*
X12841833Y-16558167D01*
X12841833Y-16605786D01*
X12832309Y-16643881D01*
X12822786Y-16662928D01*
X12813262Y-16672452D01*
X12794214Y-16681976D01*
X12775167Y-16681976D01*
X12756119Y-16672452D01*
X12746595Y-16662928D01*
X12737071Y-16643881D01*
X12727548Y-16605786D01*
X12727548Y-16558167D01*
X12737071Y-16520071D01*
X12746595Y-16501024D01*
X12756119Y-16491500D01*
X12775167Y-16481976D01*
X13079928Y-16681976D02*
X13079928Y-16481976D01*
X13165643Y-16681976D02*
X13165643Y-16577214D01*
X13156119Y-16558167D01*
X13137071Y-16548643D01*
X13108500Y-16548643D01*
X13089452Y-16558167D01*
X13079928Y-16567690D01*
X13289452Y-16681976D02*
X13270405Y-16672452D01*
X13260881Y-16662928D01*
X13251357Y-16643881D01*
X13251357Y-16586738D01*
X13260881Y-16567690D01*
X13270405Y-16558167D01*
X13289452Y-16548643D01*
X13318024Y-16548643D01*
X13337071Y-16558167D01*
X13346595Y-16567690D01*
X13356119Y-16586738D01*
X13356119Y-16643881D01*
X13346595Y-16662928D01*
X13337071Y-16672452D01*
X13318024Y-16681976D01*
X13289452Y-16681976D01*
X13470405Y-16681976D02*
X13451357Y-16672452D01*
X13441833Y-16653405D01*
X13441833Y-16481976D01*
X13622786Y-16672452D02*
X13603738Y-16681976D01*
X13565643Y-16681976D01*
X13546595Y-16672452D01*
X13537071Y-16653405D01*
X13537071Y-16577214D01*
X13546595Y-16558167D01*
X13565643Y-16548643D01*
X13603738Y-16548643D01*
X13622786Y-16558167D01*
X13632309Y-16577214D01*
X13632309Y-16596262D01*
X13537071Y-16615309D01*
X13708500Y-16672452D02*
X13727548Y-16681976D01*
X13765643Y-16681976D01*
X13784690Y-16672452D01*
X13794214Y-16653405D01*
X13794214Y-16643881D01*
X13784690Y-16624833D01*
X13765643Y-16615309D01*
X13737071Y-16615309D01*
X13718024Y-16605786D01*
X13708500Y-16586738D01*
X13708500Y-16577214D01*
X13718024Y-16558167D01*
X13737071Y-16548643D01*
X13765643Y-16548643D01*
X13784690Y-16558167D01*
X13860881Y-16758167D02*
X13870405Y-16748643D01*
X13889452Y-16720071D01*
X13898976Y-16701024D01*
X13908500Y-16672452D01*
X13918024Y-16624833D01*
X13918024Y-16586738D01*
X13908500Y-16539119D01*
X13898976Y-16510548D01*
X13889452Y-16491500D01*
X13870405Y-16462928D01*
X13860881Y-16453405D01*
M02*
