G04 #@! TF.GenerationSoftware,KiCad,Pcbnew,(6.0.7)*
G04 #@! TF.CreationDate,2024-01-16T14:57:24+01:00*
G04 #@! TF.ProjectId,Goobyl_da - Kretskort,476f6f62-796c-4e56-9461-202d204b7265,rev?*
G04 #@! TF.SameCoordinates,Original*
G04 #@! TF.FileFunction,Soldermask,Top*
G04 #@! TF.FilePolarity,Negative*
%FSLAX46Y46*%
G04 Gerber Fmt 4.6, Leading zero omitted, Abs format (unit mm)*
G04 Created by KiCad (PCBNEW (6.0.7)) date 2024-01-16 14:57:24*
%MOMM*%
%LPD*%
G01*
G04 APERTURE LIST*
%ADD10R,1.600000X1.600000*%
%ADD11O,1.600000X1.600000*%
%ADD12C,1.600000*%
%ADD13R,2.400000X2.400000*%
%ADD14O,2.400000X2.400000*%
%ADD15R,2.200000X2.200000*%
%ADD16O,2.200000X2.200000*%
%ADD17R,1.700000X1.700000*%
%ADD18O,1.700000X1.700000*%
%ADD19C,1.400000*%
%ADD20O,1.400000X1.400000*%
%ADD21R,1.905000X2.000000*%
%ADD22O,1.905000X2.000000*%
%ADD23R,1.050000X1.500000*%
%ADD24O,1.050000X1.500000*%
%ADD25R,1.500000X1.050000*%
%ADD26O,1.500000X1.050000*%
G04 APERTURE END LIST*
D10*
X119010000Y-45010000D03*
D11*
X121550000Y-45010000D03*
X124090000Y-45010000D03*
X126630000Y-45010000D03*
X129170000Y-45010000D03*
X131710000Y-45010000D03*
X134250000Y-45010000D03*
X136790000Y-45010000D03*
X141870000Y-45010000D03*
X144410000Y-45010000D03*
X146950000Y-45010000D03*
X149490000Y-45010000D03*
X152030000Y-45010000D03*
X154570000Y-45010000D03*
X154570000Y-93270000D03*
X152030000Y-93270000D03*
X149490000Y-93270000D03*
X146950000Y-93270000D03*
X144410000Y-93270000D03*
X141870000Y-93270000D03*
X139330000Y-93270000D03*
X136790000Y-93270000D03*
X132730000Y-93270000D03*
X130190000Y-93270000D03*
X127650000Y-93270000D03*
X125110000Y-93270000D03*
X122570000Y-93270000D03*
X120030000Y-93270000D03*
X117490000Y-93270000D03*
X114950000Y-93270000D03*
X112410000Y-93270000D03*
X109870000Y-93270000D03*
D10*
X148750000Y-102010000D03*
D12*
X148750000Y-100010000D03*
D10*
X158000000Y-102000000D03*
D12*
X158000000Y-100000000D03*
D10*
X167000000Y-102000000D03*
D12*
X167000000Y-100000000D03*
D10*
X103000000Y-100000000D03*
D12*
X103000000Y-102000000D03*
D10*
X121000000Y-101000000D03*
D12*
X123000000Y-101000000D03*
D13*
X150280000Y-137250000D03*
D14*
X137580000Y-137250000D03*
D13*
X107010000Y-137260000D03*
D14*
X94310000Y-137260000D03*
D15*
X92500000Y-99020000D03*
D16*
X92500000Y-109180000D03*
D13*
X141275000Y-110860000D03*
D14*
X141275000Y-123560000D03*
D10*
X163010000Y-45010000D03*
D11*
X170630000Y-45010000D03*
D10*
X163010000Y-54010000D03*
D11*
X170630000Y-54010000D03*
D10*
X163010000Y-63010000D03*
D11*
X170630000Y-63010000D03*
D10*
X163010000Y-72010000D03*
D11*
X170630000Y-72010000D03*
D10*
X163010000Y-81010000D03*
D11*
X170630000Y-81010000D03*
D10*
X163050000Y-89800000D03*
D11*
X170670000Y-89800000D03*
D17*
X132010000Y-100010000D03*
D18*
X134550000Y-100010000D03*
X137090000Y-100010000D03*
X139630000Y-100010000D03*
D19*
X122150000Y-109300000D03*
D20*
X129770000Y-109300000D03*
D19*
X109390000Y-109300000D03*
D20*
X117010000Y-109300000D03*
D19*
X96400000Y-109300000D03*
D20*
X104020000Y-109300000D03*
D19*
X127950000Y-124050000D03*
D20*
X127950000Y-116430000D03*
D19*
X115100000Y-124050000D03*
D20*
X115100000Y-116430000D03*
D19*
X102200000Y-124010000D03*
D20*
X102200000Y-116390000D03*
D19*
X122900000Y-124050000D03*
D20*
X122900000Y-116430000D03*
D19*
X97100000Y-124010000D03*
D20*
X97100000Y-116390000D03*
D19*
X125400000Y-124050000D03*
D20*
X125400000Y-116430000D03*
D19*
X112550000Y-124050000D03*
D20*
X112550000Y-116430000D03*
D19*
X135175000Y-115950000D03*
D20*
X135175000Y-123570000D03*
D12*
X145275000Y-123960000D03*
D11*
X145275000Y-113800000D03*
D19*
X137725000Y-123560000D03*
D20*
X137725000Y-115940000D03*
D19*
X163010000Y-50810000D03*
D20*
X170630000Y-50810000D03*
D19*
X163010000Y-59810000D03*
D20*
X170630000Y-59810000D03*
D19*
X163010000Y-77810000D03*
D20*
X170630000Y-77810000D03*
D19*
X163010000Y-86810000D03*
D20*
X170630000Y-86810000D03*
D19*
X163040000Y-95600000D03*
D20*
X170660000Y-95600000D03*
D19*
X163010000Y-48010000D03*
D20*
X170630000Y-48010000D03*
D19*
X163010000Y-57010000D03*
D20*
X170630000Y-57010000D03*
D19*
X163010000Y-66010000D03*
D20*
X170630000Y-66010000D03*
D19*
X163010000Y-75010000D03*
D20*
X170630000Y-75010000D03*
D19*
X163010000Y-84010000D03*
D20*
X170630000Y-84010000D03*
D19*
X163050000Y-92800000D03*
D20*
X170670000Y-92800000D03*
D21*
X110000000Y-101000000D03*
D22*
X112540000Y-101000000D03*
X115080000Y-101000000D03*
D19*
X110000000Y-124050000D03*
D20*
X110000000Y-116430000D03*
D19*
X99700000Y-124010000D03*
D20*
X99700000Y-116390000D03*
D13*
X130010000Y-137260000D03*
D14*
X117310000Y-137260000D03*
D13*
X178325000Y-105750000D03*
D14*
X178325000Y-93050000D03*
D13*
X178350000Y-89000000D03*
D14*
X178350000Y-76300000D03*
D13*
X178350000Y-72350000D03*
D14*
X178350000Y-59650000D03*
D13*
X178300000Y-55700000D03*
D14*
X178300000Y-43000000D03*
D10*
X174600000Y-93540000D03*
D11*
X174600000Y-101160000D03*
D10*
X174600000Y-79340000D03*
D11*
X174600000Y-86960000D03*
D10*
X174550000Y-65140000D03*
D11*
X174550000Y-72760000D03*
D10*
X174500000Y-50940000D03*
D11*
X174500000Y-58560000D03*
D12*
X185800000Y-102830000D03*
D11*
X185800000Y-92670000D03*
D12*
X182350000Y-102830000D03*
D11*
X182350000Y-92670000D03*
D12*
X185800000Y-86080000D03*
D11*
X185800000Y-75920000D03*
D12*
X182350000Y-86080000D03*
D11*
X182350000Y-75920000D03*
D12*
X182300000Y-52760000D03*
D11*
X182300000Y-42600000D03*
D19*
X163010000Y-68810000D03*
D20*
X170630000Y-68810000D03*
D12*
X185800000Y-69430000D03*
D11*
X185800000Y-59270000D03*
D12*
X182350000Y-69430000D03*
D11*
X182350000Y-59270000D03*
D12*
X185750000Y-52730000D03*
D11*
X185750000Y-42570000D03*
D17*
X155280000Y-137250000D03*
X134000000Y-137250000D03*
X112000000Y-137250000D03*
X97500000Y-105225000D03*
D18*
X97500000Y-102685000D03*
D17*
X162625000Y-137250000D03*
X167150000Y-137225000D03*
X171675000Y-137225000D03*
X182600000Y-106150000D03*
X182650000Y-89400000D03*
X182650000Y-72610000D03*
X182600000Y-55950000D03*
X173950000Y-43350000D03*
X173950000Y-47650000D03*
X173950000Y-61850000D03*
X173950000Y-76050000D03*
X173950000Y-90250000D03*
X174050000Y-104450000D03*
D21*
X102240000Y-128155000D03*
D22*
X99700000Y-128155000D03*
X97160000Y-128155000D03*
D23*
X127950000Y-112600000D03*
D24*
X126680000Y-112600000D03*
X125410000Y-112600000D03*
D13*
X159850000Y-110840000D03*
D14*
X159850000Y-123540000D03*
D23*
X115120000Y-112640000D03*
D24*
X113850000Y-112640000D03*
X112580000Y-112640000D03*
D19*
X153750000Y-115940000D03*
D20*
X153750000Y-123560000D03*
D21*
X162390000Y-128155000D03*
D22*
X159850000Y-128155000D03*
X157310000Y-128155000D03*
D25*
X155410000Y-110545000D03*
D26*
X155410000Y-109275000D03*
X155410000Y-108005000D03*
D25*
X174250000Y-110500000D03*
D26*
X174250000Y-109230000D03*
X174250000Y-107960000D03*
D21*
X127940000Y-128155000D03*
D22*
X125400000Y-128155000D03*
X122860000Y-128155000D03*
D21*
X181290000Y-128160000D03*
D22*
X178750000Y-128160000D03*
X176210000Y-128160000D03*
D25*
X136860000Y-110570000D03*
D26*
X136860000Y-109300000D03*
X136860000Y-108030000D03*
D19*
X175200000Y-123545000D03*
D20*
X175200000Y-115925000D03*
D21*
X143815000Y-128155000D03*
D22*
X141275000Y-128155000D03*
X138735000Y-128155000D03*
D12*
X163850000Y-123940000D03*
D11*
X163850000Y-113780000D03*
D19*
X156300000Y-123550000D03*
D20*
X156300000Y-115930000D03*
D21*
X115090000Y-128155000D03*
D22*
X112550000Y-128155000D03*
X110010000Y-128155000D03*
D19*
X172650000Y-115925000D03*
D20*
X172650000Y-123545000D03*
D12*
X182785000Y-123960000D03*
D11*
X182785000Y-113800000D03*
D23*
X102200000Y-112600000D03*
D24*
X100930000Y-112600000D03*
X99660000Y-112600000D03*
D13*
X178760000Y-110860000D03*
D14*
X178760000Y-123560000D03*
M02*
