G04 #@! TF.GenerationSoftware,KiCad,Pcbnew,(6.0.7)*
G04 #@! TF.CreationDate,2022-11-23T14:52:55+01:00*
G04 #@! TF.ProjectId,Goobyl_da - Kretskort,476f6f62-796c-4e56-9461-202d204b7265,rev?*
G04 #@! TF.SameCoordinates,Original*
G04 #@! TF.FileFunction,Soldermask,Bot*
G04 #@! TF.FilePolarity,Negative*
%FSLAX46Y46*%
G04 Gerber Fmt 4.6, Leading zero omitted, Abs format (unit mm)*
G04 Created by KiCad (PCBNEW (6.0.7)) date 2022-11-23 14:52:55*
%MOMM*%
%LPD*%
G01*
G04 APERTURE LIST*
%ADD10R,1.600000X1.600000*%
%ADD11O,1.600000X1.600000*%
%ADD12C,1.600000*%
%ADD13R,2.400000X2.400000*%
%ADD14O,2.400000X2.400000*%
%ADD15R,2.200000X2.200000*%
%ADD16O,2.200000X2.200000*%
%ADD17R,1.700000X1.700000*%
%ADD18O,1.700000X1.700000*%
%ADD19R,1.300000X1.300000*%
%ADD20C,1.300000*%
%ADD21R,1.905000X2.000000*%
%ADD22O,1.905000X2.000000*%
%ADD23C,1.400000*%
%ADD24O,1.400000X1.400000*%
G04 APERTURE END LIST*
D10*
X119010000Y-45010000D03*
D11*
X121550000Y-45010000D03*
X124090000Y-45010000D03*
X126630000Y-45010000D03*
X129170000Y-45010000D03*
X131710000Y-45010000D03*
X134250000Y-45010000D03*
X136790000Y-45010000D03*
X141870000Y-45010000D03*
X144410000Y-45010000D03*
X146950000Y-45010000D03*
X149490000Y-45010000D03*
X152030000Y-45010000D03*
X154570000Y-45010000D03*
X154570000Y-93270000D03*
X152030000Y-93270000D03*
X149490000Y-93270000D03*
X146950000Y-93270000D03*
X144410000Y-93270000D03*
X141870000Y-93270000D03*
X139330000Y-93270000D03*
X136790000Y-93270000D03*
X132730000Y-93270000D03*
X130190000Y-93270000D03*
X127650000Y-93270000D03*
X125110000Y-93270000D03*
X122570000Y-93270000D03*
X120030000Y-93270000D03*
X117490000Y-93270000D03*
X114950000Y-93270000D03*
X112410000Y-93270000D03*
X109870000Y-93270000D03*
D10*
X148260000Y-102010000D03*
D12*
X148260000Y-100010000D03*
D10*
X165260000Y-102010000D03*
D12*
X165260000Y-100010000D03*
D10*
X185260000Y-102010000D03*
D12*
X185260000Y-100010000D03*
D10*
X103000000Y-100000000D03*
D12*
X103000000Y-102000000D03*
D10*
X121000000Y-101000000D03*
D12*
X123000000Y-101000000D03*
D13*
X152000000Y-137250000D03*
D14*
X141840000Y-137250000D03*
D13*
X107010000Y-137260000D03*
D14*
X96850000Y-137260000D03*
D15*
X97010000Y-99010000D03*
D16*
X97010000Y-106630000D03*
D13*
X136010000Y-125010000D03*
D14*
X136010000Y-114850000D03*
D13*
X153010000Y-125010000D03*
D14*
X153010000Y-114850000D03*
D13*
X173010000Y-125010000D03*
D14*
X173010000Y-114850000D03*
D10*
X163010000Y-45010000D03*
D11*
X170630000Y-45010000D03*
D10*
X163010000Y-54010000D03*
D11*
X170630000Y-54010000D03*
D10*
X163010000Y-63010000D03*
D11*
X170630000Y-63010000D03*
D10*
X163010000Y-72010000D03*
D11*
X170630000Y-72010000D03*
D10*
X163010000Y-81010000D03*
D11*
X170630000Y-81010000D03*
D10*
X163010000Y-90010000D03*
D11*
X170630000Y-90010000D03*
D17*
X132010000Y-100010000D03*
D18*
X134550000Y-100010000D03*
X137090000Y-100010000D03*
X139630000Y-100010000D03*
D19*
X126000000Y-114000000D03*
D20*
X127270000Y-112730000D03*
X128540000Y-114000000D03*
D19*
X113000000Y-114000000D03*
D20*
X114270000Y-112730000D03*
X115540000Y-114000000D03*
D19*
X100000000Y-114000000D03*
D20*
X101270000Y-112730000D03*
X102540000Y-114000000D03*
D21*
X129000000Y-128000000D03*
D22*
X126460000Y-128000000D03*
X123920000Y-128000000D03*
D21*
X116000000Y-128000000D03*
D22*
X113460000Y-128000000D03*
X110920000Y-128000000D03*
D21*
X103000000Y-128000000D03*
D22*
X100460000Y-128000000D03*
X97920000Y-128000000D03*
D19*
X147750000Y-108000000D03*
D20*
X149020000Y-109270000D03*
X147750000Y-110540000D03*
D19*
X164750000Y-108000000D03*
D20*
X166020000Y-109270000D03*
X164750000Y-110540000D03*
D19*
X184750000Y-108000000D03*
D20*
X186020000Y-109270000D03*
X184750000Y-110540000D03*
D21*
X163000000Y-128000000D03*
D22*
X160460000Y-128000000D03*
X157920000Y-128000000D03*
D21*
X183100000Y-128000000D03*
D22*
X180560000Y-128000000D03*
X178020000Y-128000000D03*
D23*
X123010000Y-115090000D03*
D24*
X123010000Y-110010000D03*
D23*
X110010000Y-115010000D03*
D24*
X110010000Y-109930000D03*
D23*
X97010000Y-115010000D03*
D24*
X97010000Y-109930000D03*
D23*
X126010000Y-124010000D03*
D24*
X126010000Y-118930000D03*
D23*
X113010000Y-124010000D03*
D24*
X113010000Y-118930000D03*
D23*
X100010000Y-124010000D03*
D24*
X100010000Y-118930000D03*
D23*
X123010000Y-124010000D03*
D24*
X123010000Y-118930000D03*
D23*
X97010000Y-124010000D03*
D24*
X97010000Y-118930000D03*
D23*
X129010000Y-124010000D03*
D24*
X129010000Y-118930000D03*
D23*
X116010000Y-124010000D03*
D24*
X116010000Y-118930000D03*
D23*
X140510000Y-109930000D03*
D24*
X140510000Y-115010000D03*
D23*
X157500000Y-110010000D03*
D24*
X157500000Y-115090000D03*
D23*
X177510000Y-110010000D03*
D24*
X177510000Y-115090000D03*
D12*
X147260000Y-124010000D03*
D11*
X147260000Y-113850000D03*
D12*
X164260000Y-124010000D03*
D11*
X164260000Y-113850000D03*
D12*
X184260000Y-124010000D03*
D11*
X184260000Y-113850000D03*
D23*
X140510000Y-124010000D03*
D24*
X140510000Y-118930000D03*
D23*
X157500000Y-124000000D03*
D24*
X157500000Y-118920000D03*
D23*
X177510000Y-124010000D03*
D24*
X177510000Y-118930000D03*
D23*
X163010000Y-50810000D03*
D24*
X168090000Y-50810000D03*
D23*
X163010000Y-59810000D03*
D24*
X168090000Y-59810000D03*
D23*
X163010000Y-77810000D03*
D24*
X168090000Y-77810000D03*
D23*
X163010000Y-86810000D03*
D24*
X168090000Y-86810000D03*
D23*
X163010000Y-95810000D03*
D24*
X168090000Y-95810000D03*
D23*
X163010000Y-48010000D03*
D24*
X168090000Y-48010000D03*
D23*
X163010000Y-57010000D03*
D24*
X168090000Y-57010000D03*
D23*
X163010000Y-66010000D03*
D24*
X168090000Y-66010000D03*
D23*
X163010000Y-75010000D03*
D24*
X168090000Y-75010000D03*
D23*
X163010000Y-84010000D03*
D24*
X168090000Y-84010000D03*
D23*
X163010000Y-93010000D03*
D24*
X168090000Y-93010000D03*
D21*
X110000000Y-101000000D03*
D22*
X112540000Y-101000000D03*
X115080000Y-101000000D03*
D23*
X110010000Y-124010000D03*
D24*
X110010000Y-118930000D03*
D23*
X103010000Y-124010000D03*
D24*
X103010000Y-118930000D03*
D13*
X130010000Y-137260000D03*
D14*
X119850000Y-137260000D03*
D13*
X177000000Y-96000000D03*
D14*
X177000000Y-85840000D03*
D13*
X177000000Y-82000000D03*
D14*
X177000000Y-71840000D03*
D13*
X177000000Y-68000000D03*
D14*
X177000000Y-57840000D03*
D13*
X177010000Y-54010000D03*
D14*
X177010000Y-43850000D03*
D10*
X186010000Y-86010000D03*
D11*
X186010000Y-93630000D03*
D10*
X186010000Y-72010000D03*
D11*
X186010000Y-79630000D03*
D10*
X186010000Y-58010000D03*
D11*
X186010000Y-65630000D03*
D10*
X186010000Y-44010000D03*
D11*
X186010000Y-51630000D03*
D23*
X183310000Y-91090000D03*
D24*
X183310000Y-86010000D03*
D23*
X180710000Y-86010000D03*
D24*
X180710000Y-91090000D03*
D23*
X183310000Y-77090000D03*
D24*
X183310000Y-72010000D03*
D23*
X180710000Y-72010000D03*
D24*
X180710000Y-77090000D03*
D23*
X180510000Y-44000000D03*
D24*
X180510000Y-49080000D03*
D23*
X163010000Y-68810000D03*
D24*
X168090000Y-68810000D03*
D23*
X183280000Y-63090000D03*
D24*
X183280000Y-58010000D03*
D23*
X180670000Y-58000000D03*
D24*
X180670000Y-63080000D03*
D23*
X183110000Y-49090000D03*
D24*
X183110000Y-44010000D03*
D17*
X157000000Y-137250000D03*
X134000000Y-137250000D03*
X112000000Y-137250000D03*
X93000000Y-106600000D03*
D18*
X93000000Y-104060000D03*
D17*
X165000000Y-137250000D03*
X169000000Y-137250000D03*
X173000000Y-137250000D03*
X182000000Y-96000000D03*
X182000000Y-82000000D03*
X182000000Y-68000000D03*
X182000000Y-54000000D03*
X172000000Y-49000000D03*
X172000000Y-58000000D03*
X172000000Y-67000000D03*
X172000000Y-76000000D03*
X172000000Y-85000000D03*
X172000000Y-94000000D03*
D21*
X146000000Y-128000000D03*
D22*
X143460000Y-128000000D03*
X140920000Y-128000000D03*
M02*
