%TF.GenerationSoftware,KiCad,Pcbnew,(6.0.7)*%
%TF.CreationDate,2024-01-16T14:57:27+01:00*%
%TF.ProjectId,Goobyl_da - Kretskort,476f6f62-796c-4e56-9461-202d204b7265,rev?*%
%TF.SameCoordinates,Original*%
%TF.FileFunction,Drillmap*%
%TF.FilePolarity,Positive*%
%FSLAX45Y45*%
G04 Gerber Fmt 4.5, Leading zero omitted, Abs format (unit mm)*
G04 Created by KiCad (PCBNEW (6.0.7)) date 2024-01-16 14:57:27*
%MOMM*%
%LPD*%
G01*
G04 APERTURE LIST*
%ADD10C,0.050000*%
%ADD11C,0.200000*%
G04 APERTURE END LIST*
D10*
X18901000Y-14101000D02*
X8901000Y-14101000D01*
X18901000Y-4101000D02*
X18901000Y-14101000D01*
X8901000Y-4101000D02*
X18901000Y-4101000D01*
X8901000Y-14101000D02*
X8901000Y-4101000D01*
D11*
X9156119Y-14413976D02*
X9156119Y-14213976D01*
X9203738Y-14213976D01*
X9232310Y-14223500D01*
X9251357Y-14242548D01*
X9260881Y-14261595D01*
X9270405Y-14299690D01*
X9270405Y-14328262D01*
X9260881Y-14366357D01*
X9251357Y-14385405D01*
X9232310Y-14404452D01*
X9203738Y-14413976D01*
X9156119Y-14413976D01*
X9356119Y-14413976D02*
X9356119Y-14280643D01*
X9356119Y-14318738D02*
X9365643Y-14299690D01*
X9375167Y-14290167D01*
X9394214Y-14280643D01*
X9413262Y-14280643D01*
X9479929Y-14413976D02*
X9479929Y-14280643D01*
X9479929Y-14213976D02*
X9470405Y-14223500D01*
X9479929Y-14233024D01*
X9489452Y-14223500D01*
X9479929Y-14213976D01*
X9479929Y-14233024D01*
X9603738Y-14413976D02*
X9584690Y-14404452D01*
X9575167Y-14385405D01*
X9575167Y-14213976D01*
X9708500Y-14413976D02*
X9689452Y-14404452D01*
X9679929Y-14385405D01*
X9679929Y-14213976D01*
X9937071Y-14413976D02*
X9937071Y-14213976D01*
X10003738Y-14356833D01*
X10070405Y-14213976D01*
X10070405Y-14413976D01*
X10251357Y-14413976D02*
X10251357Y-14309214D01*
X10241833Y-14290167D01*
X10222786Y-14280643D01*
X10184690Y-14280643D01*
X10165643Y-14290167D01*
X10251357Y-14404452D02*
X10232310Y-14413976D01*
X10184690Y-14413976D01*
X10165643Y-14404452D01*
X10156119Y-14385405D01*
X10156119Y-14366357D01*
X10165643Y-14347309D01*
X10184690Y-14337786D01*
X10232310Y-14337786D01*
X10251357Y-14328262D01*
X10346595Y-14280643D02*
X10346595Y-14480643D01*
X10346595Y-14290167D02*
X10365643Y-14280643D01*
X10403738Y-14280643D01*
X10422786Y-14290167D01*
X10432310Y-14299690D01*
X10441833Y-14318738D01*
X10441833Y-14375881D01*
X10432310Y-14394928D01*
X10422786Y-14404452D01*
X10403738Y-14413976D01*
X10365643Y-14413976D01*
X10346595Y-14404452D01*
X10527548Y-14394928D02*
X10537071Y-14404452D01*
X10527548Y-14413976D01*
X10518024Y-14404452D01*
X10527548Y-14394928D01*
X10527548Y-14413976D01*
X10527548Y-14290167D02*
X10537071Y-14299690D01*
X10527548Y-14309214D01*
X10518024Y-14299690D01*
X10527548Y-14290167D01*
X10527548Y-14309214D01*
M02*
