M48
; DRILL file {KiCad (6.0.7)} date Thu Jan 18 22:28:16 2024
; FORMAT={-:-/ absolute / metric / decimal}
; #@! TF.CreationDate,2024-01-18T22:28:16+01:00
; #@! TF.GenerationSoftware,Kicad,Pcbnew,(6.0.7)
; #@! TF.FileFunction,Plated,1,2,PTH
FMAT,2
METRIC
; #@! TA.AperFunction,Plated,PTH,ViaDrill
T1C0.400
; #@! TA.AperFunction,Plated,PTH,ComponentDrill
T2C0.700
; #@! TA.AperFunction,Plated,PTH,ComponentDrill
T3C0.750
; #@! TA.AperFunction,Plated,PTH,ComponentDrill
T4C0.800
; #@! TA.AperFunction,Plated,PTH,ComponentDrill
T5C1.000
; #@! TA.AperFunction,Plated,PTH,ComponentDrill
T6C1.100
; #@! TA.AperFunction,Plated,PTH,ComponentDrill
T7C1.200
; #@! TA.AperFunction,Plated,PTH,ComponentDrill
T8C3.200
%
G90
G05
T1
X90.0Y-42.5
X90.0Y-45.0
X90.0Y-47.5
X90.0Y-50.0
X90.0Y-52.5
X90.0Y-55.0
X90.0Y-57.5
X90.0Y-60.0
X90.0Y-62.5
X90.0Y-65.0
X90.0Y-67.5
X90.0Y-70.0
X90.0Y-72.5
X90.0Y-75.0
X90.0Y-77.5
X90.0Y-80.0
X90.0Y-82.5
X90.0Y-85.0
X90.0Y-87.5
X90.0Y-90.0
X90.0Y-92.5
X90.0Y-95.0
X90.0Y-97.5
X90.0Y-100.0
X90.0Y-102.5
X90.0Y-105.0
X90.0Y-107.5
X90.0Y-110.0
X90.0Y-112.5
X90.0Y-115.0
X90.0Y-117.5
X90.0Y-120.0
X90.0Y-122.5
X90.0Y-125.0
X90.0Y-127.5
X90.0Y-130.0
X90.0Y-132.5
X90.0Y-135.0
X90.0Y-137.5
X90.0Y-140.0
X92.5Y-42.5
X92.5Y-45.0
X92.5Y-47.5
X92.5Y-50.0
X92.5Y-52.5
X92.5Y-55.0
X92.5Y-57.5
X92.5Y-60.0
X92.5Y-67.5
X92.5Y-70.0
X92.5Y-72.5
X92.5Y-75.0
X92.5Y-77.5
X92.5Y-80.0
X92.5Y-82.5
X92.5Y-85.0
X92.5Y-87.5
X92.5Y-90.0
X92.5Y-92.5
X92.5Y-95.0
X92.5Y-102.5
X92.5Y-105.0
X92.5Y-127.5
X92.5Y-130.0
X92.5Y-132.5
X92.5Y-135.0
X92.5Y-140.0
X95.0Y-42.5
X95.0Y-45.0
X95.0Y-47.5
X95.0Y-50.0
X95.0Y-52.5
X95.0Y-55.0
X95.0Y-57.5
X95.0Y-60.0
X95.0Y-67.5
X95.0Y-70.0
X95.0Y-72.5
X95.0Y-75.0
X95.0Y-77.5
X95.0Y-80.0
X95.0Y-82.5
X95.0Y-85.0
X95.0Y-87.5
X95.0Y-90.0
X95.0Y-92.5
X95.0Y-95.0
X95.0Y-97.5
X95.0Y-100.0
X95.0Y-102.5
X95.0Y-110.0
X95.0Y-112.5
X95.0Y-115.0
X95.0Y-117.5
X95.0Y-120.0
X95.0Y-122.5
X95.0Y-130.0
X95.0Y-132.5
X95.0Y-135.0
X95.0Y-140.0
X97.5Y-42.5
X97.5Y-45.0
X97.5Y-47.5
X97.5Y-50.0
X97.5Y-52.5
X97.5Y-55.0
X97.5Y-57.5
X97.5Y-60.0
X97.5Y-67.5
X97.5Y-70.0
X97.5Y-72.5
X97.5Y-75.0
X97.5Y-77.5
X97.5Y-80.0
X97.5Y-82.5
X97.5Y-85.0
X97.5Y-87.5
X97.5Y-90.0
X97.5Y-92.5
X97.5Y-95.0
X97.5Y-97.5
X97.5Y-100.0
X97.5Y-107.5
X97.5Y-112.5
X97.5Y-115.0
X97.5Y-120.0
X97.5Y-122.5
X97.5Y-130.0
X97.5Y-132.5
X97.5Y-140.0
X100.0Y-42.5
X100.0Y-45.0
X100.0Y-47.5
X100.0Y-50.0
X100.0Y-52.5
X100.0Y-55.0
X100.0Y-57.5
X100.0Y-60.0
X100.0Y-62.5
X100.0Y-65.0
X100.0Y-67.5
X100.0Y-70.0
X100.0Y-72.5
X100.0Y-75.0
X100.0Y-77.5
X100.0Y-80.0
X100.0Y-82.5
X100.0Y-85.0
X100.0Y-87.5
X100.0Y-90.0
X100.0Y-92.5
X100.0Y-95.0
X100.0Y-97.5
X100.0Y-100.0
X100.0Y-102.5
X100.0Y-107.5
X100.0Y-110.0
X100.0Y-115.0
X100.0Y-122.5
X100.0Y-137.5
X100.0Y-140.0
X102.5Y-42.5
X102.5Y-45.0
X102.5Y-47.5
X102.5Y-50.0
X102.5Y-52.5
X102.5Y-55.0
X102.5Y-57.5
X102.5Y-60.0
X102.5Y-62.5
X102.5Y-65.0
X102.5Y-67.5
X102.5Y-70.0
X102.5Y-72.5
X102.5Y-75.0
X102.5Y-77.5
X102.5Y-80.0
X102.5Y-82.5
X102.5Y-85.0
X102.5Y-87.5
X102.5Y-90.0
X102.5Y-92.5
X102.5Y-95.0
X102.5Y-97.5
X102.5Y-107.5
X102.5Y-110.0
X102.5Y-120.0
X102.5Y-130.0
X102.5Y-132.5
X102.5Y-135.0
X102.5Y-137.5
X102.5Y-140.0
X104.0Y-103.3
X105.0Y-42.5
X105.0Y-45.0
X105.0Y-47.5
X105.0Y-50.0
X105.0Y-52.5
X105.0Y-55.0
X105.0Y-57.5
X105.0Y-60.0
X105.0Y-62.5
X105.0Y-65.0
X105.0Y-67.5
X105.0Y-70.0
X105.0Y-72.5
X105.0Y-75.0
X105.0Y-77.5
X105.0Y-80.0
X105.0Y-82.5
X105.0Y-85.0
X105.0Y-87.5
X105.0Y-90.0
X105.0Y-92.5
X105.0Y-95.0
X105.0Y-97.5
X105.0Y-102.5
X105.0Y-112.5
X105.0Y-117.5
X105.0Y-120.0
X105.0Y-122.5
X105.0Y-125.0
X105.0Y-127.5
X105.0Y-130.0
X105.0Y-132.5
X105.0Y-135.0
X105.0Y-137.5
X105.0Y-140.0
X107.5Y-42.5
X107.5Y-45.0
X107.5Y-47.5
X107.5Y-50.0
X107.5Y-52.5
X107.5Y-55.0
X107.5Y-57.5
X107.5Y-60.0
X107.5Y-62.5
X107.5Y-65.0
X107.5Y-67.5
X107.5Y-70.0
X107.5Y-72.5
X107.5Y-75.0
X107.5Y-77.5
X107.5Y-80.0
X107.5Y-82.5
X107.5Y-85.0
X107.5Y-87.5
X107.5Y-90.0
X107.5Y-92.5
X107.5Y-95.0
X107.5Y-97.5
X107.5Y-102.5
X107.5Y-130.0
X107.5Y-132.5
X107.5Y-140.0
X109.87Y-98.87
X110.0Y-42.5
X110.0Y-45.0
X110.0Y-47.5
X110.0Y-50.0
X110.0Y-52.5
X110.0Y-55.0
X110.0Y-57.5
X110.0Y-60.0
X110.0Y-62.5
X110.0Y-65.0
X110.0Y-67.5
X110.0Y-70.0
X110.0Y-72.5
X110.0Y-75.0
X110.0Y-77.5
X110.0Y-80.0
X110.0Y-82.5
X110.0Y-85.0
X110.0Y-87.5
X110.0Y-90.0
X110.0Y-107.5
X110.0Y-112.5
X110.0Y-115.0
X110.0Y-130.0
X110.0Y-132.5
X110.0Y-135.0
X110.0Y-140.0
X112.41Y-97.89
X112.5Y-42.5
X112.5Y-45.0
X112.5Y-47.5
X112.5Y-50.0
X112.5Y-52.5
X112.5Y-55.0
X112.5Y-57.5
X112.5Y-60.0
X112.5Y-62.5
X112.5Y-65.0
X112.5Y-67.5
X112.5Y-70.0
X112.5Y-72.5
X112.5Y-75.0
X112.5Y-77.5
X112.5Y-80.0
X112.5Y-87.5
X112.5Y-90.0
X112.5Y-107.5
X112.5Y-115.0
X112.5Y-140.0
X115.0Y-42.5
X115.0Y-45.0
X115.0Y-47.5
X115.0Y-50.0
X115.0Y-52.5
X115.0Y-55.0
X115.0Y-57.5
X115.0Y-60.0
X115.0Y-62.5
X115.0Y-65.0
X115.0Y-67.5
X115.0Y-70.0
X115.0Y-72.5
X115.0Y-75.0
X115.0Y-77.5
X115.0Y-80.0
X115.0Y-87.5
X115.0Y-90.0
X115.0Y-95.0
X115.0Y-107.5
X115.0Y-110.0
X115.0Y-120.0
X115.0Y-130.0
X115.0Y-137.75
X115.0Y-140.0
X117.0Y-96.6
X117.5Y-42.5
X117.5Y-45.0
X117.5Y-47.5
X117.5Y-50.0
X117.5Y-52.5
X117.5Y-55.0
X117.5Y-57.5
X117.5Y-60.0
X117.5Y-62.5
X117.5Y-65.0
X117.5Y-67.5
X117.5Y-70.0
X117.5Y-72.5
X117.5Y-75.0
X117.5Y-77.5
X117.5Y-80.0
X117.5Y-87.5
X117.5Y-90.0
X117.5Y-95.0
X117.5Y-112.5
X117.5Y-115.0
X117.5Y-117.5
X117.5Y-120.0
X117.5Y-122.5
X117.5Y-125.0
X117.5Y-127.5
X117.5Y-130.0
X117.5Y-132.5
X117.5Y-140.0
X118.6Y-103.3
X120.0Y-42.5
X120.0Y-47.5
X120.0Y-50.0
X120.0Y-52.5
X120.0Y-55.0
X120.0Y-57.5
X120.0Y-60.0
X120.0Y-62.5
X120.0Y-65.0
X120.0Y-67.5
X120.0Y-70.0
X120.0Y-72.5
X120.0Y-75.0
X120.0Y-77.5
X120.0Y-80.0
X120.0Y-82.5
X120.0Y-85.0
X120.0Y-87.5
X120.0Y-90.0
X120.0Y-130.0
X120.0Y-132.5
X120.0Y-135.0
X120.0Y-137.5
X120.0Y-140.0
X121.21Y-48.71
X122.5Y-42.5
X122.5Y-47.5
X122.5Y-50.0
X122.5Y-52.5
X122.5Y-55.0
X122.5Y-57.5
X122.5Y-60.0
X122.5Y-62.5
X122.5Y-65.0
X122.5Y-67.5
X122.5Y-70.0
X122.5Y-72.5
X122.5Y-75.0
X122.5Y-77.5
X122.5Y-80.0
X122.5Y-82.5
X122.5Y-85.0
X122.5Y-87.5
X122.5Y-90.0
X122.5Y-107.5
X122.5Y-112.5
X122.5Y-115.0
X122.5Y-130.0
X122.5Y-132.5
X122.5Y-135.0
X122.5Y-137.75
X122.5Y-140.0
X122.6Y-96.6
X125.0Y-42.5
X125.0Y-47.5
X125.0Y-50.0
X125.0Y-52.5
X125.0Y-55.0
X125.0Y-57.5
X125.0Y-60.0
X125.0Y-62.5
X125.0Y-65.0
X125.0Y-67.5
X125.0Y-70.0
X125.0Y-72.5
X125.0Y-75.0
X125.0Y-77.5
X125.0Y-80.0
X125.0Y-82.5
X125.0Y-85.0
X125.0Y-87.5
X125.0Y-90.0
X125.0Y-107.5
X125.0Y-115.0
X125.0Y-135.0
X125.0Y-137.75
X125.0Y-140.0
X127.5Y-42.5
X127.5Y-47.5
X127.5Y-50.0
X127.5Y-52.5
X127.5Y-55.0
X127.5Y-57.5
X127.5Y-60.0
X127.5Y-62.5
X127.5Y-65.0
X127.5Y-67.5
X127.5Y-70.0
X127.5Y-72.5
X127.5Y-75.0
X127.5Y-77.5
X127.5Y-80.0
X127.5Y-82.5
X127.5Y-85.0
X127.5Y-87.5
X127.5Y-90.0
X127.5Y-130.0
X127.5Y-137.75
X127.5Y-140.0
X127.8Y-118.3
X128.0Y-119.5
X129.17Y-90.07
X129.77Y-97.13
X130.0Y-42.5
X130.0Y-47.5
X130.0Y-50.0
X130.0Y-52.5
X130.0Y-55.0
X130.0Y-57.5
X130.0Y-60.0
X130.0Y-62.5
X130.0Y-65.0
X130.0Y-67.5
X130.0Y-70.0
X130.0Y-72.5
X130.0Y-75.0
X130.0Y-77.5
X130.0Y-80.0
X130.0Y-82.5
X130.0Y-85.0
X130.0Y-87.5
X130.0Y-91.0
X130.0Y-112.5
X130.0Y-115.0
X130.0Y-122.5
X130.0Y-125.0
X130.0Y-127.5
X130.0Y-130.0
X130.0Y-140.0
X130.2Y-118.3
X130.2Y-119.5
X132.5Y-42.5
X132.5Y-47.5
X132.5Y-50.0
X132.5Y-52.5
X132.5Y-55.0
X132.5Y-57.5
X132.5Y-60.0
X132.5Y-62.5
X132.5Y-65.0
X132.5Y-67.5
X132.5Y-70.0
X132.5Y-72.5
X132.5Y-75.0
X132.5Y-77.5
X132.5Y-80.0
X132.5Y-82.5
X132.5Y-85.0
X132.5Y-87.5
X132.5Y-95.0
X132.5Y-102.5
X132.5Y-130.0
X132.5Y-140.0
X133.0Y-91.0
X134.67Y-90.07
X135.0Y-42.5
X135.0Y-47.5
X135.0Y-50.0
X135.0Y-52.5
X135.0Y-55.0
X135.0Y-57.5
X135.0Y-60.0
X135.0Y-62.5
X135.0Y-65.0
X135.0Y-67.5
X135.0Y-70.0
X135.0Y-72.5
X135.0Y-75.0
X135.0Y-77.5
X135.0Y-80.0
X135.0Y-82.5
X135.0Y-85.0
X135.0Y-87.5
X135.0Y-102.5
X135.0Y-107.5
X135.0Y-117.5
X135.0Y-122.0
X135.0Y-130.0
X135.0Y-140.0
X136.0Y-121.0
X136.79Y-48.71
X136.8Y-95.6
X137.0Y-122.0
X137.5Y-42.5
X137.5Y-50.0
X137.5Y-52.5
X137.5Y-55.0
X137.5Y-57.5
X137.5Y-60.0
X137.5Y-62.5
X137.5Y-65.0
X137.5Y-67.5
X137.5Y-70.0
X137.5Y-72.5
X137.5Y-75.0
X137.5Y-77.5
X137.5Y-80.0
X137.5Y-82.5
X137.5Y-85.0
X137.5Y-87.5
X137.5Y-90.0
X137.5Y-97.5
X137.5Y-102.5
X137.5Y-117.5
X137.5Y-130.0
X137.5Y-132.5
X137.5Y-140.0
X138.0Y-121.0
X139.0Y-122.0
X139.33Y-86.77
X140.0Y-42.5
X140.0Y-45.0
X140.0Y-47.5
X140.0Y-50.0
X140.0Y-52.5
X140.0Y-55.0
X140.0Y-57.5
X140.0Y-60.0
X140.0Y-62.5
X140.0Y-65.0
X140.0Y-67.5
X140.0Y-70.0
X140.0Y-72.5
X140.0Y-75.0
X140.0Y-77.5
X140.0Y-80.0
X140.0Y-82.5
X140.0Y-85.0
X140.0Y-97.5
X140.0Y-102.5
X140.0Y-107.5
X140.0Y-115.0
X140.0Y-117.5
X140.0Y-130.0
X140.0Y-132.5
X140.0Y-135.0
X140.0Y-137.5
X140.0Y-140.0
X141.87Y-91.33
X142.5Y-42.5
X142.5Y-97.5
X142.5Y-100.0
X142.5Y-102.5
X142.5Y-107.5
X142.5Y-115.0
X142.5Y-117.5
X142.5Y-130.0
X142.5Y-132.5
X142.5Y-135.0
X142.5Y-137.5
X142.5Y-140.0
X143.0Y-47.0
X143.0Y-51.0
X143.0Y-56.0
X143.0Y-60.0
X143.0Y-66.0
X143.0Y-71.0
X143.0Y-75.0
X143.1Y-77.8
X143.1Y-87.8
X144.41Y-81.71
X144.41Y-87.81
X145.0Y-42.5
X145.0Y-80.0
X145.0Y-97.5
X145.0Y-100.0
X145.0Y-102.5
X145.0Y-117.5
X145.0Y-122.5
X145.0Y-130.0
X145.0Y-132.5
X145.0Y-135.0
X145.0Y-137.5
X145.0Y-140.0
X145.8Y-77.8
X146.0Y-84.0
X146.9Y-65.5
X146.95Y-76.65
X146.95Y-80.55
X146.95Y-87.55
X147.5Y-42.5
X147.5Y-47.5
X147.5Y-50.0
X147.5Y-52.5
X147.5Y-55.0
X147.5Y-57.5
X147.5Y-95.0
X147.5Y-97.5
X147.5Y-135.0
X147.5Y-137.5
X147.5Y-140.0
X147.8Y-77.8
X148.0Y-84.0
X148.0Y-89.0
X149.5Y-53.1
X149.5Y-63.9
X149.5Y-66.0
X149.5Y-78.6
X149.5Y-80.6
X149.5Y-90.7
X150.0Y-42.5
X150.0Y-95.0
X150.0Y-97.5
X150.0Y-107.5
X150.0Y-140.0
X151.0Y-89.0
X152.5Y-42.5
X152.5Y-47.5
X152.5Y-50.0
X152.5Y-55.0
X152.5Y-57.5
X152.5Y-62.5
X152.5Y-67.5
X152.5Y-70.0
X152.5Y-72.5
X152.5Y-75.0
X152.5Y-87.5
X152.5Y-90.0
X152.5Y-95.0
X152.5Y-97.5
X152.5Y-100.0
X152.5Y-102.5
X152.5Y-107.5
X152.5Y-130.0
X152.5Y-140.0
X153.7Y-118.3
X155.0Y-42.5
X155.0Y-47.5
X155.0Y-50.0
X155.0Y-55.0
X155.0Y-57.5
X155.0Y-62.5
X155.0Y-67.5
X155.0Y-70.0
X155.0Y-72.5
X155.0Y-75.0
X155.0Y-87.5
X155.0Y-90.0
X155.0Y-95.0
X155.0Y-97.5
X155.0Y-100.0
X155.0Y-102.5
X155.0Y-112.5
X155.0Y-117.5
X155.0Y-140.0
X156.0Y-122.0
X156.9Y-68.8
X156.9Y-78.6
X157.0Y-121.0
X157.5Y-42.5
X157.5Y-45.0
X157.5Y-47.5
X157.5Y-50.0
X157.5Y-55.0
X157.5Y-57.5
X157.5Y-62.5
X157.5Y-67.5
X157.5Y-82.5
X157.5Y-85.0
X157.5Y-87.5
X157.5Y-90.0
X157.5Y-92.5
X157.5Y-95.0
X157.5Y-97.5
X157.5Y-117.5
X157.5Y-130.0
X157.5Y-137.5
X157.5Y-140.0
X158.0Y-122.0
X160.0Y-42.5
X160.0Y-45.0
X160.0Y-47.5
X160.0Y-50.0
X160.0Y-55.0
X160.0Y-57.5
X160.0Y-62.5
X160.0Y-67.5
X160.0Y-70.0
X160.0Y-72.5
X160.0Y-75.0
X160.0Y-82.5
X160.0Y-85.0
X160.0Y-87.5
X160.0Y-90.0
X160.0Y-92.5
X160.0Y-95.0
X160.0Y-97.5
X160.0Y-100.0
X160.0Y-107.5
X160.0Y-115.0
X160.0Y-117.5
X160.0Y-121.0
X160.0Y-130.0
X160.0Y-137.5
X160.0Y-140.0
X162.0Y-121.0
X162.5Y-42.5
X162.5Y-97.5
X162.5Y-100.0
X162.5Y-102.5
X162.5Y-107.5
X162.5Y-117.5
X162.5Y-122.5
X162.5Y-130.0
X162.5Y-132.5
X162.5Y-140.0
X165.0Y-42.5
X165.0Y-45.0
X165.0Y-47.5
X165.0Y-50.0
X165.0Y-55.0
X165.0Y-57.5
X165.0Y-60.0
X165.0Y-62.5
X165.0Y-67.5
X165.0Y-70.0
X165.0Y-72.5
X165.0Y-75.0
X165.0Y-77.5
X165.0Y-82.5
X165.0Y-85.0
X165.0Y-87.5
X165.0Y-90.0
X165.0Y-92.5
X165.0Y-95.0
X165.0Y-97.5
X165.0Y-100.0
X165.0Y-102.5
X165.0Y-117.5
X165.0Y-122.5
X165.0Y-127.5
X165.0Y-130.0
X165.0Y-132.5
X165.0Y-135.0
X165.0Y-140.0
X167.5Y-42.5
X167.5Y-45.0
X167.5Y-47.5
X167.5Y-50.0
X167.5Y-55.0
X167.5Y-57.5
X167.5Y-60.0
X167.5Y-62.5
X167.5Y-67.5
X167.5Y-70.0
X167.5Y-72.5
X167.5Y-75.0
X167.5Y-77.5
X167.5Y-82.5
X167.5Y-85.0
X167.5Y-87.5
X167.5Y-90.0
X167.5Y-92.5
X167.5Y-95.0
X167.5Y-97.5
X167.5Y-140.0
X170.0Y-42.5
X170.0Y-67.5
X170.0Y-70.0
X170.0Y-82.5
X170.0Y-102.5
X170.0Y-105.0
X170.0Y-130.0
X170.0Y-132.5
X170.0Y-135.0
X170.0Y-140.0
X172.5Y-70.0
X172.5Y-72.5
X172.5Y-82.5
X172.5Y-85.0
X172.5Y-95.0
X172.5Y-97.5
X172.5Y-100.0
X172.5Y-107.5
X172.5Y-117.5
X172.5Y-132.5
X172.5Y-140.0
X175.0Y-55.0
X175.0Y-70.0
X175.0Y-85.0
X175.0Y-97.5
X175.0Y-117.5
X175.0Y-120.0
X175.0Y-122.0
X175.0Y-137.5
X175.0Y-140.0
X177.0Y-122.0
X177.5Y-45.0
X177.5Y-47.5
X177.5Y-50.0
X177.5Y-62.5
X177.5Y-65.0
X177.5Y-67.5
X177.5Y-80.0
X177.5Y-95.0
X177.5Y-102.5
X177.5Y-115.0
X177.5Y-117.5
X177.5Y-120.0
X177.5Y-135.0
X177.5Y-137.5
X177.5Y-140.0
X180.0Y-45.0
X180.0Y-47.5
X180.0Y-50.0
X180.0Y-62.5
X180.0Y-65.0
X180.0Y-67.5
X180.0Y-77.5
X180.0Y-80.0
X180.0Y-82.5
X180.0Y-95.0
X180.0Y-97.5
X180.0Y-102.5
X180.0Y-107.5
X180.0Y-115.0
X180.0Y-117.5
X180.0Y-120.0
X180.0Y-135.0
X180.0Y-137.5
X180.0Y-140.0
X182.5Y-45.0
X182.5Y-47.5
X182.5Y-50.0
X182.5Y-62.5
X182.5Y-65.0
X182.5Y-67.5
X182.5Y-77.5
X182.5Y-80.0
X182.5Y-82.5
X182.5Y-95.0
X182.5Y-97.5
X182.5Y-100.0
X182.5Y-117.5
X182.5Y-120.0
X182.5Y-122.5
X182.5Y-140.0
X185.0Y-57.5
X185.0Y-72.5
X185.0Y-90.0
X185.0Y-107.5
X185.0Y-140.0
X187.5Y-42.5
X187.5Y-45.0
X187.5Y-47.5
X187.5Y-50.0
X187.5Y-52.5
X187.5Y-55.0
X187.5Y-57.5
X187.5Y-60.0
X187.5Y-62.5
X187.5Y-65.0
X187.5Y-67.5
X187.5Y-72.5
X187.5Y-75.0
X187.5Y-77.5
X187.5Y-80.0
X187.5Y-82.5
X187.5Y-85.0
X187.5Y-87.5
X187.5Y-90.0
X187.5Y-95.0
X187.5Y-97.5
X187.5Y-100.0
X187.5Y-102.5
X187.5Y-105.0
X187.5Y-107.5
X187.5Y-110.0
X187.5Y-132.5
X187.5Y-135.0
X187.5Y-137.5
X187.5Y-140.0
T2
X96.4Y-109.3
X97.1Y-116.39
X97.1Y-124.01
X99.7Y-116.39
X99.7Y-124.01
X102.2Y-116.39
X102.2Y-124.01
X104.02Y-109.3
X109.39Y-109.3
X110.0Y-116.43
X110.0Y-124.05
X112.55Y-116.43
X112.55Y-124.05
X115.1Y-116.43
X115.1Y-124.05
X117.01Y-109.3
X122.15Y-109.3
X122.9Y-116.43
X122.9Y-124.05
X125.4Y-116.43
X125.4Y-124.05
X127.95Y-116.43
X127.95Y-124.05
X129.77Y-109.3
X135.175Y-115.95
X135.175Y-123.57
X137.725Y-115.94
X137.725Y-123.56
X153.75Y-115.94
X153.75Y-123.56
X156.3Y-115.93
X156.3Y-123.55
X163.01Y-48.01
X163.01Y-50.81
X163.01Y-57.01
X163.01Y-59.81
X163.01Y-66.01
X163.01Y-68.81
X163.01Y-75.01
X163.01Y-77.81
X163.01Y-84.01
X163.01Y-86.81
X163.04Y-95.6
X163.05Y-92.8
X170.63Y-48.01
X170.63Y-50.81
X170.63Y-57.01
X170.63Y-59.81
X170.63Y-66.01
X170.63Y-68.81
X170.63Y-75.01
X170.63Y-77.81
X170.63Y-84.01
X170.63Y-86.81
X170.66Y-95.6
X170.67Y-92.8
X172.65Y-115.925
X172.65Y-123.545
X175.2Y-115.925
X175.2Y-123.545
T3
X99.66Y-112.6
X100.93Y-112.6
X102.2Y-112.6
X112.58Y-112.64
X113.85Y-112.64
X115.12Y-112.64
X125.41Y-112.6
X126.68Y-112.6
X127.95Y-112.6
X136.86Y-108.03
X136.86Y-109.3
X136.86Y-110.57
X155.41Y-108.005
X155.41Y-109.275
X155.41Y-110.545
X174.25Y-107.96
X174.25Y-109.23
X174.25Y-110.5
T4
X103.0Y-100.0
X103.0Y-102.0
X121.0Y-101.0
X123.0Y-101.0
X145.275Y-113.8
X145.275Y-123.96
X148.75Y-100.01
X148.75Y-102.01
X158.0Y-100.0
X158.0Y-102.0
X163.01Y-45.01
X163.01Y-54.01
X163.01Y-63.01
X163.01Y-72.01
X163.01Y-81.01
X163.05Y-89.8
X163.85Y-113.78
X163.85Y-123.94
X167.0Y-100.0
X167.0Y-102.0
X170.63Y-45.01
X170.63Y-54.01
X170.63Y-63.01
X170.63Y-72.01
X170.63Y-81.01
X170.67Y-89.8
X174.5Y-50.94
X174.5Y-58.56
X174.55Y-65.14
X174.55Y-72.76
X174.6Y-79.34
X174.6Y-86.96
X174.6Y-93.54
X174.6Y-101.16
X182.3Y-42.6
X182.3Y-52.76
X182.35Y-59.27
X182.35Y-69.43
X182.35Y-75.92
X182.35Y-86.08
X182.35Y-92.67
X182.35Y-102.83
X182.785Y-113.8
X182.785Y-123.96
X185.75Y-42.57
X185.75Y-52.73
X185.8Y-59.27
X185.8Y-69.43
X185.8Y-75.92
X185.8Y-86.08
X185.8Y-92.67
X185.8Y-102.83
T5
X97.5Y-102.685
X97.5Y-105.225
X109.87Y-93.27
X112.0Y-137.25
X112.41Y-93.27
X114.95Y-93.27
X117.49Y-93.27
X119.01Y-45.01
X120.03Y-93.27
X121.55Y-45.01
X122.57Y-93.27
X124.09Y-45.01
X125.11Y-93.27
X126.63Y-45.01
X127.65Y-93.27
X129.17Y-45.01
X130.19Y-93.27
X131.71Y-45.01
X132.01Y-100.01
X132.73Y-93.27
X134.0Y-137.25
X134.25Y-45.01
X134.55Y-100.01
X136.79Y-45.01
X136.79Y-93.27
X137.09Y-100.01
X139.33Y-93.27
X139.63Y-100.01
X141.87Y-45.01
X141.87Y-93.27
X144.41Y-45.01
X144.41Y-93.27
X146.95Y-45.01
X146.95Y-93.27
X149.49Y-45.01
X149.49Y-93.27
X152.03Y-45.01
X152.03Y-93.27
X154.57Y-45.01
X154.57Y-93.27
X155.28Y-137.25
X162.625Y-137.25
X167.15Y-137.225
X171.675Y-137.225
X173.95Y-43.35
X173.95Y-47.65
X173.95Y-61.85
X173.95Y-76.05
X173.95Y-90.25
X174.05Y-104.45
X182.6Y-55.95
X182.6Y-106.15
X182.65Y-72.61
X182.65Y-89.4
T6
X92.5Y-99.02
X92.5Y-109.18
X97.16Y-128.155
X99.7Y-128.155
X102.24Y-128.155
X110.0Y-101.0
X110.01Y-128.155
X112.54Y-101.0
X112.55Y-128.155
X115.08Y-101.0
X115.09Y-128.155
X122.86Y-128.155
X125.4Y-128.155
X127.94Y-128.155
X138.735Y-128.155
X141.275Y-128.155
X143.815Y-128.155
X157.31Y-128.155
X159.85Y-128.155
X162.39Y-128.155
X176.21Y-128.16
X178.75Y-128.16
X181.29Y-128.16
T7
X94.31Y-137.26
X107.01Y-137.26
X117.31Y-137.26
X130.01Y-137.26
X137.58Y-137.25
X141.275Y-110.86
X141.275Y-123.56
X150.28Y-137.25
X159.85Y-110.84
X159.85Y-123.54
X178.3Y-43.0
X178.3Y-55.7
X178.325Y-93.05
X178.325Y-105.75
X178.35Y-59.65
X178.35Y-72.35
X178.35Y-76.3
X178.35Y-89.0
X178.76Y-110.86
X178.76Y-123.56
T8
X95.0Y-63.8
X115.0Y-83.8
X154.0Y-83.8
X184.0Y-136.0
T0
M30
